<?xml version="1.0" standalone="no"?>
<!DOCTYPE svg PUBLIC "-//W3C//DTD SVG 1.1//EN" "http://www.w3.org/Graphics/SVG/1.1/DTD/svg11.dtd" >
<svg xmlns="http://www.w3.org/2000/svg">
<metadata>
This is a custom SVG webfont generated by Font Squirrel.
Copyright   : c 2010 by Rodrigo Ramirez  wwwfrescotypecom
Foundry     : Rodrigo Ramirez  Frescotype
</metadata>
<defs>
<font id="webfonttexfGeSU" horiz-adv-x="1171" >
<font-face units-per-em="2048" ascent="1536" descent="-512" />
<missing-glyph horiz-adv-x="450" />
<glyph unicode=" "  horiz-adv-x="450" />
<glyph unicode="&#x09;" horiz-adv-x="450" />
<glyph unicode="&#xa0;" horiz-adv-x="450" />
<glyph unicode="!" horiz-adv-x="579" d="M424 930l-39 -484h-190l-39 484v483h268v-483zM156 0v285h262v-285h-262z" />
<glyph unicode="&#x22;" horiz-adv-x="751" d="M338 1413l-33 -629h-192l-27 629h252zM664 1413l-31 -629h-193l-26 629h250z" />
<glyph unicode="#" d="M987 371h-211l-45 -236h-164l45 236h-157l-43 -236h-164l45 236h-109v198h146q6 29 16 84.5t16 81.5h-178v197h215l52 264h163l-51 -264h156l51 264h164l-51 -264h104v-197h-141q-6 -27 -16.5 -82t-16.5 -84h174v-198zM524 735l-30 -166h155q6 29 16.5 84.5t16.5 81.5 h-158z" />
<glyph unicode="$" horiz-adv-x="1007" d="M639 -20h-248q0 16 2 96t2 94q-143 12 -239 72l53 186q104 -70 237 -70q70 0 110 30t40 81q0 49 -44 83t-107.5 59.5t-126 59.5t-106.5 99.5t-44 161.5q0 92 56.5 162.5t168.5 97.5q0 18 -3 110.5t-3 108.5h250l-8 -203q123 -10 207 -45q-4 -12 -18.5 -97t-18.5 -97 q-113 51 -244 51q-66 0 -101.5 -25.5t-35.5 -66.5t45 -72t108.5 -55.5t127 -57t108.5 -97t45 -154.5q0 -104 -57.5 -183.5t-161.5 -113.5z" />
<glyph unicode="%" horiz-adv-x="1968" d="M86 954.5q0 227.5 95 342t268 114.5q180 0 277 -114.5t97 -342t-98 -337t-276 -109.5q-172 0 -267.5 109.5t-95.5 337zM344 954q0 -274 105 -274q61 0 88.5 63.5t27.5 210.5q0 160 -26.5 222.5t-89.5 62.5q-55 0 -80 -63.5t-25 -221.5zM1145 426q0 225 95 341t267 116 q180 0 277.5 -115t97.5 -342t-98 -336.5t-277 -109.5q-172 0 -267 109.5t-95 336.5zM1403 426q0 -274 104 -274q61 0 89 63.5t28 210.5q0 160 -26.5 222.5t-90.5 62.5q-55 0 -79.5 -63.5t-24.5 -221.5zM1276 1460l-500 -1552h-94l500 1552h94z" />
<glyph unicode="&#x26;" horiz-adv-x="1286" d="M911 1118q0 -70 -20.5 -126t-63.5 -101t-81.5 -75t-102.5 -68l236 -304q53 106 90 271l237 -62q-47 -246 -170 -413l187 -240h-312l-57 72q-135 -92 -309 -92q-195 0 -334 106.5t-139 321.5q0 131 63.5 220t173.5 163l-16 24q-109 147 -109 289q0 145 107.5 227t263.5 82 q160 0 258 -77t98 -218zM565 197q84 0 152 55l-271 356q-100 -86 -100 -192q0 -104 62.5 -161.5t156.5 -57.5zM434 1092q0 -76 62 -152l22 -31q78 45 119 86t41 95q0 131 -123 131q-53 0 -87 -35t-34 -94z" />
<glyph unicode="'" horiz-adv-x="423" d="M338 1413l-33 -629h-192l-27 629h252z" />
<glyph unicode="(" horiz-adv-x="638" d="M84 698q0 225 105.5 445.5t269.5 355.5l135 -139q-115 -106 -176.5 -287.5t-61.5 -374.5q0 -195 62.5 -376t177.5 -287l-137 -139q-164 135 -269.5 355t-105.5 447z" />
<glyph unicode=")" horiz-adv-x="638" d="M555 698q0 -227 -105.5 -447t-271.5 -355l-135 139q115 106 176.5 287.5t61.5 375.5q0 193 -61.5 374t-176.5 288l135 139q166 -135 271.5 -355.5t105.5 -445.5z" />
<glyph unicode="*" horiz-adv-x="987" d="M903 1032l-231 -74l143 -200l-178 -127l-143 198l-144 -198l-178 127l145 198l-233 76l68 207l233 -76v244h217v-244l236 76z" />
<glyph unicode="+" horiz-adv-x="1011" d="M879 496h-285v-291h-191v291h-270v178h270v278h191v-278h285v-178z" />
<glyph unicode="," horiz-adv-x="462" d="M96 31v258h271v-305q0 -125 -68 -186.5t-203 -76.5v140q63 14 64 139z" />
<glyph unicode="-" horiz-adv-x="1003" d="M860 467h-717v170h717v-170z" />
<glyph unicode="." horiz-adv-x="448" d="M88 0v289h270v-289h-270z" />
<glyph unicode="/" horiz-adv-x="614" d="M604 1460l-500 -1552h-94l500 1552h94z" />
<glyph unicode="0" d="M582 -20q-117 0 -205 36.5t-143.5 99t-89 157t-46 196.5t-12.5 231q0 158 23.5 280t78 223.5t153.5 155.5t241 54q119 0 208 -38t144 -101.5t89 -157.5t47 -193.5t13 -222.5q0 -160 -23.5 -283.5t-78.5 -226t-155.5 -156.5t-243.5 -54zM582 195q125 0 174 125.5t49 379.5 q0 250 -51.5 373t-172 123t-168.5 -123t-48 -373q0 -254 48 -379.5t169 -125.5z" />
<glyph unicode="1" d="M1044 0h-786v203h268v692q0 96 11 197q-51 -66 -148.5 -112t-185.5 -60l-33 210q270 68 416 263h207v-1190h251v-203z" />
<glyph unicode="2" d="M492 1194q-158 0 -293 -68l-76 199q195 88 412 88q221 0 362 -107.5t141 -291.5q0 -178 -132 -359.5t-476 -447.5q82 16 201 16h413v-223h-911v201q365 291 497 470t132 310q0 104 -71.5 158.5t-198.5 54.5z" />
<glyph unicode="3" d="M717 1016q0 88 -61.5 133t-170.5 45q-154 0 -276 -66l-76 199q188 86 408 86q203 0 329.5 -97t126.5 -247q0 -137 -79.5 -228t-186.5 -116v-10q131 -14 221 -94t90 -224q0 -180 -148.5 -298.5t-352.5 -118.5q-213 0 -410 98l62 211q55 -33 148 -60.5t169 -27.5 q113 0 185.5 56t72.5 161q0 182 -266 182h-86v209h63q115 0 176.5 58.5t61.5 148.5z" />
<glyph unicode="4" d="M1075 336h-160v-336h-266v336h-563v168l559 889h270v-838h160v-219zM324 555h325v510z" />
<glyph unicode="5" d="M1049 498q0 -233 -156 -375.5t-361 -142.5q-225 0 -413 98l63 209q55 -31 148.5 -58.5t171.5 -27.5q123 0 195.5 71.5t72.5 206.5q0 121 -60.5 182.5t-166.5 61.5q-113 0 -205 -92l-199 59v703h797l-18 -219h-517v-211q0 -86 -18 -138q109 113 276 113q162 0 276 -114.5 t114 -325.5z" />
<glyph unicode="6" d="M672 1204q-264 0 -318 -420q106 158 328 158q176 0 285.5 -122t109.5 -326q0 -219 -133 -366.5t-354 -147.5q-227 0 -362.5 185t-135.5 560q0 326 162 507t399 181q172 0 324 -49l-45 -207q-117 47 -260 47zM596 733q-84 0 -148.5 -44t-87.5 -118q31 -383 230 -383 q104 0 159.5 77t55.5 210q0 123 -54.5 190.5t-154.5 67.5z" />
<glyph unicode="7" d="M1047 1165l-580 -1165h-303l602 1165h-639v228h920v-228z" />
<glyph unicode="8" d="M1038 1065q0 -186 -243 -307q129 -55 202.5 -135t73.5 -220q0 -180 -132 -301.5t-359 -121.5q-217 0 -348.5 113.5t-131.5 291.5q0 213 271 315q-113 57 -176.5 138.5t-63.5 214.5q0 172 130 266t319 94q193 0 325.5 -96t132.5 -252zM797 403q0 39 -17.5 72t-37 53.5 t-67.5 45t-73 33.5l-88 34q-143 -104 -143 -238q0 -109 63.5 -168t145.5 -59q90 0 153.5 58t63.5 169zM397 1051q0 -49 19.5 -86t60.5 -66t78 -47t98 -41q117 102 117 231q0 80 -55.5 124t-134.5 44q-74 0 -128.5 -42.5t-54.5 -116.5z" />
<glyph unicode="9" d="M528 467q-188 0 -312 123t-124 342t133 350t350 131q240 0 372 -166t132 -504q0 -385 -140 -574t-398 -189q-217 0 -398 88l62 217q156 -90 309 -90q281 0 301 397q-125 -125 -287 -125zM578 1202q-104 0 -158.5 -70.5t-54.5 -191.5q0 -250 225 -250q117 0 233 88 q-4 209 -61 316.5t-184 107.5z" />
<glyph unicode=":" horiz-adv-x="462" d="M96 0v289h271v-289h-271zM96 713v291h271v-291h-271z" />
<glyph unicode=";" horiz-adv-x="462" d="M96 713v291h271v-291h-271zM96 31v258h271v-305q0 -125 -68 -186.5t-203 -76.5v140q63 14 64 139z" />
<glyph unicode="&#x3c;" horiz-adv-x="819" d="M61 784l697 297v-290l-535 -199v-8l535 -195v-280l-697 284v391z" />
<glyph unicode="=" horiz-adv-x="1001" d="M874 676h-747v196h747v-196zM874 307h-747v199h747v-199z" />
<glyph unicode="&#x3e;" horiz-adv-x="819" d="M61 1081l697 -297v-391l-697 -284v280l533 195v8l-533 199v290z" />
<glyph unicode="?" horiz-adv-x="907" d="M850 1040q0 -92 -34 -166.5t-81 -125t-94 -94.5t-81 -97t-34 -111v-38h-243v59q0 82 31.5 146.5t76.5 105.5l90 80q45 39 77 92t32 117q0 96 -59.5 142t-151.5 46q-123 0 -252 -70l-72 205q174 82 371 82q182 0 303 -101.5t121 -271.5zM272 0v285h263v-285h-263z" />
<glyph unicode="@" horiz-adv-x="2048" d="M1065 -6l14 117q-113 -131 -268 -131q-119 0 -205 108.5t-86 325.5q0 248 137.5 408.5t323.5 160.5q150 0 233 -111l43 91h179l-109 -961q27 -8 55 -8q143 0 262 144.5t119 377.5q0 303 -195.5 493.5t-518.5 190.5q-326 0 -545 -220t-219 -546q0 -313 188 -538h-170 q-166 254 -166 538q0 385 263.5 648.5t648.5 263.5t623.5 -232.5t238.5 -597.5q0 -291 -174 -473t-389 -182q-98 0 -178 40t-105 93zM946 174q72 0 150 64l61 501q-47 43 -125 43q-94 0 -166.5 -95t-72.5 -275q-1 -238 153 -238z" />
<glyph unicode="A" horiz-adv-x="1236" d="M362 311l-73 -311h-262l374 1382h447l362 -1382h-301l-71 311h-476zM647 1147h-84l-151 -619h376z" />
<glyph unicode="B" horiz-adv-x="1165" d="M1110 397q0 -186 -146.5 -301.5t-379.5 -115.5q-244 0 -449 75v1327h418q223 0 353 -94t130 -262q0 -121 -62.5 -196.5t-160.5 -106.5v-10q131 -25 214 -109t83 -207zM754 999q0 164 -211 164h-140v-360h140q106 0 158.5 46t52.5 150zM827 410q0 195 -239 194h-185v-373 q90 -33 181 -32q106 0 174.5 53.5t68.5 157.5z" />
<glyph unicode="C" horiz-adv-x="1224" d="M1163 127q-215 -147 -475 -147q-291 0 -444.5 186t-153.5 532q0 328 154.5 516.5t443.5 188.5q297 0 471 -117l-102 -217q-125 96 -340 96q-344 0 -344 -465q0 -483 340 -483q193 0 364 127z" />
<glyph unicode="D" horiz-adv-x="1355" d="M1249 705q0 -346 -154.5 -535.5t-469.5 -189.5q-238 0 -492 73v1329h461q319 0 487 -154t168 -523zM965 707q0 250 -87 354t-294 104h-183v-932q94 -29 238 -28q152 0 239 113t87 389z" />
<glyph unicode="E" horiz-adv-x="1069" d="M985 0h-850v1382h850v-227h-582v-340h445l-21 -237h-424v-355h582v-223z" />
<glyph unicode="F" horiz-adv-x="1040" d="M985 1155h-582v-379h445l-21 -237h-424v-539h-268v1382h850v-227z" />
<glyph unicode="G" horiz-adv-x="1310" d="M1212 707v-605q-272 -123 -499 -122q-303 0 -463 194.5t-160 530.5q0 324 163 511t478 187q266 0 455 -121l-113 -205q-129 88 -338 88q-182 0 -272 -121.5t-90 -334.5q0 -500 358 -500q141 0 234 43v256h-189l-16 199h452z" />
<glyph unicode="H" horiz-adv-x="1325" d="M1190 0h-272v573h-512v-573h-271v1382h271v-565h512v565h272v-1382z" />
<glyph unicode="I" horiz-adv-x="600" d="M434 0h-268v1382h268v-1382z" />
<glyph unicode="J" horiz-adv-x="878" d="M731 1382v-966q0 -207 -94 -321.5t-268 -114.5t-316 59l47 233q119 -55 222 -55q139 0 139 168v997h270z" />
<glyph unicode="K" horiz-adv-x="1167" d="M1163 0h-350l-432 594l20 -283v-311h-268v1382h268v-342l-20 -256l420 598h321l-508 -665z" />
<glyph unicode="L" horiz-adv-x="1015" d="M993 0h-850v1382h269v-1157h581v-225z" />
<glyph unicode="M" horiz-adv-x="1748" d="M1638 0h-303l-28 1167h-9q-25 -147 -67 -333l-197 -834h-395l-188 834q-43 186 -70 333h-8l-19 -1167h-245l53 1382h461q152 -696 231 -1142h6q92 444 273 1142h452z" />
<glyph unicode="N" horiz-adv-x="1359" d="M1223 0h-424l-430 1087h-9l19 -1087h-242v1382h412l436 -1110h8l-18 1110h248v-1382z" />
<glyph unicode="O" horiz-adv-x="1359" d="M1270 702q0 -147 -30 -270t-94.5 -228.5t-184 -164.5t-283.5 -59t-283 58t-183.5 162.5t-93 228.5t-28.5 273q0 145 27.5 264t92 220.5t183.5 159t285 57.5q592 -1 592 -701zM985 705q0 467 -307 466q-305 0 -305 -466q0 -111 14 -196t47 -156.5t94.5 -109.5t149.5 -38 q307 0 307 500z" />
<glyph unicode="P" horiz-adv-x="1112" d="M1073 950q0 -205 -143.5 -337t-382.5 -132h-152v-481h-268v1382h420q227 0 376.5 -110.5t149.5 -321.5zM788 940q0 104 -65.5 159.5t-181.5 55.5h-146v-463h146q117 0 182 66.5t65 181.5z" />
<glyph unicode="Q" horiz-adv-x="1355" d="M1268 702q0 -215 -105.5 -409.5t-288.5 -272.5q172 -31 435 -30v-260q-188 0 -352 69.5t-281 180.5q-164 0 -282 58t-182.5 161.5t-94 227.5t-29.5 275q0 145 27.5 264t92 220.5t183.5 159t285 57.5q592 -1 592 -701zM983 705q0 467 -307 466q-305 0 -305 -466 q0 -111 14 -196t47 -156.5t94.5 -109.5t149.5 -38q307 0 307 500z" />
<glyph unicode="R" horiz-adv-x="1155" d="M401 520v-520h-266v1382h445q217 0 355 -104t138 -311q0 -135 -70.5 -238.5t-191.5 -159.5l293 -569h-316l-227 522q-62 -2 -160 -2zM786 969q0 111 -61 158t-188 47h-136v-443h136q131 0 190 58.5t59 179.5z" />
<glyph unicode="S" horiz-adv-x="1114" d="M1030 403q0 -174 -135 -298.5t-363 -124.5q-252 0 -450 147l102 211q63 -55 161.5 -94t191.5 -39q94 0 153.5 51t59.5 131q0 68 -47.5 115t-119 71.5t-153.5 58.5t-153.5 73.5t-118.5 120.5t-47 196q0 166 127 273.5t360 107.5t412 -94l-90 -215q-127 76 -326 75 q-207 0 -207 -143q0 -68 66.5 -114t161 -78.5t188.5 -76.5t160.5 -133.5t66.5 -220.5z" />
<glyph unicode="T" horiz-adv-x="1017" d="M987 1155h-344v-1155h-278v1155h-334v227h956v-227z" />
<glyph unicode="U" horiz-adv-x="1314" d="M1178 1382v-860q0 -233 -131.5 -387.5t-389.5 -154.5t-389 152.5t-131 389.5v860h269v-841q0 -158 63 -246t188 -88t186.5 88t61.5 246v841h273z" />
<glyph unicode="V" horiz-adv-x="1239" d="M1225 1382l-404 -1382h-403l-404 1382h314l299 -1146h10l297 1146h291z" />
<glyph unicode="W" horiz-adv-x="1837" d="M1823 1382l-277 -1382h-403l-223 1057h-7l-231 -1057h-397l-271 1382h312l176 -1151h8l256 1151h342l244 -1151h12l182 1151h277z" />
<glyph unicode="X" horiz-adv-x="1224" d="M63 1382h330l242 -446l244 446h325l-440 -680l430 -702h-330l-264 455l-254 -455h-326l453 692z" />
<glyph unicode="Y" horiz-adv-x="1175" d="M1163 1382l-465 -901v-481h-270v483l-416 899h340l240 -622h10l268 622h293z" />
<glyph unicode="Z" horiz-adv-x="1193" d="M1090 1153l-674 -930h676v-223h-990v211l670 944h-668v227h986v-229z" />
<glyph unicode="[" horiz-adv-x="657" d="M616 -258h-454v1800h454v-242h-182v-1316h182v-242z" />
<glyph unicode="\" horiz-adv-x="614" d="M510 -92l-500 1552h94l500 -1552h-94z" />
<glyph unicode="]" horiz-adv-x="657" d="M496 -258h-455v242h180v1316h-180v242h455v-1800z" />
<glyph unicode="^" horiz-adv-x="1056" d="M926 1272l-86 -135l-314 161l-313 -161l-82 135l311 203l152 18z" />
<glyph unicode="_" horiz-adv-x="1372" d="M1260 0h-1147v180h1147v-180z" />
<glyph unicode="`" horiz-adv-x="1150" d="M883 1159l-527 103l35 196l518 -145z" />
<glyph unicode="a" horiz-adv-x="1034" d="M922 0h-183l-37 119q-102 -139 -292 -139q-152 0 -244 89t-92 232q0 141 99 219t280 78h211v51q0 170 -177 170q-152 0 -301 -67l-67 190q190 82 395 82q211 0 309.5 -96.5t98.5 -290.5v-637zM664 229v209h-166q-80 0 -121 -34.5t-41 -94.5q0 -147 149 -147q93 -1 179 67 z" />
<glyph unicode="b" horiz-adv-x="1122" d="M387 1063l-18 -162q37 49 111.5 86t154.5 37q184 0 294.5 -132t110.5 -388q0 -248 -126 -386t-312 -138t-291 141l-49 -121h-143v1413h268v-350zM387 748v-469q76 -102 182 -103q203 0 203 328q0 324 -199 323q-106 1 -186 -79z" />
<glyph unicode="c" horiz-adv-x="976" d="M870 258l50 -190q-164 -88 -345 -88q-229 0 -354 131t-125 391q0 246 127 384t350 138q201 0 345 -82l-70 -182q-102 61 -252 61q-227 0 -227 -319.5t229 -319.5q137 0 272 76z" />
<glyph unicode="d" horiz-adv-x="1132" d="M520 1024q162 0 250 -98q-25 86 -25 184v303h267v-1413h-217l-31 111q-35 -53 -105.5 -92t-160.5 -39q-180 0 -295 133t-115 389q0 242 122 382t310 140zM745 260v514q-82 49 -182 49q-207 0 -207 -319q0 -330 203 -330q104 0 186 86z" />
<glyph unicode="e" horiz-adv-x="1056" d="M975 430h-625q0 -121 66.5 -184.5t191.5 -63.5q131 0 295 84l51 -188q-182 -98 -379 -98q-233 0 -363 138t-130 386q0 240 118.5 380t352.5 140q213 0 317.5 -135t104.5 -342v-117zM717 588q0 240 -178 239q-94 0 -141.5 -70.5t-47.5 -168.5h367z" />
<glyph unicode="f" horiz-adv-x="702" d="M748 1427l-19 -210q-55 16 -127 16q-145 0 -145 -158v-71h223v-193h-223v-811h-269v811h-147v193h147v83q0 360 396 361q78 -1 164 -21z" />
<glyph unicode="g" horiz-adv-x="1083" d="M522 1024q51 0 233.5 -9t274.5 -11l-4 -199q-96 4 -188 35q90 -82 100 -158q0 -115 -69.5 -197t-160 -114.5t-184.5 -32.5q-51 0 -129 18q-49 -16 -49 -55q0 -29 65.5 -42t159 -23.5t187.5 -34t159.5 -89t65.5 -169.5q0 -170 -139 -267.5t-338 -97.5q-172 0 -298 73 t-126 204q0 182 266 221q-250 29 -250 170q0 63 53.5 105t137.5 48q-180 98 -180 283q0 94 40.5 165t106.5 106.5t132 53t134 17.5zM719 -76q0 63 -56.5 93t-179.5 40q-72 -6 -112.5 -45t-40.5 -102q0 -66 53 -109t135 -43q92 0 146.5 44t54.5 122zM522 526q178 0 178 158 q0 80 -53 115t-124.5 35t-126 -35t-54.5 -115q0 -158 180 -158z" />
<glyph unicode="h" horiz-adv-x="1112" d="M387 0h-268v1413h268v-371q0 -88 -27 -155q109 137 289 137q205 0 286 -100.5t81 -302.5v-621h-273v598q0 221 -178 221q-94 0 -178 -61v-758z" />
<glyph unicode="i" horiz-adv-x="591" d="M469 0h-266v811l-117 25v168h383v-1004zM195 1169v244h270v-244h-270z" />
<glyph unicode="j" horiz-adv-x="610" d="M465 1004v-1018q0 -193 -80 -276t-225 -83q-92 0 -178 29l30 215q45 -16 90 -16q47 0 73 31.5t26 82.5v844l-117 27v164h381zM195 1169v244h270v-244h-270z" />
<glyph unicode="k" horiz-adv-x="1032" d="M1032 0h-323l-291 442h-33v-442h-266v1413h266v-553l-12 -242l305 386h319l-374 -420z" />
<glyph unicode="l" horiz-adv-x="602" d="M401 -20q-147 0 -212.5 73.5t-65.5 212.5v1147h264v-1132q0 -59 36 -78t126 -19v-188q-78 -16 -148 -16z" />
<glyph unicode="m" horiz-adv-x="1724" d="M997 758q10 -51 11 -137v-621h-271v596q0 115 -43 169t-137 54q-76 0 -170 -61v-758h-268v1004h180l45 -117q113 137 297 137q236 0 313 -141q117 141 303 141q205 0 288 -100.5t83 -302.5v-621h-272v596q0 223 -189 223q-80 0 -170 -61z" />
<glyph unicode="n" horiz-adv-x="1114" d="M1016 0h-273v596q0 223 -180 223q-82 0 -176 -61v-758h-268v1004h184l41 -115q115 135 318 135q354 0 354 -403v-621z" />
<glyph unicode="o" horiz-adv-x="1101" d="M551 1024q221 0 346 -145.5t125 -374.5q0 -254 -123 -389t-348 -135q-227 0 -349 134t-122 390q0 229 124 374.5t347 145.5zM551 176q100 0 148.5 76t48.5 252q0 174 -49.5 249.5t-147.5 75.5t-146.5 -75.5t-48.5 -249.5q0 -172 47.5 -250t147.5 -78z" />
<glyph unicode="p" horiz-adv-x="1120" d="M356 96q35 -111 35 -184v-301h-272v1393h231l21 -109q37 51 110.5 90t153.5 39q184 0 293.5 -132t109.5 -388q0 -248 -126 -386t-312 -138q-150 -1 -244 116zM391 745v-469q72 -100 176 -100q203 0 203 328q0 324 -197 323q-104 0 -182 -82z" />
<glyph unicode="q" horiz-adv-x="1132" d="M745 260v504q-70 59 -178 59q-211 0 -211 -319q0 -330 203 -330q104 0 186 86zM1012 -389h-267v362l19 136q-33 -51 -106.5 -90t-161.5 -39q-178 0 -293 133t-115 389q0 242 122 382t310 140q84 0 162 -28.5t123 -71.5l47 80h160v-1393z" />
<glyph unicode="r" horiz-adv-x="731" d="M696 1008l-6 -228q-53 16 -125 17q-98 0 -180 -68v-729h-266v1004h186l29 -136h6q27 59 91.5 106.5t148.5 47.5q63 0 116 -14z" />
<glyph unicode="s" horiz-adv-x="876" d="M489 831q-137 0 -137 -92q0 -41 45 -71.5t108.5 -55t127 -57.5t108.5 -97.5t45 -154.5q0 -143 -103 -233t-292 -90q-172 0 -301 73l55 187q100 -70 238 -70q66 0 106.5 31.5t40.5 79.5q0 49 -44 82.5t-107.5 60.5t-126 59.5t-106.5 99t-44 160.5q0 121 96.5 201t286.5 80 q164 0 283 -49l-37 -195q-113 51 -242 51z" />
<glyph unicode="t" horiz-adv-x="813" d="M762 47q-115 -68 -270 -67q-141 0 -218 77.5t-77 257.5v498h-150v191h150v174l264 86v-260h268v-191h-268v-491q0 -115 106 -115q80 0 154 37z" />
<glyph unicode="u" horiz-adv-x="1099" d="M997 0h-176l-41 123q-43 -57 -124 -100t-189 -43q-365 0 -365 415v609h267v-611q0 -113 42 -161t134 -48q94 0 180 60v760h272v-1004z" />
<glyph unicode="v" horiz-adv-x="1028" d="M1014 1004l-307 -1004h-392l-301 1004h301l211 -842h9l208 842h271z" />
<glyph unicode="w" horiz-adv-x="1581" d="M1565 1004l-240 -1004h-375l-164 756l-204 -756h-357l-211 1004h295l119 -799h8l211 799h316l188 -799h6l148 799h260z" />
<glyph unicode="x" horiz-adv-x="1017" d="M655 0l-168 317l-176 -317h-288l348 528l-328 476h354l144 -287l141 287h291l-311 -506l333 -498h-340z" />
<glyph unicode="y" horiz-adv-x="1040" d="M496 -6l8 29l-187 -33l-299 1014h301l213 -842h5l215 842h266l-309 -1029q-63 -211 -171 -303t-268 -92q-76 0 -159.5 34t-122.5 67l84 182h24q96 -72 187 -72q156 0 213 203z" />
<glyph unicode="z" horiz-adv-x="968" d="M885 831l-457 -638h459v-193h-803v154l481 657h-483v193h803v-173z" />
<glyph unicode="{" horiz-adv-x="796" d="M762 -45l-64 -166q-211 82 -307 198.5t-96 286.5v197l-223 113v168l223 98v203q0 162 97 274.5t306 194.5l64 -166q-104 -49 -149.5 -122t-45.5 -194v-116l-55 -195l-150 -65q135 -66 205 -97v-299q0 -123 46.5 -195.5t148.5 -117.5z" />
<glyph unicode="|" horiz-adv-x="614" d="M362 -344l-110 -2v1841h110v-1839z" />
<glyph unicode="}" horiz-adv-x="796" d="M723 584l-225 -113v-217q0 -162 -96.5 -272.5t-303.5 -192.5l-65 166q102 45 148 118.5t46 194.5v299l156 74q8 6 26 14l25 13l-207 86v286q0 121 -45 194t-149 122l65 166q399 -158 400 -447v-225l225 -98v-168z" />
<glyph unicode="~" horiz-adv-x="1093" d="M965 647q-76 -252 -279 -198l-268 71q-100 27 -144 -61l-143 59q37 109 116 162t187 25l254 -70q100 -27 137 63z" />
<glyph unicode="&#xa1;" horiz-adv-x="579" d="M156 70l39 483h190l39 -483v-482h-268v482zM422 1001v-286h-262v286h262z" />
<glyph unicode="&#xa3;" horiz-adv-x="997" d="M764 600h-256v-59q0 -4 -12 -127l-7 -74l54 10q88 27 192 27h148v-221h-777v221h134v223h-134v166h134v96q0 178 98 269.5t311 91.5q113 0 223 -37l-32 -197q-86 20 -172 21q-88 0 -124 -37t-36 -121v-86h274z" />
<glyph unicode="&#xa5;" horiz-adv-x="1081" d="M899 322h-248v-166h-270v166h-229v170h229v106h-229v168h135l-254 436h338l176 -436h10l199 436h293l-289 -436h139v-168h-248v-106h248v-170z" />
<glyph unicode="&#xa6;" horiz-adv-x="614" d="M362 643h-110v852h110v-852zM362 -344h-110v852h110v-852z" />
<glyph unicode="&#xa7;" horiz-adv-x="1007" d="M182 379q0 70 39 127l494 -316q145 -94 145 -241q0 -145 -103.5 -241.5t-289.5 -96.5q-164 0 -301 82l53 178q111 -70 238 -70q66 0 106.5 33t40.5 92q0 45 -43 83t-105.5 70t-125 68.5t-105.5 96t-43 135.5zM827 664q0 -78 -36 -142l-484 314q-78 49 -119 108.5 t-41 157.5q0 123 94.5 201.5t288.5 78.5q164 0 275 -49l-27 -194q-109 51 -246 51q-66 0 -100.5 -25.5t-34.5 -66.5q0 -47 67.5 -92t147.5 -80t147.5 -103.5t67.5 -158.5zM780 399v-127l-540 351v125z" />
<glyph unicode="&#xa8;" horiz-adv-x="1067" d="M174 1176v268h256v-268h-256zM637 1176v268h256v-268h-256z" />
<glyph unicode="&#xa9;" horiz-adv-x="1228" d="M1114 868.5q0 -206.5 -146.5 -353t-353 -146.5t-353 146.5t-146.5 353t146.5 353t353 146.5t353 -146.5t146.5 -353zM612 1034q-68 0 -104.5 -36.5t-36.5 -131.5q0 -170 141 -170q84 0 172 54l43 -129q-115 -68 -217 -68q-135 0 -218 80t-83 235q0 154 84 233t217 79 q111 0 199 -41l-35 -135q-78 30 -162 30zM1036 868q0 176 -122.5 299t-299 123t-299 -123t-122.5 -299t122.5 -299t299 -123t299 123t122.5 299z" />
<glyph unicode="&#xaa;" horiz-adv-x="925" d="M817 614h-178l-33 119q-92 -139 -262 -139q-102 0 -170 69.5t-68 190.5q0 119 85 179.5t231 60.5h162v30q0 109 -154 109q-119 0 -244 -57l-61 161q162 76 348 76q344 0 344 -285v-514zM584 831v134h-131q-123 0 -123 -99q0 -51 32.5 -79.5t81.5 -28.5q87 -1 140 73z" />
<glyph unicode="&#xab;" horiz-adv-x="1050" d="M989 702l-190 -253l190 -273l-168 -121l-321 398l325 383zM547 719l-191 -270l191 -291l-166 -121l-320 416l322 401z" />
<glyph unicode="&#xad;" horiz-adv-x="1003" d="M860 467h-717v170h717v-170z" />
<glyph unicode="&#xae;" horiz-adv-x="1228" d="M1114 639q0 -207 -146.5 -353.5t-353 -146.5t-353 146.5t-146.5 353.5t146.5 353.5t353 146.5t353 -146.5t146.5 -353.5zM1036 639q0 176 -122.5 299t-299 123t-299 -123t-122.5 -299t122.5 -299t299 -123t299 123t122.5 299zM860 745q0 -78 -39 -129t-88 -71l127 -213 h-153l-103 194h-65v-194h-127v624h202q106 0 176 -53.5t70 -157.5zM717 745q0 102 -129 103h-49v-213h51q127 -1 127 110z" />
<glyph unicode="&#xaf;" horiz-adv-x="1099" d="M948 1227h-796v133h796v-133z" />
<glyph unicode="&#xb0;" horiz-adv-x="1007" d="M322 1014q0 -78 52 -131.5t130 -53.5t131 53.5t53 131.5t-53 130t-131 52t-130 -53t-52 -129zM115 1014q0 162 113.5 274.5t275.5 112.5t275.5 -112.5t113.5 -274.5q0 -164 -112.5 -277.5t-276.5 -113.5t-276.5 113.5t-112.5 277.5z" />
<glyph unicode="&#xb1;" horiz-adv-x="1056" d="M877 682h-240v-242h-223v242h-234v199h234v233h223v-233h240v-199zM920 111h-783v186h783v-186z" />
<glyph unicode="&#xb2;" horiz-adv-x="956" d="M842 1169q0 -242 -426 -452v-15q100 23 184 23h244v-197h-680v191q240 137 329 224t89 157q0 51 -38 78.5t-102 27.5q-133 0 -247 -69l-89 186q164 90 375 90q166 0 263.5 -69t97.5 -175z" />
<glyph unicode="&#xb3;" horiz-adv-x="956" d="M840 788q0 -125 -104.5 -202.5t-278.5 -77.5q-100 0 -192.5 27.5t-137.5 60.5l76 172q39 -27 110.5 -51.5t128.5 -24.5q76 0 119 30t43 75q0 51 -55 71.5t-174 20.5l-15 141q94 0 147.5 28.5t53.5 82.5q0 84 -133 84q-119 0 -217 -60l-70 174q121 74 308 74 q158 0 252 -63.5t94 -163.5q0 -82 -48.5 -137.5t-121.5 -75.5q90 -14 152.5 -60.5t62.5 -124.5z" />
<glyph unicode="&#xb4;" horiz-adv-x="1259" d="M909 1262l-526 -103l-27 154l518 145z" />
<glyph unicode="&#xb6;" horiz-adv-x="1347" d="M612 -328v803q-236 0 -373 123t-137 346q0 217 152 327.5t377 110.5h573v-1710h-237v1483h-330q-117 0 -184.5 -58.5t-67.5 -162.5q0 -119 61.5 -183.5t165.5 -64.5v330h222v-1344h-222z" />
<glyph unicode="&#xb7;" horiz-adv-x="448" d="M88 735v289h270v-289h-270z" />
<glyph unicode="&#xb8;" horiz-adv-x="1124" d="M449 -121l10 27q61 8 143 8q92 0 144.5 -39t52.5 -108q0 -119 -112 -172.5t-277 -55.5v152q57 0 89.5 25.5t32.5 70.5q1 65 -83 92z" />
<glyph unicode="&#xb9;" horiz-adv-x="956" d="M426 717v211q0 88 12 176q-49 -72 -125.5 -119t-158.5 -51v211q227 45 329 248h179v-676h198v-189h-698v189h264z" />
<glyph unicode="&#xba;" horiz-adv-x="987" d="M494 1413q188 0 299.5 -108.5t111.5 -292.5q0 -213 -108.5 -314.5t-302.5 -101.5q-193 0 -302.5 101.5t-109.5 314.5q0 184 111 292.5t301 108.5zM493.5 793q61.5 0 101.5 53t40 163.5t-40 160t-101 49.5q-143 0 -144 -209q0 -106 41 -161.5t102.5 -55.5z" />
<glyph unicode="&#xbb;" horiz-adv-x="1056" d="M995 453l-319 -416l-168 121l192 291l-192 270l166 135zM549 453l-322 -398l-166 121l191 273l-191 253l164 134z" />
<glyph unicode="&#xbc;" horiz-adv-x="2048" d="M1313 1460l-500 -1552h-94l500 1552h94zM379 682v211q0 86 12 176q-49 -72 -126 -119t-159 -51v211q227 45 330 248h178v-676h199v-188h-698v188h264zM1939 193h-116v-193h-234v193h-424v139l205 553l160 -51v-84l-131 -371h190v485h234v-485h116v-186z" />
<glyph unicode="&#xbd;" horiz-adv-x="2068" d="M1313 1460l-500 -1552h-94l500 1552h94zM379 682v211q0 86 12 176q-49 -72 -126 -119t-159 -51v211q227 45 330 248h178v-676h199v-188h-698v188h264zM1960 641q0 -242 -426 -453v-14q100 23 184 23h244v-197h-680v190q240 137 329 224.5t89 156.5q0 51 -38 79t-101 28 q-133 0 -248 -70l-88 187q164 90 374 90q166 0 263.5 -69t97.5 -175z" />
<glyph unicode="&#xbe;" horiz-adv-x="2957" d="M1776 1460l-500 -1552h-94l499 1552h95zM1303 752q0 -125 -104.5 -203t-278.5 -78q-100 0 -192.5 27.5t-137.5 60.5l76 172q39 -27 110.5 -51.5t128.5 -24.5q76 0 119 30t43 75q0 51 -55.5 71.5t-173.5 20.5l-15 141q94 0 147.5 29t53.5 82q0 84 -133 84q-119 0 -217 -60 l-70 175q121 74 307 73q158 0 252 -63.5t94 -163.5q0 -82 -48 -137.5t-122 -75.5q90 -14 153 -60t63 -124zM2429 193h-117v-193h-233v193h-424v139l205 553l159 -51v-84l-131 -371h191v485h233v-485h117v-186z" />
<glyph unicode="&#xbf;" horiz-adv-x="886" d="M55 -41q0 92 34 168t81 126t94 94t81 96.5t34 109.5v39h244v-60q0 -82 -32 -146t-77 -105l-90 -80q-45 -39 -77 -92.5t-32 -116.5q0 -94 59.5 -140.5t151.5 -46.5q127 0 252 70l72 -201q-182 -86 -371 -86q-182 0 -303 100.5t-121 270.5zM631 1001v-286h-260v286h260z " />
<glyph unicode="&#xc0;" horiz-adv-x="1232" d="M360 311l-73 -311h-262l374 1382h447l362 -1382h-301l-71 311h-476zM645 1147h-84l-151 -619h376zM877 1458l-543 33l-2 197l565 -76q0 -10 -10 -77t-10 -77z" />
<glyph unicode="&#xc1;" horiz-adv-x="1232" d="M360 311l-73 -311h-262l374 1382h447l362 -1382h-301l-71 311h-476zM645 1147h-84l-151 -619h376zM905 1491l-543 -33q-2 10 -10 77t-10 77l565 76z" />
<glyph unicode="&#xc2;" horiz-adv-x="1232" d="M360 311l-73 -311h-262l374 1382h447l362 -1382h-301l-71 311h-476zM645 1147h-84l-151 -619h376zM965 1579l-62 -147l-289 122l-286 -122l-62 147l314 164h69z" />
<glyph unicode="&#xc3;" horiz-adv-x="1232" d="M360 311l-73 -311h-262l374 1382h447l362 -1382h-301l-71 311h-476zM645 1147h-84l-151 -619h376zM983 1722q-4 -119 -75.5 -178t-182.5 -22l-207 67q-100 31 -139 -63l-129 59q8 111 90 169t195 22l190 -64q100 -33 137 62z" />
<glyph unicode="&#xc4;" horiz-adv-x="1232" d="M360 311l-73 -311h-262l374 1382h447l362 -1382h-301l-71 311h-476zM645 1147h-84l-151 -619h376zM256 1481v268h256v-268h-256zM719 1481v268h256v-268h-256z" />
<glyph unicode="&#xc5;" horiz-adv-x="1232" d="M360 311l-73 -311h-262l374 1382h447l362 -1382h-301l-71 311h-476zM645 1147h-84l-151 -619h376zM901 1716q0 -119 -83 -199.5t-202 -80.5q-121 0 -203.5 80.5t-82.5 199.5t83 200t203 81q117 0 201 -82t84 -199zM735 1714q0 49 -33.5 83t-85.5 34q-47 0 -80.5 -34 t-33.5 -83t33.5 -82t80.5 -33q51 0 85 33t34 82z" />
<glyph unicode="&#xc6;" horiz-adv-x="1673" d="M1589 0h-850v307h-352l-98 -307h-264l473 1382h1091v-227h-581v-340h444l-20 -237h-424v-355h581v-223zM659 1155l-204 -631h284v631h-80z" />
<glyph unicode="&#xc7;" horiz-adv-x="1224" d="M1163 127q-215 -147 -475 -147q-291 0 -444.5 186t-153.5 532q0 328 154.5 516.5t443.5 188.5q297 0 471 -117l-102 -217q-125 96 -340 96q-344 0 -344 -465q0 -483 340 -483q193 0 364 127zM532 -121l11 27q61 8 143 8q92 0 144.5 -39t52.5 -108q0 -119 -112 -172.5 t-277 -55.5v152q57 0 89.5 25.5t32.5 70.5q0 65 -84 92z" />
<glyph unicode="&#xc8;" horiz-adv-x="1069" d="M985 0h-850v1382h850v-227h-582v-340h445l-21 -237h-424v-355h582v-223zM827 1458l-542 33l-2 197l565 -76q0 -10 -10.5 -77t-10.5 -77z" />
<glyph unicode="&#xc9;" horiz-adv-x="1069" d="M985 0h-850v1382h850v-227h-582v-340h445l-21 -237h-424v-355h582v-223zM825 1491l-542 -33q0 10 -10.5 77t-10.5 77l565 76z" />
<glyph unicode="&#xca;" horiz-adv-x="1069" d="M985 0h-850v1382h850v-227h-582v-340h445l-21 -237h-424v-355h582v-223zM885 1587l-62 -147l-288 123l-287 -123l-62 147l314 164h69z" />
<glyph unicode="&#xcb;" horiz-adv-x="1069" d="M985 0h-850v1382h850v-227h-582v-340h445l-21 -237h-424v-355h582v-223zM174 1481v268h256v-268h-256zM637 1481v268h256v-268h-256z" />
<glyph unicode="&#xcc;" horiz-adv-x="600" d="M434 0h-268v1382h268v-1382zM561 1458l-543 33l-2 197l566 -76q0 -10 -10.5 -77t-10.5 -77z" />
<glyph unicode="&#xcd;" horiz-adv-x="593" d="M432 0h-268v1382h268v-1382zM578 1491l-543 -33q-2 10 -10.5 77t-10.5 77l566 76z" />
<glyph unicode="&#xce;" horiz-adv-x="600" d="M434 0h-268v1382h268v-1382zM649 1587l-61 -147l-289 123l-287 -123l-61 147l313 164h70z" />
<glyph unicode="&#xcf;" horiz-adv-x="600" d="M434 0h-268v1382h268v-1382zM-59 1481v268h256v-268h-256zM403 1481v268h256v-268h-256z" />
<glyph unicode="&#xd1;" horiz-adv-x="1372" d="M1227 0h-424l-430 1087h-8l18 -1087h-242v1382h412l436 -1110h8l-18 1110h248v-1382zM1051 1700q-4 -119 -76 -178.5t-182 -22.5l-207 68q-100 31 -140 -64l-129 60q8 111 90 169t195 21l191 -63q100 -33 137 61z" />
<glyph unicode="&#xd2;" horiz-adv-x="1359" d="M1270 702q0 -147 -30 -270t-94.5 -228.5t-184 -164.5t-283.5 -59t-283 58t-183.5 162.5t-93 228.5t-28.5 273q0 145 27.5 264t92 220.5t183.5 159t285 57.5q592 -1 592 -701zM985 705q0 467 -307 466q-305 0 -305 -466q0 -111 14 -196t47 -156.5t94.5 -109.5t149.5 -38 q307 0 307 500zM942 1458l-543 33l-2 197l566 -76q0 -10 -10.5 -77t-10.5 -77z" />
<glyph unicode="&#xd3;" horiz-adv-x="1359" d="M1270 702q0 -147 -30 -270t-94.5 -228.5t-184 -164.5t-283.5 -59t-283 58t-183.5 162.5t-93 228.5t-28.5 273q0 145 27.5 264t92 220.5t183.5 159t285 57.5q592 -1 592 -701zM985 705q0 467 -307 466q-305 0 -305 -466q0 -111 14 -196t47 -156.5t94.5 -109.5t149.5 -38 q307 0 307 500zM961 1491l-543 -33q0 10 -10.5 77t-10.5 77l566 76z" />
<glyph unicode="&#xd4;" horiz-adv-x="1359" d="M1270 702q0 -147 -30 -270t-94.5 -228.5t-184 -164.5t-283.5 -59t-283 58t-183.5 162.5t-93 228.5t-28.5 273q0 145 27.5 264t92 220.5t183.5 159t285 57.5q592 -1 592 -701zM985 705q0 467 -307 466q-305 0 -305 -466q0 -111 14 -196t47 -156.5t94.5 -109.5t149.5 -38 q307 0 307 500zM1028 1587l-61 -147l-289 123l-287 -123l-61 147l313 164h70z" />
<glyph unicode="&#xd5;" horiz-adv-x="1359" d="M1270 702q0 -147 -30 -270t-94.5 -228.5t-184 -164.5t-283.5 -59t-283 58t-183.5 162.5t-93 228.5t-28.5 273q0 145 27.5 264t92 220.5t183.5 159t285 57.5q592 -1 592 -701zM985 705q0 467 -307 466q-305 0 -305 -466q0 -111 14 -196t47 -156.5t94.5 -109.5t149.5 -38 q307 0 307 500zM1047 1722q-4 -119 -76 -178t-183 -22l-206 67q-100 31 -140 -63l-129 59q8 111 90 169t195 22l190 -64q100 -33 138 62z" />
<glyph unicode="&#xd6;" horiz-adv-x="1359" d="M1270 702q0 -147 -30 -270t-94.5 -228.5t-184 -164.5t-283.5 -59t-283 58t-183.5 162.5t-93 228.5t-28.5 273q0 145 27.5 264t92 220.5t183.5 159t285 57.5q592 -1 592 -701zM985 705q0 467 -307 466q-305 0 -305 -466q0 -111 14 -196t47 -156.5t94.5 -109.5t149.5 -38 q307 0 307 500zM319 1481v268h256v-268h-256zM782 1481v268h256v-268h-256z" />
<glyph unicode="&#xd7;" horiz-adv-x="1013" d="M852 356l-145 -147l-209 209l-209 -209l-137 135l208 209l-206 209l145 145l207 -207l219 218l135 -136l-217 -219z" />
<glyph unicode="&#xd9;" horiz-adv-x="1314" d="M1178 1382v-860q0 -233 -131.5 -387.5t-389.5 -154.5t-389 152.5t-131 389.5v860h269v-841q0 -158 63 -246t188 -88t186.5 88t61.5 246v841h273zM920 1458l-543 33l-2 197l565 -76q-2 -10 -10 -77t-10 -77z" />
<glyph unicode="&#xda;" horiz-adv-x="1314" d="M1178 1382v-860q0 -233 -131.5 -387.5t-389.5 -154.5t-389 152.5t-131 389.5v860h269v-841q0 -158 63 -246t188 -88t186.5 88t61.5 246v841h273zM938 1491l-543 -33q-2 10 -10 77t-10 77l565 76z" />
<glyph unicode="&#xdb;" horiz-adv-x="1314" d="M1178 1382v-860q0 -233 -131.5 -387.5t-389.5 -154.5t-389 152.5t-131 389.5v860h269v-841q0 -158 63 -246t188 -88t186.5 88t61.5 246v841h273zM1006 1587l-62 -147l-289 123l-286 -123l-62 147l314 164h69z" />
<glyph unicode="&#xdc;" horiz-adv-x="1314" d="M1178 1382v-860q0 -233 -131.5 -387.5t-389.5 -154.5t-389 152.5t-131 389.5v860h269v-841q0 -158 63 -246t188 -88t186.5 88t61.5 246v841h273zM299 1481v268h256v-268h-256zM762 1481v268h256v-268h-256z" />
<glyph unicode="&#xdd;" horiz-adv-x="1175" d="M1163 1382l-465 -901v-481h-270v483l-416 899h340l240 -622h10l268 622h293zM868 1491l-542 -33q-2 10 -10.5 77t-10.5 77l565 76z" />
<glyph unicode="&#xdf;" horiz-adv-x="1210" d="M1063 1102q0 -82 -38 -140.5t-83 -86t-83 -66.5t-38 -84q0 -35 26.5 -61.5t65.5 -42t86.5 -41t86 -55t65.5 -86t27 -132.5q0 -143 -106.5 -235t-291.5 -92q-113 0 -237 67v197q39 -27 111.5 -50.5t117.5 -23.5q72 0 109 33t37 86t-36 88t-87.5 59.5t-102.5 54t-87 89 t-36 147.5q0 72 39 126t86 81t86 67.5t39 90.5q0 68 -47 110.5t-133 42.5q-182 0 -182 -192v-1053h-269v811h-147v193h147v69q0 172 118 273.5t343 101.5q201 0 307.5 -96t106.5 -250z" />
<glyph unicode="&#xe0;" horiz-adv-x="1034" d="M928 0h-183l-36 119q-102 -139 -293 -139q-152 0 -244 89t-92 232q0 141 99.5 219t279.5 78h211v51q0 170 -176 170q-152 0 -301 -67l-68 190q190 82 395 82q211 0 309.5 -96.5t98.5 -290.5v-637zM670 229v209h-166q-80 0 -121 -34.5t-41 -94.5q0 -147 150 -147 q92 -1 178 67zM766 1159l-526 103l34 196l519 -145z" />
<glyph unicode="&#xe1;" horiz-adv-x="1034" d="M928 0h-183l-36 119q-102 -139 -293 -139q-152 0 -244 89t-92 232q0 141 99.5 219t279.5 78h211v51q0 170 -176 170q-152 0 -301 -67l-68 190q190 82 395 82q211 0 309.5 -96.5t98.5 -290.5v-637zM670 229v209h-166q-80 0 -121 -34.5t-41 -94.5q0 -147 150 -147 q92 -1 178 67zM795 1262l-527 -103l-26 154l518 145z" />
<glyph unicode="&#xe2;" horiz-adv-x="1034" d="M928 0h-183l-36 119q-102 -139 -293 -139q-152 0 -244 89t-92 232q0 141 99.5 219t279.5 78h211v51q0 170 -176 170q-152 0 -301 -67l-68 190q190 82 395 82q211 0 309.5 -96.5t98.5 -290.5v-637zM670 229v209h-166q-80 0 -121 -34.5t-41 -94.5q0 -147 150 -147 q92 -1 178 67zM866 1292l-61 -147l-289 123l-287 -123l-61 147l313 164h70z" />
<glyph unicode="&#xe3;" horiz-adv-x="1034" d="M928 0h-183l-36 119q-102 -139 -293 -139q-152 0 -244 89t-92 232q0 141 99.5 219t279.5 78h211v51q0 170 -176 170q-152 0 -301 -67l-68 190q190 82 395 82q211 0 309.5 -96.5t98.5 -290.5v-637zM670 229v209h-166q-80 0 -121 -34.5t-41 -94.5q0 -147 150 -147 q92 -1 178 67zM885 1366q-4 -119 -76 -178.5t-182 -22.5l-207 68q-100 31 -139 -64l-129 60q8 111 90 169t194 21l191 -63q100 -33 137 61z" />
<glyph unicode="&#xe4;" horiz-adv-x="1034" d="M928 0h-183l-36 119q-102 -139 -293 -139q-152 0 -244 89t-92 232q0 141 99.5 219t279.5 78h211v51q0 170 -176 170q-152 0 -301 -67l-68 190q190 82 395 82q211 0 309.5 -96.5t98.5 -290.5v-637zM670 229v209h-166q-80 0 -121 -34.5t-41 -94.5q0 -147 150 -147 q92 -1 178 67zM158 1176v268h256v-268h-256zM621 1176v268h256v-268h-256z" />
<glyph unicode="&#xe5;" horiz-adv-x="1034" d="M928 0h-183l-36 119q-102 -139 -293 -139q-152 0 -244 89t-92 232q0 141 99.5 219t279.5 78h211v51q0 170 -176 170q-152 0 -301 -67l-68 190q190 82 395 82q211 0 309.5 -96.5t98.5 -290.5v-637zM670 229v209h-166q-80 0 -121 -34.5t-41 -94.5q0 -147 150 -147 q92 -1 178 67zM805 1348q0 -119 -83 -200t-202 -81q-121 0 -204 81t-83 199.5t83 199.5t204 81q117 0 201 -81.5t84 -198.5zM639 1345.5q0 49.5 -34 83t-85 33.5q-47 0 -80.5 -33.5t-33.5 -83t33.5 -82t80.5 -32.5q51 0 85 32.5t34 82z" />
<glyph unicode="&#xe6;" horiz-adv-x="1634" d="M778 160h-8q-125 -180 -354 -180q-154 0 -246 88t-92 233q0 139 100.5 214t280.5 75h211v59q0 170 -170 170q-158 0 -314 -69l-69 190q186 84 399 84q207 0 307 -123q119 123 305 123q213 0 318.5 -135t105.5 -342v-115h-622q0 -119 66.5 -184.5t191.5 -65.5 q117 0 293 86l51 -188q-186 -100 -377 -100q-262 0 -377 180zM670 242v192h-166q-164 0 -164 -125q0 -147 152 -147q102 0 178 80zM1296 590q0 238 -180 237q-92 0 -139 -69.5t-47 -167.5h366z" />
<glyph unicode="&#xe7;" horiz-adv-x="978" d="M870 258l50 -190q-164 -88 -345 -88q-229 0 -354 131t-125 391q0 246 127 384t350 138q201 0 345 -82l-70 -182q-102 61 -252 61q-227 0 -227 -319.5t229 -319.5q137 0 272 76zM434 -121l10 27q61 8 144 8q92 0 144 -39t52 -108q0 -119 -111.5 -172.5t-277.5 -55.5v152 q57 0 90 25.5t33 70.5q0 65 -84 92z" />
<glyph unicode="&#xe8;" horiz-adv-x="1056" d="M975 430h-625q0 -121 66.5 -184.5t191.5 -63.5q131 0 295 84l51 -188q-182 -98 -379 -98q-233 0 -363 138t-130 386q0 240 118.5 380t352.5 140q213 0 317.5 -135t104.5 -342v-117zM717 588q0 240 -178 239q-94 0 -141.5 -70.5t-47.5 -168.5h367zM784 1159l-526 103 l35 196l518 -145z" />
<glyph unicode="&#xe9;" horiz-adv-x="1056" d="M975 430h-625q0 -121 66.5 -184.5t191.5 -63.5q131 0 295 84l51 -188q-182 -98 -379 -98q-233 0 -363 138t-130 386q0 240 118.5 380t352.5 140q213 0 317.5 -135t104.5 -342v-117zM717 588q0 240 -178 239q-94 0 -141.5 -70.5t-47.5 -168.5h367zM809 1262l-526 -103 l-27 154l518 145z" />
<glyph unicode="&#xea;" horiz-adv-x="1056" d="M975 430h-625q0 -121 66.5 -184.5t191.5 -63.5q131 0 295 84l51 -188q-182 -98 -379 -98q-233 0 -363 138t-130 386q0 240 118.5 380t352.5 140q213 0 317.5 -135t104.5 -342v-117zM717 588q0 240 -178 239q-94 0 -141.5 -70.5t-47.5 -168.5h367zM891 1292l-62 -147 l-288 123l-287 -123l-61 147l313 164h69z" />
<glyph unicode="&#xeb;" horiz-adv-x="1056" d="M975 430h-625q0 -121 66.5 -184.5t191.5 -63.5q131 0 295 84l51 -188q-182 -98 -379 -98q-233 0 -363 138t-130 386q0 240 118.5 380t352.5 140q213 0 317.5 -135t104.5 -342v-117zM717 588q0 240 -178 239q-94 0 -141.5 -70.5t-47.5 -168.5h367zM174 1176v268h256v-268 h-256zM637 1176v268h256v-268h-256z" />
<glyph unicode="&#xec;" horiz-adv-x="595" d="M547 1159l-527 103l35 196l518 -145zM469 0h-266v811l-117 25v168h383v-1004z" />
<glyph unicode="&#xed;" horiz-adv-x="595" d="M584 1262l-527 -103l-26 154l518 145zM469 0h-266v811l-117 25v168h383v-1004z" />
<glyph unicode="&#xee;" horiz-adv-x="595" d="M469 0h-266v811l-117 25v168h383v-1004zM647 1292l-61 -147l-289 123l-287 -123l-61 147l313 164h70z" />
<glyph unicode="&#xef;" horiz-adv-x="595" d="M-61 1176v268h256v-268h-256zM401 1176v268h256v-268h-256zM469 0h-266v811l-117 25v168h383v-1004z" />
<glyph unicode="&#xf1;" horiz-adv-x="1114" d="M1016 0h-273v596q0 223 -180 223q-82 0 -176 -61v-758h-268v1004h184l41 -115q115 135 318 135q354 0 354 -403v-621zM932 1366q-4 -119 -76 -178.5t-182 -22.5l-207 68q-100 31 -139 -64l-129 60q8 111 90 169t194 21l191 -63q100 -33 137 61z" />
<glyph unicode="&#xf2;" horiz-adv-x="1101" d="M551 1024q221 0 346 -145.5t125 -374.5q0 -254 -123 -389t-348 -135q-227 0 -349 134t-122 390q0 229 124 374.5t347 145.5zM551 176q100 0 148.5 76t48.5 252q0 174 -49.5 249.5t-147.5 75.5t-146.5 -75.5t-48.5 -249.5q0 -172 47.5 -250t147.5 -78zM850 1159l-526 103 l34 196l519 -145z" />
<glyph unicode="&#xf3;" horiz-adv-x="1101" d="M551 1024q221 0 346 -145.5t125 -374.5q0 -254 -123 -389t-348 -135q-227 0 -349 134t-122 390q0 229 124 374.5t347 145.5zM551 176q100 0 148.5 76t48.5 252q0 174 -49.5 249.5t-147.5 75.5t-146.5 -75.5t-48.5 -249.5q0 -172 47.5 -250t147.5 -78zM829 1262l-526 -103 l-27 154l519 145z" />
<glyph unicode="&#xf4;" horiz-adv-x="1101" d="M551 1024q221 0 346 -145.5t125 -374.5q0 -254 -123 -389t-348 -135q-227 0 -349 134t-122 390q0 229 124 374.5t347 145.5zM551 176q100 0 148.5 76t48.5 252q0 174 -49.5 249.5t-147.5 75.5t-146.5 -75.5t-48.5 -249.5q0 -172 47.5 -250t147.5 -78zM901 1292l-61 -147 l-289 123l-287 -123l-61 147l313 164h70z" />
<glyph unicode="&#xf5;" horiz-adv-x="1101" d="M551 1024q221 0 346 -145.5t125 -374.5q0 -254 -123 -389t-348 -135q-227 0 -349 134t-122 390q0 229 124 374.5t347 145.5zM551 176q100 0 148.5 76t48.5 252q0 174 -49.5 249.5t-147.5 75.5t-146.5 -75.5t-48.5 -249.5q0 -172 47.5 -250t147.5 -78zM920 1366 q-4 -119 -76 -178.5t-182 -22.5l-207 68q-100 31 -140 -64l-129 60q8 111 90 169t195 21l191 -63q100 -33 137 61z" />
<glyph unicode="&#xf6;" horiz-adv-x="1101" d="M551 1024q221 0 346 -145.5t125 -374.5q0 -254 -123 -389t-348 -135q-227 0 -349 134t-122 390q0 229 124 374.5t347 145.5zM551 176q100 0 148.5 76t48.5 252q0 174 -49.5 249.5t-147.5 75.5t-146.5 -75.5t-48.5 -249.5q0 -172 47.5 -250t147.5 -78zM193 1176v268h256 v-268h-256zM655 1176v268h256v-268h-256z" />
<glyph unicode="&#xf7;" horiz-adv-x="972" d="M362 37v274h246v-274h-246zM362 805v274h246v-274h-246zM846 469h-719v186h719v-186z" />
<glyph unicode="&#xf9;" horiz-adv-x="1099" d="M997 0h-176l-41 123q-43 -57 -124 -100t-189 -43q-365 0 -365 415v609h267v-611q0 -113 42 -161t134 -48q94 0 180 60v760h272v-1004zM799 1159l-527 103l35 196l518 -145z" />
<glyph unicode="&#xfa;" horiz-adv-x="1099" d="M997 0h-176l-41 123q-43 -57 -124 -100t-189 -43q-365 0 -365 415v609h267v-611q0 -113 42 -161t134 -48q94 0 180 60v760h272v-1004zM827 1262l-526 -103l-27 154l519 145z" />
<glyph unicode="&#xfb;" horiz-adv-x="1099" d="M997 0h-176l-41 123q-43 -57 -124 -100t-189 -43q-365 0 -365 415v609h267v-611q0 -113 42 -161t134 -48q94 0 180 60v760h272v-1004zM899 1292l-61 -147l-289 123l-287 -123l-61 147l313 164h70z" />
<glyph unicode="&#xfc;" horiz-adv-x="1099" d="M997 0h-176l-41 123q-43 -57 -124 -100t-189 -43q-365 0 -365 415v609h267v-611q0 -113 42 -161t134 -48q94 0 180 60v760h272v-1004zM197 1176v268h256v-268h-256zM659 1176v268h256v-268h-256z" />
<glyph unicode="&#xfd;" horiz-adv-x="1040" d="M496 -6l8 29l-187 -33l-299 1014h301l213 -842h5l215 842h266l-309 -1029q-63 -211 -171 -303t-268 -92q-76 0 -159.5 34t-122.5 67l84 182h24q96 -72 187 -72q156 0 213 203zM780 1262l-526 -103l-27 154l518 145z" />
<glyph unicode="&#xff;" horiz-adv-x="1040" d="M496 -6l8 29l-187 -33l-299 1014h301l213 -842h5l215 842h266l-309 -1029q-63 -211 -171 -303t-268 -92q-76 0 -159.5 34t-122.5 67l84 182h24q96 -72 187 -72q156 0 213 203zM143 1176v268h256v-268h-256zM606 1176v268h256v-268h-256z" />
<glyph unicode="&#x152;" horiz-adv-x="1918" d="M1833 0h-850l6 98q-125 -119 -313 -118q-164 0 -283 58t-182.5 162.5t-92 227.5t-28.5 274q0 145 27.5 264t91 220.5t182.5 159t285 57.5q182 0 313 -113l-6 92h850v-227h-582v-340h445l-21 -237h-424v-355h582v-223zM979 705q0 467 -303 466.5t-303 -466.5 q0 -150 23.5 -254.5t93 -175t186.5 -70.5q303 0 303 500z" />
<glyph unicode="&#x153;" horiz-adv-x="1724" d="M1642 430h-622q0 -119 66.5 -183.5t191.5 -64.5q117 0 293 86l51 -188q-186 -100 -377 -100q-217 0 -354 153q-129 -154 -340 -153q-227 0 -349 134t-122 390q0 229 124 374.5t347 145.5q193 0 328 -158q133 158 340 158q213 0 318 -135t105 -342v-117zM551 176 q100 0 148.5 76t48.5 252q0 174 -49.5 249.5t-147.5 75.5t-146.5 -75.5t-48.5 -249.5q0 -172 47.5 -250t147.5 -78zM1386 588q0 240 -178 239q-94 0 -141 -69.5t-47 -169.5h366z" />
<glyph unicode="&#x178;" horiz-adv-x="1175" d="M1163 1382l-465 -901v-481h-270v483l-416 899h340l240 -622h10l268 622h293zM227 1481v268h256v-268h-256zM690 1481v268h256v-268h-256z" />
<glyph unicode="&#x2c6;" horiz-adv-x="1112" d="M905 1292l-61 -147l-289 123l-287 -123l-61 147l313 164h70z" />
<glyph unicode="&#x2dc;" horiz-adv-x="1198" d="M965 1366q-4 -119 -76 -178.5t-182 -22.5l-207 68q-100 31 -140 -64l-129 60q8 111 90 169t195 21l191 -63q100 -33 137 61z" />
<glyph unicode="&#x2000;" horiz-adv-x="997" />
<glyph unicode="&#x2001;" horiz-adv-x="1996" />
<glyph unicode="&#x2002;" horiz-adv-x="997" />
<glyph unicode="&#x2003;" horiz-adv-x="1996" />
<glyph unicode="&#x2004;" horiz-adv-x="665" />
<glyph unicode="&#x2005;" horiz-adv-x="497" />
<glyph unicode="&#x2006;" horiz-adv-x="331" />
<glyph unicode="&#x2007;" horiz-adv-x="331" />
<glyph unicode="&#x2008;" horiz-adv-x="247" />
<glyph unicode="&#x2009;" horiz-adv-x="399" />
<glyph unicode="&#x200a;" horiz-adv-x="110" />
<glyph unicode="&#x2010;" horiz-adv-x="1003" d="M860 467h-717v170h717v-170z" />
<glyph unicode="&#x2011;" horiz-adv-x="1003" d="M860 467h-717v170h717v-170z" />
<glyph unicode="&#x2012;" horiz-adv-x="1003" d="M860 467h-717v170h717v-170z" />
<glyph unicode="&#x2013;" horiz-adv-x="1009" d="M864 479h-719v187h719v-187z" />
<glyph unicode="&#x2014;" horiz-adv-x="1476" d="M1337 479h-1200v187h1200v-187z" />
<glyph unicode="&#x2018;" horiz-adv-x="530" d="M338 805h-272q16 338 196 608l203 -49q-125 -256 -127 -559z" />
<glyph unicode="&#x2019;" horiz-adv-x="530" d="M193 1413h270q-12 -330 -195 -608l-202 49q121 246 127 559z" />
<glyph unicode="&#x201a;" horiz-adv-x="530" d="M193 211h270q-12 -328 -195 -606l-202 49q121 250 127 557z" />
<glyph unicode="&#x201c;" horiz-adv-x="878" d="M700 805h-272q10 299 172 590l201 -49q-97 -209 -101 -541zM348 805h-272q12 295 217 608l203 -49q-146 -283 -148 -559z" />
<glyph unicode="&#x201d;" horiz-adv-x="878" d="M176 1413h273q-10 -301 -173 -590l-200 49q98 209 100 541zM528 1413h273q-12 -301 -217 -608l-203 49q145 278 147 559z" />
<glyph unicode="&#x201e;" horiz-adv-x="878" d="M176 233h273q-10 -297 -173 -585l-200 47q98 208 100 538zM528 233h273q-12 -297 -217 -604l-203 47q145 283 147 557z" />
<glyph unicode="&#x2022;" horiz-adv-x="700" d="M485 377h-272q-53 276 0 510h272q57 -227 0 -510z" />
<glyph unicode="&#x2026;" horiz-adv-x="1392" d="M96 0v289h271v-289h-271zM561 0v289h270v-289h-270zM1026 0v289h268v-289h-268z" />
<glyph unicode="&#x202f;" horiz-adv-x="399" />
<glyph unicode="&#x2039;" horiz-adv-x="606" d="M383 37l-322 414l322 399l166 -123l-193 -281l193 -299z" />
<glyph unicode="&#x203a;" horiz-adv-x="606" d="M545 451l-322 -414l-166 110l193 299l-193 281l166 123z" />
<glyph unicode="&#x205f;" horiz-adv-x="497" />
<glyph unicode="&#x20ac;" horiz-adv-x="1034" d="M907 424l49 -191q-156 -86 -327 -86q-369 0 -443 367h-125v133h109v86h-109v133h127q39 170 154 263.5t287 93.5q186 0 323 -68q-33 -127 -51 -190q-106 57 -246 57q-152 0 -194 -156h233l-16 -133h-234v-86h222l-7 -66q-4 -44 -8 -67h-190q18 -90 65 -127t129 -37 q127 0 252 74z" />
<glyph unicode="&#x2122;" horiz-adv-x="1695" d="M1126 537l97 -426l-375 223l-375 -223l94 426l-325 286l432 41l174 400l172 -400l434 -41z" />
<glyph unicode="&#xe000;" horiz-adv-x="1004" d="M0 1005h1005v-1005h-1005v1005z" />
<glyph unicode="&#xfb01;" horiz-adv-x="1191" d="M1073 0h-266v811h-350v-811h-269v811h-147v193h147v83q0 176 99.5 268.5t292.5 92.5q72 0 161 -21v-210q-55 16 -143 16q-141 0 -141 -158v-71h616v-1004zM799 1169v244h270v-244h-270z" />
<glyph unicode="&#xfb02;" horiz-adv-x="1308" d="M748 1427l-19 -210q-55 16 -127 16q-145 0 -145 -158v-71h223v-193h-223v-811h-269v811h-147v193h147v83q0 360 396 361q78 -1 164 -21zM1108 -20q-147 0 -213 73.5t-66 212.5v1147h265v-1132q0 -59 35.5 -78t125.5 -19v-188q-77 -16 -147 -16z" />
<glyph unicode="&#xfb03;" horiz-adv-x="1804" d="M1686 0h-267v811h-350v-811h-268v811h-344v-811h-269v811h-147v193h147v83q0 360 396 361q78 0 164 -21l-19 -210q-55 16 -127 16q-66 0 -105.5 -42t-39.5 -116v-71h344v83q0 176 99 268.5t292 92.5q76 0 162 -21v-210q-53 16 -144 16q-141 0 -141 -158v-71h617v-1004z M1411 1169v244h270v-244h-270z" />
<glyph unicode="&#xfb04;" horiz-adv-x="1921" d="M1360 1427l-19 -210q-53 16 -127 16q-68 0 -106.5 -41t-38.5 -117v-71h223v-193h-223v-811h-268v811h-344v-811h-269v811h-147v193h147v83q0 360 396 361q78 0 164 -21l-19 -210q-55 16 -127 16q-68 0 -106.5 -41t-38.5 -117v-71h344v83q0 360 395 361q78 -1 164 -21z M1722 -20q-281 0 -280 286v1147h266v-1132q0 -59 36 -78t124 -19v-188q-76 -16 -146 -16z" />
<glyph horiz-adv-x="450" />
</font>
</defs>
</svg>
