<?xml version="1.0" standalone="no"?>
<!DOCTYPE svg PUBLIC "-//W3C//DTD SVG 1.1//EN" "http://www.w3.org/Graphics/SVG/1.1/DTD/svg11.dtd" >
<svg xmlns="http://www.w3.org/2000/svg">
<metadata></metadata>
<defs>
<font id="gobclregular" horiz-adv-x="993" >
<font-face units-per-em="2048" ascent="1536" descent="-512" />
<missing-glyph horiz-adv-x="450" />
<glyph horiz-adv-x="2048" />
<glyph horiz-adv-x="2048" />
<glyph unicode="&#xd;" horiz-adv-x="2048" />
<glyph unicode=" "  horiz-adv-x="450" />
<glyph unicode="&#x09;" horiz-adv-x="450" />
<glyph unicode="&#xa0;" horiz-adv-x="450" />
<glyph unicode="!" horiz-adv-x="542" d="M193 885v528h157v-528l-26 -477h-105zM195 0v227h151v-227h-151z" />
<glyph unicode="&#x22;" horiz-adv-x="616" d="M117 1413h139l-16 -612h-107zM360 1413h140l-17 -612h-106z" />
<glyph unicode="#" horiz-adv-x="1099" d="M184 428v129h144l39 193h-183v127h205l62 319h118l-63 -319h176l61 319h117l-61 -319h116v-127h-139l-39 -193h178v-129h-200l-58 -293h-116l55 293h-174l-55 -293h-119l57 293h-121zM444 557h177l36 193h-174z" />
<glyph unicode="$" horiz-adv-x="972" d="M160 254l45 115q40 -33 112 -58.5t142 -25.5q87 0 145 47t58 125q0 43 -21 76.5t-55.5 54t-78.5 40.5t-90 36t-90 41.5t-78.5 55t-55.5 77.5t-21 110q0 95 64 166.5t186 89.5l-4 207h149l-6 -203q148 -10 248 -63l-37 -115q-122 64 -266 64q-90 0 -140.5 -42t-50.5 -108 q0 -43 27.5 -75t71 -53.5t96.5 -41t106 -44.5t96.5 -56.5t71 -84.5t27.5 -122q0 -104 -65.5 -183.5t-182.5 -105.5l4 -198h-147l2 188q-74 4 -143 28.5t-119 57.5z" />
<glyph unicode="%" horiz-adv-x="1824" d="M102 987q0 215 84 320.5t226 105.5q321 0 321 -426q0 -222 -89.5 -327t-231.5 -105q-136 0 -223 105t-87 327zM250 987q0 -172 42.5 -245.5t119.5 -73.5q85 0 129.5 73t44.5 246q0 176 -42 246t-132 70q-82 0 -122 -71t-40 -245zM608 -92l500 1552h94l-500 -1552h-94z M1092 410q0 215 83.5 321.5t225.5 106.5q321 0 321 -428q0 -221 -89.5 -325.5t-231.5 -104.5q-65 0 -119 24t-97.5 73t-68 134t-24.5 199zM1239 410q0 -172 42.5 -246t119.5 -74q85 0 129.5 73.5t44.5 246.5q0 178 -42 247.5t-132 69.5q-82 0 -122 -71.5t-40 -245.5z" />
<glyph unicode="&#x26;" horiz-adv-x="1220" d="M92 395q0 75 22 137.5t64 110.5t86 82t105 70l-15 18q-123 158 -123 305q0 92 48 161t119.5 101.5t152.5 32.5q139 0 222 -75t83 -214q0 -45 -10 -83.5t-33 -72t-45.5 -58.5t-61.5 -53t-65.5 -45t-73.5 -44l324 -426q77 141 119 328l133 -33q-50 -245 -164 -410l172 -227 h-178l-94 121q-66 -66 -163.5 -103.5t-209.5 -37.5q-72 0 -142 24.5t-132.5 72.5t-101 130.5t-38.5 187.5zM252 397q0 -72 25 -129.5t66 -92t90.5 -53t101.5 -18.5q161 0 264 121l-353 465q-60 -41 -98 -76t-67 -92t-29 -125zM385 1112q0 -107 98 -235l13 -15q53 30 84.5 51 t66 52.5t50.5 68t16 80.5q0 86 -44.5 131t-111.5 45q-68 0 -120 -46.5t-52 -131.5z" />
<glyph unicode="'" horiz-adv-x="374" d="M117 1413h139l-16 -612h-107z" />
<glyph unicode="(" horiz-adv-x="552" d="M109 698q0 232 92 442.5t225 325.5l78 -75q-99 -99 -169.5 -295.5t-70.5 -397.5q0 -204 71 -399.5t171 -294.5l-80 -76q-133 115 -225 325.5t-92 444.5z" />
<glyph unicode=")" horiz-adv-x="552" d="M47 4q100 99 171 294.5t71 399.5q0 201 -70.5 397.5t-169.5 295.5l78 75q133 -115 225 -325.5t92 -442.5q0 -234 -92 -444.5t-225 -325.5z" />
<glyph unicode="*" horiz-adv-x="956" d="M109 1085l38 121l267 -86v277h127v-277l268 86l37 -121l-264 -86l163 -225l-104 -74l-164 224l-164 -226l-102 76l164 223z" />
<glyph unicode="+" horiz-adv-x="946" d="M133 543v114h275v291h120v-291h285v-114h-285v-305h-120v305h-275z" />
<glyph unicode="," horiz-adv-x="368" d="M106 10v219h154v-233q0 -127 -36 -178t-118 -64v60q29 10 39.5 49t10.5 137z" />
<glyph unicode="-" horiz-adv-x="946" d="M143 508v108h660v-108h-660z" />
<glyph unicode="." horiz-adv-x="362" d="M104 0v229h154v-229h-154z" />
<glyph unicode="/" horiz-adv-x="614" d="M10 -92l500 1552h94l-500 -1552h-94z" />
<glyph unicode="0" horiz-adv-x="1099" d="M98 700q0 161 24 287.5t76 224t139.5 149.5t207.5 52q456 0 456 -713q0 -720 -456 -720q-124 0 -212.5 51.5t-139 150t-73 225t-22.5 293.5zM258 700q0 -136 13.5 -238.5t45 -184t89 -124t139.5 -42.5q67 0 118.5 28.5t85 79t54.5 126t30 162t9 193.5q0 106 -9.5 192.5 t-31 160.5t-55.5 123.5t-84.5 77.5t-116.5 28q-80 0 -137 -41.5t-89 -121.5t-46.5 -182t-14.5 -237z" />
<glyph unicode="1" horiz-adv-x="1099" d="M170 1126q110 22 222 100t173 167h125v-1272h252v-121h-682v121h275v895q0 35 2.5 82.5t4.5 77.5l3 30q-47 -66 -149.5 -126.5t-202.5 -82.5z" />
<glyph unicode="2" horiz-adv-x="1099" d="M125 1329q182 84 389 84q88 0 167 -24t143.5 -70.5t102.5 -124t38 -176.5q0 -116 -53 -225.5t-195 -267.5t-410 -400q104 8 174 8h494v-133h-842v125q168 151 288.5 272t194 208.5t116 161.5t57 126.5t14.5 107.5q0 75 -26 131t-71 87.5t-99 47t-118 15.5 q-158 0 -315 -72z" />
<glyph unicode="3" horiz-adv-x="1099" d="M127 78l39 125q63 -34 156 -63t176 -29q138 0 226.5 78.5t88.5 207.5q0 127 -92.5 186.5t-247.5 59.5h-74v129h62q136 0 215.5 78.5t79.5 193.5q0 116 -77.5 176t-207.5 60q-159 0 -291 -70l-51 119q185 84 373 84q182 0 301 -97t119 -251q0 -131 -86 -226.5t-183 -117.5 v-6q55 -6 109 -28t102.5 -60t78.5 -98.5t30 -135.5q0 -170 -134 -291.5t-333 -121.5q-192 0 -379 98z" />
<glyph unicode="4" horiz-adv-x="1099" d="M94 381v119l570 893h159v-875h170v-137h-170v-381h-153v381h-576zM238 518h432v672z" />
<glyph unicode="5" horiz-adv-x="1099" d="M123 76l41 127q64 -35 154 -63.5t174 -28.5q145 0 232 97.5t87 262.5q0 155 -78 232t-217 77q-72 0 -141.5 -30.5t-106.5 -69.5l-125 43v670h723l-14 -133h-555v-357q0 -20 -3 -46t-6 -42l-3 -16q118 114 288 114q81 0 152.5 -27.5t127.5 -80t89 -137.5t33 -191 q0 -140 -63 -254.5t-172 -178.5t-240 -64q-194 0 -377 96z" />
<glyph unicode="6" horiz-adv-x="1099" d="M104 700q0 177 42 316.5t114 224.5t162.5 128.5t193.5 43.5q159 0 289 -49l-26 -125q-126 47 -263 47q-78 0 -140 -30t-104 -82t-69.5 -125t-39 -157t-9.5 -179q52 92 145 144t215 52q168 0 273.5 -120t105.5 -314q0 -137 -53.5 -249.5t-154.5 -179t-232 -66.5 q-214 0 -331.5 189t-117.5 531zM262 555q18 -213 92 -331t199 -118q93 0 157 50t92.5 129.5t28.5 181.5q0 145 -67.5 228t-192.5 83q-122 0 -205.5 -65t-103.5 -158z" />
<glyph unicode="7" horiz-adv-x="1099" d="M129 1255v138h844v-138l-617 -1255h-168l621 1255h-680z" />
<glyph unicode="8" horiz-adv-x="1099" d="M117 360q0 246 289 357q-58 28 -100 56.5t-80.5 70t-58.5 99.5t-20 130q0 154 116 247t282 93q179 0 293 -93.5t114 -244.5q0 -62 -21.5 -115.5t-61 -94.5t-84 -71.5t-101.5 -58.5q54 -23 92 -43.5t80 -52.5t67.5 -67.5t42.5 -86.5t17 -112q0 -165 -122.5 -279 t-315.5 -114q-185 0 -306.5 109.5t-121.5 270.5zM272 367q0 -83 42.5 -147t103.5 -95t127 -31q72 0 134.5 30t104 95t41.5 154q0 48 -18.5 89t-39 66t-70.5 54t-76 40.5t-92 38.5q-21 9 -31 13q-115 -60 -170.5 -131t-55.5 -176zM303 1071q0 -50 17 -92t41 -70.5t67.5 -55.5 t77.5 -43t90 -38q98 60 148.5 129.5t50.5 165.5q0 109 -70 169t-180 60q-105 0 -173.5 -60.5t-68.5 -164.5z" />
<glyph unicode="9" horiz-adv-x="1099" d="M104 946q0 214 116.5 340.5t311.5 126.5q219 0 342 -166t123 -518q0 -386 -133 -567.5t-370 -181.5q-164 0 -334 79l33 127q154 -77 296 -77q345 0 357 555q-156 -164 -344 -164q-170 0 -284 123.5t-114 322.5zM266 944q0 -147 72.5 -229t200.5 -82q156 0 309 149 q-14 502 -318 502q-131 0 -197.5 -95t-66.5 -245z" />
<glyph unicode=":" horiz-adv-x="368" d="M109 0v229h151v-229h-151zM109 772v232h151v-232h-151z" />
<glyph unicode=";" horiz-adv-x="368" d="M106 10v219h154v-233q0 -127 -36 -178t-118 -64v60q29 10 39.5 50t10.5 136zM109 772v232h151v-232h-151z" />
<glyph unicode="&#x3c;" horiz-adv-x="819" d="M61 467v231l697 310v-168l-600 -252v-6l600 -238v-166z" />
<glyph unicode="=" horiz-adv-x="937" d="M137 362v130h664v-130h-664zM137 674v127h664v-127h-664z" />
<glyph unicode="&#x3e;" horiz-adv-x="819" d="M61 178v166l598 238v6l-598 252v168l697 -310v-231z" />
<glyph unicode="?" horiz-adv-x="866" d="M63 1333q182 80 332 80q175 0 288.5 -97.5t113.5 -275.5q0 -69 -19 -127.5t-49.5 -100.5t-67.5 -79t-74 -70.5t-67.5 -67.5t-49.5 -77t-19 -92v-55h-144v84q0 53 18 100t47.5 82.5t64.5 68.5t70 66.5t64.5 69.5t47.5 83.5t18 102.5q0 125 -74 189.5t-188 64.5 q-116 0 -269 -72zM301 0v227h152v-227h-152z" />
<glyph unicode="@" horiz-adv-x="2048" d="M170 459q0 191 68 357t185.5 282t280 182t345.5 66q243 0 431.5 -104t292 -289.5t103.5 -420.5q0 -116 -30 -218.5t-81 -176.5t-116.5 -128t-137.5 -80.5t-143 -26.5t-134.5 24t-90.5 58l18 147q-120 -151 -293 -151q-56 0 -107.5 23.5t-96.5 73t-72 138.5t-27 207 q0 123 38 229t101 178t147 113t175 41q74 0 138.5 -33.5t103.5 -85.5l35 99h102l-113 -957q37 -16 94 -16q70 0 138 35.5t125 101t92 171.5t35 234q0 212 -90 375t-255.5 252.5t-381.5 89.5q-223 0 -400.5 -100t-277 -280.5t-99.5 -409.5q0 -320 185 -553h-117 q-170 255 -170 553zM719 420q0 -169 60.5 -246.5t150.5 -77.5q115 0 244 129l65 547q-34 41 -89.5 66.5t-113.5 25.5q-132 0 -224.5 -122.5t-92.5 -321.5z" />
<glyph unicode="A" horiz-adv-x="1140" d="M37 0l379 1382h338l350 -1382h-172l-84 352h-567l-91 -352h-153zM313 487h504l-182 760h-117z" />
<glyph unicode="B" horiz-adv-x="1083" d="M139 51v1331h359q208 0 325 -91t117 -242q0 -132 -64 -218t-163 -114v-6q132 -24 217.5 -112t85.5 -214q0 -180 -134.5 -292.5t-338.5 -112.5q-226 0 -404 71zM297 150q125 -44 246 -44q137 0 223 75t86 204q0 121 -82 187.5t-256 66.5h-217v-489zM297 762h203 q276 0 276 272q0 108 -72.5 162.5t-205.5 54.5h-201v-489z" />
<glyph unicode="C" horiz-adv-x="1167" d="M106 698q0 333 152 519t418 186q127 0 239 -29.5t187 -83.5l-62 -127q-60 46 -157.5 73.5t-198.5 27.5q-206 0 -310 -149.5t-104 -409.5q0 -273 105 -429.5t305 -156.5q208 0 381 131l49 -127q-204 -143 -438 -143q-276 0 -421 192.5t-145 525.5z" />
<glyph unicode="D" horiz-adv-x="1257" d="M133 49v1333h389q150 0 260 -34.5t192 -111.5t123.5 -209.5t41.5 -321.5q0 -347 -145 -536t-414 -189q-215 0 -447 69zM291 154q134 -41 295 -41q190 0 288.5 141t98.5 453q0 294 -108 421t-353 127h-221v-1101z" />
<glyph unicode="E" d="M139 0v1382h764v-137h-606v-475h481l-20 -139h-461v-500h606v-131h-764z" />
<glyph unicode="F" horiz-adv-x="970" d="M139 0v1382h764v-137h-606v-514h481l-20 -139h-461v-592h-158z" />
<glyph unicode="G" horiz-adv-x="1259" d="M106 707q0 150 40 276.5t115 220t190.5 146.5t259.5 53q237 0 401 -100l-68 -123q-60 37 -148 60.5t-185 23.5q-141 0 -242.5 -74.5t-150 -198t-48.5 -280.5q0 -276 111 -436t321 -160q162 0 285 49v381h-229l-6 125h393v-584q-134 -60 -237 -83t-216 -23 q-275 0 -430.5 198t-155.5 529z" />
<glyph unicode="H" horiz-adv-x="1232" d="M139 0v1382h160v-614h629v614h164v-1382h-164v623h-629v-623h-160z" />
<glyph unicode="I" horiz-adv-x="538" d="M190 0v1382h158v-1382h-158z" />
<glyph unicode="J" horiz-adv-x="774" d="M57 39l27 137q121 -57 229 -57q74 0 119 50.5t45 164.5v1048h160v-1050q0 -168 -85 -260t-222 -92q-64 0 -140 16.5t-133 42.5z" />
<glyph unicode="K" horiz-adv-x="1044" d="M133 0v1382h158v-454l-8 -209l499 663h193l-535 -684l596 -698h-207l-501 608h-45l8 -217v-391h-158z" />
<glyph unicode="L" horiz-adv-x="954" d="M164 0v1382h158v-1251h606v-131h-764z" />
<glyph unicode="M" horiz-adv-x="1658" d="M145 0l54 1382h272q305 -1003 352 -1224h4q24 97 117 403t174 563l82 258h260l53 -1382h-170l-40 1231h-7q-20 -81 -92 -307l-295 -924h-198l-279 926q-76 243 -92 305h-6l-39 -1231h-150z" />
<glyph unicode="N" horiz-adv-x="1228" d="M139 0v1382h262l529 -1237h10l-6 1237h156v-1382h-275l-522 1227h-8l4 -1227h-150z" />
<glyph unicode="O" horiz-adv-x="1298" d="M106 702q0 114 17 214t57 191t101 155.5t154.5 102.5t211.5 38q121 0 215.5 -37.5t155.5 -101.5t101 -155t56.5 -191t16.5 -216q0 -114 -18 -216.5t-59.5 -196t-103 -161.5t-155 -108t-209.5 -40q-117 0 -209.5 38t-154 103.5t-102 158.5t-58 197.5t-17.5 224.5zM270 705 q0 -592 377 -592q86 0 153 32.5t109 87t69 132t37.5 160.5t10.5 180q0 89 -11 167t-38 152.5t-69 128t-108.5 85.5t-152.5 32q-84 0 -150.5 -32.5t-108.5 -86.5t-69 -128.5t-38 -152.5t-11 -165z" />
<glyph unicode="P" horiz-adv-x="1046" d="M137 0v1382h363q103 0 191.5 -25t157 -74t107.5 -129t39 -183q0 -211 -137 -327t-358 -116h-207v-528h-156zM293 657h196q161 0 249.5 78t88.5 232q0 141 -91 211.5t-247 70.5h-196v-592z" />
<glyph unicode="Q" horiz-adv-x="1298" d="M106 702q0 114 17 214t57 191t101 155.5t154.5 102.5t211.5 38q121 0 215.5 -37.5t155.5 -101.5t101 -155t56.5 -191t16.5 -216t-24.5 -225.5t-71.5 -205t-124 -166.5t-175 -101q94 -33 217.5 -52.5t232.5 -19.5v-151q-325 0 -596 199h-4q-113 0 -204 38t-153 103.5 t-104 157.5t-61 197.5t-19 225.5zM270 705q0 -592 377 -592q86 0 153 32.5t109 87t69 132t37.5 160.5t10.5 180q0 89 -11 167t-38 152.5t-69 128t-108.5 85.5t-152.5 32q-84 0 -150.5 -32.5t-108.5 -86.5t-69 -128.5t-38 -152.5t-11 -165z" />
<glyph unicode="R" horiz-adv-x="1081" d="M139 0v1382h371q104 0 189.5 -22.5t153 -68.5t105 -123.5t37.5 -180.5q0 -280 -278 -393l313 -594h-188l-279 563q-36 -4 -78 -4h-190v-559h-156zM295 690h192q160 0 250 74t90 219t-87 208.5t-253 63.5h-192v-565z" />
<glyph unicode="S" horiz-adv-x="1044" d="M82 121l65 125q66 -55 167.5 -94t195.5 -39q132 0 209.5 69.5t77.5 188.5q0 73 -38 127t-98.5 87t-133.5 61t-146 60t-133.5 73.5t-98.5 111.5t-38 164q0 148 117 248t321 100q224 0 393 -100l-55 -127q-53 33 -145 60.5t-191 27.5q-138 0 -208.5 -60.5t-70.5 -150.5 q0 -57 29.5 -102t78 -73.5t110.5 -56.5t126.5 -51t126.5 -58t110.5 -76.5t78 -108t29.5 -150.5q0 -168 -125 -282.5t-334 -114.5q-229 0 -420 141z" />
<glyph unicode="T" horiz-adv-x="989" d="M51 1245v137h887v-137h-377v-1245h-164v1245h-346z" />
<glyph unicode="U" horiz-adv-x="1220" d="M141 514v868h158v-850q0 -417 313 -417q306 0 306 417v850h159v-868q0 -89 -17 -167.5t-53.5 -146t-90.5 -116.5t-131.5 -76.5t-172.5 -27.5q-120 0 -212 42t-147.5 116t-83.5 168.5t-28 207.5z" />
<glyph unicode="V" horiz-adv-x="1103" d="M20 1382h175l352 -1243h12l356 1243h168l-407 -1382h-254z" />
<glyph unicode="W" horiz-adv-x="1738" d="M23 1382h180l254 -1245h12l315 1245h191l295 -1245h10l276 1245h160l-319 -1382h-258l-269 1159h-4l-286 -1159h-256z" />
<glyph unicode="X" horiz-adv-x="1085" d="M20 0l449 700l-393 682h190l299 -536l301 536h191l-418 -667l426 -715h-186l-336 565l-332 -565h-191z" />
<glyph unicode="Y" horiz-adv-x="1011" d="M16 1382h193l289 -671h8l319 671h170l-436 -843v-539h-160v541z" />
<glyph unicode="Z" horiz-adv-x="1083" d="M90 0v119l727 1130h-723v133h897v-139l-725 -1114h727v-129h-903z" />
<glyph unicode="[" horiz-adv-x="587" d="M182 -252v1811h344v-142h-188v-1528h188v-141h-344z" />
<glyph unicode="\" horiz-adv-x="614" d="M10 1460h94l500 -1552h-94z" />
<glyph unicode="]" horiz-adv-x="587" d="M61 -111h187v1528h-187v142h345v-1811h-345v141z" />
<glyph unicode="^" horiz-adv-x="921" d="M123 1260l242 170l118 55q36 -25 99 -70.5t116.5 -83.5t100.5 -71l-62 -86l-276 172l-281 -172z" />
<glyph unicode="_" horiz-adv-x="1429" d="M141 0v115h1147v-115h-1147z" />
<glyph unicode="`" horiz-adv-x="1202" d="M385 1303l31 116l454 -168l-24 -92z" />
<glyph unicode="a" d="M96 287q0 132 93.5 209t261.5 77h260v80q0 129 -56 188.5t-172 59.5q-157 0 -303 -65l-41 112q174 76 365 76q358 0 358 -362v-662h-106l-27 129q-49 -63 -129.5 -106t-179.5 -43q-149 0 -236.5 87.5t-87.5 219.5zM248 293q0 -94 52.5 -147.5t158.5 -53.5 q70 0 137.5 35.5t114.5 89.5v250h-236q-227 0 -227 -174z" />
<glyph unicode="b" horiz-adv-x="1064" d="M135 0v1413h156v-389l-17 -135q54 58 135 96.5t164 38.5q192 0 291 -133t99 -387q0 -257 -114.5 -390.5t-303.5 -133.5q-165 0 -291 129l-33 -109h-86zM291 211q49 -52 114 -83.5t130 -31.5q135 0 202.5 98t67.5 310q0 201 -63 301t-197 100q-69 0 -138 -32t-116 -80 v-582z" />
<glyph unicode="c" horiz-adv-x="946" d="M104 502q0 248 122 385t317 137q196 0 327 -80l-45 -110q-113 65 -274 65q-136 0 -213.5 -104t-77.5 -293q0 -402 291 -402q148 0 289 84l37 -116q-59 -34 -148 -61t-186 -27q-202 0 -320.5 127.5t-118.5 394.5z" />
<glyph unicode="d" horiz-adv-x="1075" d="M104 504q0 234 111.5 377t308.5 143q160 0 269 -86q-9 80 -9 164v311h156v-1413h-117l-26 121q-45 -60 -124 -100.5t-165 -40.5q-184 0 -294 135t-110 389zM262 504q0 -193 66 -300.5t202 -107.5t254 127v611q-101 71 -243 71q-139 0 -209 -103.5t-70 -297.5z" />
<glyph unicode="e" horiz-adv-x="1036" d="M102 508q0 240 113 378t317 138q83 0 150.5 -25.5t113.5 -70t77.5 -106t46 -131t14.5 -146.5v-88h-676q0 -180 84.5 -268.5t232.5 -88.5q144 0 312 101l39 -111q-181 -110 -367 -110q-210 0 -333.5 137t-123.5 391zM258 565h524q0 69 -13 127t-41 107.5t-79.5 77.5 t-122.5 28q-69 0 -122 -28.5t-84 -77.5t-46.5 -108t-15.5 -126z" />
<glyph unicode="f" horiz-adv-x="657" d="M61 885v119h162v90q0 173 84.5 263.5t251.5 90.5q70 0 156 -21l-15 -127q-59 19 -129 19q-101 0 -147.5 -57.5t-46.5 -178.5v-79h237v-119h-237v-885h-154v885h-162z" />
<glyph unicode="g" horiz-adv-x="1050" d="M102 -117q0 97 68.5 158.5t185.5 79.5q-101 10 -163 46.5t-62 104.5q0 54 38 89.5t114 44.5q-154 94 -154 270q0 75 26 136.5t66 99.5t92 64.5t101.5 37t95.5 10.5q35 0 195 -8.5t292 -11.5v-109q-17 -2 -38 -2q-74 0 -205 22q137 -99 137 -239q0 -85 -37.5 -152.5 t-96 -106.5t-122 -59t-123.5 -20t-131 22q-107 -9 -107 -71q0 -25 36.5 -40t94.5 -23t128 -16.5t140 -26.5t128 -45.5t94.5 -80t36.5 -125.5q0 -84 -36.5 -151.5t-98 -109t-137.5 -63.5t-158 -22q-102 0 -191.5 33t-149 102.5t-59.5 161.5zM252 -100q0 -90 76.5 -147.5 t177.5 -57.5q122 0 196 57t74 172q0 77 -67.5 120t-216.5 58q-113 -3 -176.5 -57t-63.5 -145zM272 678q0 -52 15 -92.5t38.5 -65.5t56 -41t63.5 -22t65 -6q33 0 64 6t62.5 22t55 41t38.5 65.5t15 92.5q0 53 -15.5 95t-39 67t-55.5 41t-62.5 22t-62.5 6t-62.5 -6t-63.5 -22 t-57 -41t-39.5 -67t-15.5 -95z" />
<glyph unicode="h" horiz-adv-x="1032" d="M135 0v1413h156v-403q0 -84 -15 -127q131 141 304 141q181 0 263.5 -98t82.5 -293v-633h-160v606q0 142 -57 218.5t-172 76.5q-118 0 -246 -115v-786h-156z" />
<glyph unicode="i" horiz-adv-x="503" d="M104 901v103h263v-1004h-152v879zM201 1235v164h166v-164h-166z" />
<glyph unicode="j" horiz-adv-x="544" d="M-14 -293l18 131q52 -18 98 -18q58 0 88.5 42t30.5 120v899l-110 22v101h264v-1020q0 -148 -67.5 -225.5t-178.5 -77.5q-63 0 -143 26zM209 1235v164h166v-164h-166z" />
<glyph unicode="k" horiz-adv-x="901" d="M135 0v1413h154v-590l-6 -256l395 437h184l-407 -437l448 -567h-194l-377 487h-43v-487h-154z" />
<glyph unicode="l" horiz-adv-x="538" d="M143 276v1137h154v-1194q0 -65 33.5 -93t115.5 -28h33v-106q-49 -12 -98 -12q-135 0 -186.5 72.5t-51.5 223.5z" />
<glyph unicode="m" horiz-adv-x="1646" d="M135 0v1004h103l32 -121q136 141 305 141q220 0 295 -154q55 61 136 107.5t178 46.5q182 0 268 -98.5t86 -292.5v-633h-158v606q0 146 -58 220.5t-183 74.5q-121 0 -240 -115q16 -60 16 -153v-633h-157v606q0 149 -51.5 222t-174.5 73q-71 0 -126.5 -30.5t-114.5 -84.5 v-786h-156z" />
<glyph unicode="n" horiz-adv-x="1040" d="M135 0v1004h105l30 -119q134 139 316 139q340 0 340 -391v-633h-160v606q0 148 -53 221.5t-176 73.5q-118 0 -246 -115v-786h-156z" />
<glyph unicode="o" horiz-adv-x="1060" d="M100 504q0 151 45.5 266t144 184.5t238.5 69.5q204 0 318.5 -144.5t114.5 -375.5q0 -251 -115 -387.5t-318 -136.5q-205 0 -316.5 134.5t-111.5 389.5zM258 504q0 -408 270 -408q143 0 208 101t65 307q0 403 -273 403q-270 0 -270 -403z" />
<glyph unicode="p" horiz-adv-x="1058" d="M135 -389v1393h121l25 -119q56 62 132 100.5t160 38.5q191 0 287 -132.5t96 -387.5q0 -257 -113.5 -390.5t-301.5 -133.5q-87 0 -150.5 28.5t-120.5 85.5q23 -99 23 -162v-321h-158zM293 205q106 -109 237 -109q138 0 203.5 97t65.5 311q0 201 -62 300t-196 99 q-69 0 -134 -33.5t-114 -83.5v-581z" />
<glyph unicode="q" horiz-adv-x="1075" d="M104 504q0 234 111.5 377t308.5 143q160 0 289 -94l29 74h98v-1393h-156v391q0 19 4 49t8 50l3 20q-45 -59 -125.5 -100t-165.5 -41q-181 0 -292.5 136t-111.5 388zM262 504q0 -193 66 -300.5t202 -107.5t254 127v606q-97 76 -241 76q-139 0 -210 -104t-71 -297z" />
<glyph unicode="r" horiz-adv-x="694" d="M135 0v1004h105l28 -127q42 56 108 98.5t152 42.5q59 0 127 -17l-10 -133q-55 19 -129 19q-120 0 -225 -109v-778h-156z" />
<glyph unicode="s" horiz-adv-x="841" d="M96 66l45 114q40 -32 113.5 -58t142.5 -26q92 0 145.5 47t53.5 125q0 49 -27 85t-70.5 59t-96 43.5t-105 45t-96 55.5t-70.5 83t-27 121q0 110 85 187t247 77q181 0 301 -66l-37 -114q-116 61 -262 61q-94 0 -141 -38.5t-47 -108.5q0 -43 27.5 -76t71.5 -54t97 -41 t106 -45t97 -56.5t71.5 -84.5t27.5 -122q0 -127 -94 -213t-255 -86q-163 0 -303 86z" />
<glyph unicode="t" horiz-adv-x="761" d="M63 891v113h152v182l156 49v-231h293v-113h-293v-623q0 -80 31.5 -118.5t101.5 -38.5q71 0 160 43l30 -115q-36 -22 -99.5 -40.5t-121.5 -18.5q-258 0 -258 307v604h-152z" />
<glyph unicode="u" horiz-adv-x="1034" d="M123 387v617h156v-607q0 -156 53 -224.5t174 -68.5q130 0 248 99v801h157v-1004h-108l-23 115q-46 -52 -127.5 -93.5t-183.5 -41.5q-169 0 -257.5 102t-88.5 305z" />
<glyph unicode="v" horiz-adv-x="929" d="M25 1004h172l272 -908h4l270 908h160l-325 -1004h-232z" />
<glyph unicode="w" horiz-adv-x="1413" d="M25 1004h170l174 -893h6l248 893h178l194 -893h6l230 893h158l-285 -1004h-227l-177 825l-231 -825h-219z" />
<glyph unicode="x" horiz-adv-x="884" d="M27 0l327 528l-303 476h195l209 -371l207 371h157l-293 -490l330 -514h-186l-246 412l-240 -412h-157z" />
<glyph unicode="y" horiz-adv-x="964" d="M-10 -332l51 105h12q81 -64 168 -64q88 0 144.5 59t103.5 201l12 37l-102 -8l-322 1006h172q189 -612 275 -912l272 912h160l-322 -994q-77 -237 -166 -329.5t-235 -92.5q-59 0 -124 25.5t-99 54.5z" />
<glyph unicode="z" horiz-adv-x="905" d="M82 0v90l563 801h-563v113h737v-109l-547 -784h551v-111h-741z" />
<glyph unicode="{" horiz-adv-x="661" d="M37 602v133q37 18 111.5 53t111.5 54v229q0 151 76 255.5t235 170.5l52 -117q-109 -65 -156 -135t-47 -188v-211l-164 -150l-49 -32l213 -113v-320q0 -118 50.5 -195t152.5 -128l-52 -115q-76 33 -130 72t-89 83t-55.5 101.5t-28.5 120t-8 145.5v172z" />
<glyph unicode="|" horiz-adv-x="614" d="M252 -346v1841h110v-1839z" />
<glyph unicode="}" horiz-adv-x="661" d="M37 -92q203 93 203 323v320q33 18 98 52.5t98 53.5l19 19l-215 98v283q0 119 -47 188.5t-156 134.5l53 117q309 -128 309 -405v-250q37 -18 112 -53t112 -54v-133l-224 -115v-233q0 -172 -70 -279t-239 -182z" />
<glyph unicode="~" horiz-adv-x="1015" d="M147 567q34 84 99.5 121.5t159.5 11.5l239 -67q102 -28 137 61l88 -35q-28 -89 -86 -127.5t-147 -13.5l-248 68q-106 27 -151 -58z" />
<glyph unicode="&#xa1;" horiz-adv-x="559" d="M201 115l26 477h105l26 -477v-527h-157v527zM205 772v229h151v-229h-151z" />
<glyph unicode="&#xa3;" horiz-adv-x="946" d="M117 156v131h151v338h-151v106h151v137q0 172 87.5 263.5t258.5 91.5q100 0 209 -33l-24 -119q-89 23 -172 23q-107 0 -154 -56t-47 -178v-129h301l-14 -106h-287v-232l-10 -123q104 17 194 17h215v-131h-708z" />
<glyph unicode="&#xa5;" horiz-adv-x="978" d="M37 1202h186l258 -485h11l280 485h168l-324 -485h189v-115h-262v-135h262v-117h-262v-194h-158v194h-242v117h242v135h-242v115h176z" />
<glyph unicode="&#xa6;" horiz-adv-x="614" d="M252 -344v852h110v-852h-110zM252 643v852h110v-852h-110z" />
<glyph unicode="&#xa7;" horiz-adv-x="966" d="M150 1106q0 113 84 188.5t249 75.5q177 0 299 -67q-26 -95 -30 -115q-120 63 -267 63q-88 0 -139 -41.5t-51 -105.5q0 -36 26.5 -70t69.5 -63t94.5 -59t103.5 -63.5t95 -69.5t69.5 -84.5t26.5 -102.5q0 -11 -4 -35l-434 272q-40 26 -60.5 40.5t-50 41.5t-44 51.5t-26 62 t-11.5 81.5zM164 -287q6 16 21.5 54t23.5 59q41 -33 113.5 -59.5t140.5 -26.5q86 0 143.5 48t57.5 126q0 48 -35.5 90.5t-88.5 73.5t-115 68t-115 72.5t-88.5 88.5t-35.5 115q0 11 4 31l453 -269q37 -22 63 -42t53.5 -51t41.5 -73t14 -94q0 -127 -94.5 -214t-257.5 -87 q-152 0 -299 90zM211 623v116l553 -344v-114z" />
<glyph unicode="&#xa8;" horiz-adv-x="1058" d="M248 1186v223h151v-223h-151zM657 1186v223h152v-223h-152z" />
<glyph unicode="&#xa9;" horiz-adv-x="1245" d="M123 868q0 136 67 251t182 182t251 67q135 0 250 -67t182 -182t67 -251q0 -102 -39.5 -194.5t-106.5 -159t-159.5 -106t-193.5 -39.5q-136 0 -251 66.5t-182 181.5t-67 251zM201 868q0 -175 123.5 -298.5t298.5 -123.5t298 123.5t123 298.5t-123 298.5t-298 123.5 t-298.5 -123.5t-123.5 -298.5zM344 866q0 154 76 229.5t198 75.5q110 0 191 -43l-23 -94q-79 37 -168 37q-79 0 -121 -46.5t-42 -160.5q0 -205 163 -205q92 0 177 54l28 -90q-103 -64 -205 -64q-122 0 -198 77t-76 230z" />
<glyph unicode="&#xaa;" horiz-adv-x="880" d="M117 850q0 120 81.5 180t217.5 60h209v47q0 161 -189 161q-137 0 -254 -57l-41 105q145 67 316 67q151 0 229 -70t78 -196v-533h-102l-27 127q-96 -147 -264 -147q-111 0 -182.5 70t-71.5 186zM252 856q0 -73 45.5 -114.5t122.5 -41.5q117 0 205 123v172h-191 q-182 0 -182 -139z" />
<glyph unicode="&#xab;" horiz-adv-x="901" d="M82 440l295 365l96 -84l-209 -283l209 -305l-96 -74zM426 440l297 359l94 -84l-207 -277l209 -297l-98 -73z" />
<glyph unicode="&#xad;" horiz-adv-x="946" d="M143 508v108h660v-108h-660z" />
<glyph unicode="&#xae;" horiz-adv-x="1239" d="M119 639q0 136 66.5 251t181.5 182t251 67q135 0 250 -67t182.5 -182t67.5 -251t-67.5 -251t-182.5 -182t-250 -67q-136 0 -251 67t-181.5 182t-66.5 251zM197 639q0 -175 123 -298.5t298 -123.5t298.5 123.5t123.5 298.5t-123.5 298.5t-298.5 123.5t-298 -123.5 t-123 -298.5zM436 332v624h174q103 0 171.5 -50t68.5 -148q0 -84 -44 -134.5t-116 -66.5l141 -225h-102l-129 215h-76v-215h-88zM524 621h66q162 0 162 135q0 69 -40 99t-124 30h-64v-264z" />
<glyph unicode="&#xaf;" horiz-adv-x="1048" d="M180 1202v96h686v-96h-686z" />
<glyph unicode="&#xb0;" horiz-adv-x="997" d="M119 1014q0 158 110.5 267.5t270.5 109.5q158 0 267.5 -109.5t109.5 -267.5q0 -161 -109 -271t-268 -110q-160 0 -270.5 110t-110.5 271zM248 1014q0 -106 73 -179t179 -73t178 73t72 179q0 105 -72.5 177.5t-177.5 72.5q-106 0 -179 -73t-73 -177z" />
<glyph unicode="&#xb1;" horiz-adv-x="976" d="M145 147v117h684v-117h-684zM156 678v121h262v272h133v-272h270v-121h-270v-283h-133v283h-262z" />
<glyph unicode="&#xb2;" horiz-adv-x="864" d="M109 1335q156 78 319 78q137 0 224 -67.5t87 -169.5q0 -53 -17.5 -101.5t-49.5 -94.5t-90.5 -101.5t-126.5 -110t-172 -131.5q113 10 219 10h237v-119h-596v121q257 192 351 299t94 193q0 72 -50 109.5t-130 37.5q-129 0 -248 -65z" />
<glyph unicode="&#xb3;" horiz-adv-x="864" d="M117 588l53 104q39 -28 105.5 -48.5t130.5 -20.5q87 0 142.5 40.5t55.5 110.5q0 69 -61.5 104t-196.5 35l-12 99q229 0 229 162q0 56 -46.5 87t-131.5 31q-127 0 -209 -55l-45 109q130 67 268 67q143 0 224.5 -63.5t81.5 -155.5t-52.5 -150t-130.5 -71q93 -12 159.5 -62 t66.5 -135q0 -117 -97 -192.5t-245 -75.5q-84 0 -162.5 23.5t-126.5 56.5z" />
<glyph unicode="&#xb4;" horiz-adv-x="1239" d="M385 1251l453 168l30 -116l-460 -144z" />
<glyph unicode="&#xb6;" horiz-adv-x="1249" d="M98 965q0 104 40 185.5t109.5 131t158.5 75t192 25.5h469v-1710h-145v1577h-314q-157 0 -249.5 -73t-92.5 -215q0 -156 90.5 -232t243.5 -76v451h141v-1432h-141v852q-103 0 -192.5 27t-159.5 79.5t-110 138.5t-40 196z" />
<glyph unicode="&#xb7;" horiz-adv-x="362" d="M104 772v229h154v-229h-154z" />
<glyph unicode="&#xb8;" horiz-adv-x="1056" d="M430 -342q67 5 105 35t38 82q0 36 -28.5 63t-79.5 41l10 27q128 0 193 -31t65 -104q0 -52 -29 -93.5t-76 -65t-97.5 -36t-100.5 -14.5v96z" />
<glyph unicode="&#xb9;" horiz-adv-x="862" d="M127 995v131q96 18 178 91t131 176h113v-752h217v-113h-621v113h261v393l10 176q-35 -70 -116.5 -132.5t-172.5 -82.5z" />
<glyph unicode="&#xba;" horiz-adv-x="997" d="M123 1012q0 197 102 299t273 102q164 0 270 -103t106 -298q0 -91 -20.5 -162.5t-55.5 -118.5t-83.5 -78t-102 -44t-114.5 -13q-58 0 -110.5 12.5t-101.5 43t-84.5 77t-57 119t-21.5 164.5zM279 1010q0 -145 63.5 -221t155.5 -76q42 0 79 15t69.5 47.5t51.5 92.5t19 142 q0 153 -61.5 219.5t-157.5 66.5q-97 0 -158 -67.5t-61 -218.5z" />
<glyph unicode="&#xbb;" horiz-adv-x="909" d="M82 141l207 297l-207 277l94 84l297 -359l-295 -372zM434 133l209 305l-209 283l96 84l297 -365l-295 -381z" />
<glyph unicode="&#xbc;" horiz-adv-x="1937" d="M127 961v131q96 18 178 90.5t131 175.5h113v-752h217v-112h-621v112h261v393l10 177q-35 -70 -116.5 -132.5t-172.5 -82.5zM721 -92l500 1552h94l-500 -1552h-94zM1141 213v94l250 574l94 -31v-49l-203 -473h274v536h140v-536h114v-115h-114v-213h-140v213h-415z" />
<glyph unicode="&#xbd;" horiz-adv-x="2017" d="M127 961v131q96 18 178 90.5t131 175.5h113v-752h217v-112h-621v112h261v393l10 177q-35 -70 -116.5 -132.5t-172.5 -82.5zM721 -92l500 1552h94l-500 -1552h-94zM1262 807q156 78 319 78q137 0 224 -68t87 -170q0 -53 -17.5 -101.5t-49 -94.5t-91 -101.5t-126.5 -109.5 t-172 -131q113 10 219 10h237v-119h-596v121q176 131 274 222t134.5 151.5t36.5 117.5q0 72 -50 110t-130 38q-127 0 -248 -66z" />
<glyph unicode="&#xbe;" horiz-adv-x="1970" d="M125 551l53 104q39 -28 105.5 -48.5t130.5 -20.5q87 0 142.5 40.5t55.5 110.5q0 69 -61.5 104.5t-196.5 35.5l-12 98q229 0 229 162q0 56 -46.5 87t-131.5 31q-127 0 -209 -55l-45 109q130 67 269 67q143 0 224 -63t81 -156q0 -92 -52.5 -150t-130.5 -71 q93 -12 159.5 -62t66.5 -135q0 -117 -97 -192.5t-245 -75.5q-84 0 -162.5 23.5t-126.5 56.5zM674 -66l561 1551l74 -25l-564 -1552zM1174 213v94l249 574l95 -31v-49l-203 -473h274v536h140v-536h114v-115h-114v-213h-140v213h-415z" />
<glyph unicode="&#xbf;" horiz-adv-x="837" d="M63 -39q0 69 19 127.5t49.5 100t67.5 79t74.5 71t68 67t49.5 76.5t19 91v58h141v-86q0 -72 -34 -132.5t-82 -105.5l-96 -90t-82 -107.5t-34 -136.5q0 -127 73.5 -190.5t188.5 -63.5q121 0 269 72l43 -123q-172 -80 -332 -80q-175 0 -288.5 97.5t-113.5 275.5zM408 772 v229h151v-229h-151z" />
<glyph unicode="&#xc0;" horiz-adv-x="1138" d="M35 0l379 1382h338l350 -1382h-172l-84 352h-567l-91 -352h-153zM311 487h504l-182 760h-117zM319 1516l3 116l497 -63l-10 -92z" />
<glyph unicode="&#xc1;" horiz-adv-x="1122" d="M29 0l379 1382h337l351 -1382h-172l-84 352h-568l-90 -352h-153zM305 487h504l-182 760h-117zM324 1569l497 63l2 -116l-489 -39z" />
<glyph unicode="&#xc2;" horiz-adv-x="1138" d="M35 0l379 1382h338l350 -1382h-172l-84 352h-567l-91 -352h-153zM256 1559l313 186l314 -186l-41 -89l-273 140l-272 -140zM311 487h504l-182 760h-117z" />
<glyph unicode="&#xc3;" horiz-adv-x="1138" d="M35 0l379 1382h338l350 -1382h-172l-84 352h-567l-91 -352h-153zM242 1550q22 87 88.5 129.5t158.5 8.5l195 -70q48 -16 81.5 -0.5t51.5 59.5l80 -30q-11 -92 -71 -135.5t-150 -12.5l-203 72q-53 17 -89.5 1t-57.5 -59zM311 487h504l-182 760h-117z" />
<glyph unicode="&#xc4;" horiz-adv-x="1138" d="M35 0l379 1382h338l350 -1382h-172l-84 352h-567l-91 -352h-153zM289 1479v223h151v-223h-151zM311 487h504l-182 760h-117zM698 1479v223h152v-223h-152z" />
<glyph unicode="&#xc5;" horiz-adv-x="1138" d="M35 0l379 1382h338l350 -1382h-172l-84 352h-567l-91 -352h-153zM311 487h504l-182 760h-117zM324 1679q0 101 71 172.5t174 71.5q101 0 172.5 -71.5t71.5 -172.5q0 -102 -71 -172.5t-173 -70.5q-103 0 -174 70t-71 173zM430 1677q0 -59 39.5 -99t99.5 -40t100 40t40 99 q0 60 -40 101t-100 41t-99.5 -41t-39.5 -101z" />
<glyph unicode="&#xc6;" horiz-adv-x="1560" d="M35 0l454 1382h981v-137h-606v-475h482l-21 -139h-461v-500h606v-131h-763v344h-406l-111 -344h-155zM344 479h363v766h-113z" />
<glyph unicode="&#xc7;" horiz-adv-x="1179" d="M121 698q0 333 152 519t417 186q127 0 239 -29.5t187 -83.5l-61 -127q-60 46 -158 73.5t-199 27.5q-138 0 -232 -71t-137.5 -194.5t-43.5 -293.5q0 -273 104.5 -429.5t304.5 -156.5q208 0 381 131l49 -127q-204 -143 -438 -143q-185 0 -313 90t-190 249.5t-62 378.5z M520 -342q67 5 105.5 35t38.5 82q0 36 -28.5 63t-80.5 41l10 27q128 0 193 -31t65 -104q0 -52 -29 -93.5t-76 -65t-97.5 -36t-100.5 -14.5v96z" />
<glyph unicode="&#xc8;" d="M139 0v1382h764v-137h-606v-475h481l-20 -139h-461v-500h606v-131h-764zM246 1516l2 116l497 -63l-10 -92z" />
<glyph unicode="&#xc9;" d="M139 0v1382h764v-137h-606v-475h481l-20 -139h-461v-500h606v-131h-764zM254 1569l498 63l2 -116l-490 -39z" />
<glyph unicode="&#xca;" d="M139 0v1382h764v-137h-606v-475h481l-20 -139h-461v-500h606v-131h-764zM182 1559l314 186l313 -186l-41 -89l-272 140l-273 -140z" />
<glyph unicode="&#xcb;" d="M139 0v1382h764v-137h-606v-475h481l-20 -139h-461v-500h606v-131h-764zM215 1479v223h152v-223h-152zM625 1479v223h151v-223h-151z" />
<glyph unicode="&#xcc;" horiz-adv-x="540" d="M20 1516l3 116l497 -63l-10 -92zM190 0v1382h158v-1382h-158z" />
<glyph unicode="&#xcd;" horiz-adv-x="540" d="M20 1569l498 63l2 -116l-489 -39zM190 0v1382h158v-1382h-158z" />
<glyph unicode="&#xce;" horiz-adv-x="540" d="M-43 1559l313 186l314 -186l-41 -89l-273 140l-272 -140zM190 0v1382h158v-1382h-158z" />
<glyph unicode="&#xcf;" horiz-adv-x="540" d="M-10 1479v223h151v-223h-151zM190 0v1382h158v-1382h-158zM399 1479v223h152v-223h-152z" />
<glyph unicode="&#xd1;" horiz-adv-x="1275" d="M162 0v1382h262l528 -1237h11l-7 1237h156v-1382h-274l-523 1227h-8l4 -1227h-149zM309 1550q22 87 89 129.5t159 8.5l195 -70q48 -16 81.5 -0.5t51.5 59.5l80 -30q-11 -92 -71.5 -135.5t-150.5 -12.5l-202 72q-53 17 -90 1t-58 -59z" />
<glyph unicode="&#xd2;" horiz-adv-x="1298" d="M106 702q0 114 17 214t57 191t101 155.5t154.5 102.5t211.5 38q121 0 215.5 -37.5t155.5 -101.5t101 -155t56.5 -191t16.5 -216q0 -114 -18 -216.5t-59.5 -196t-103 -161.5t-155 -108t-209.5 -40q-117 0 -209.5 38t-154 103.5t-102 158.5t-58 197.5t-17.5 224.5zM270 705 q0 -592 377 -592q86 0 153 32.5t109 87t69 132t37.5 160.5t10.5 180q0 89 -11 167t-38 152.5t-69 128t-108.5 85.5t-152.5 32q-84 0 -150.5 -32.5t-108.5 -86.5t-69 -128.5t-38 -152.5t-11 -165zM401 1516l2 116l498 -63l-10 -92z" />
<glyph unicode="&#xd3;" horiz-adv-x="1298" d="M106 702q0 114 17 214t57 191t101 155.5t154.5 102.5t211.5 38q121 0 215.5 -37.5t155.5 -101.5t101 -155t56.5 -191t16.5 -216q0 -114 -18 -216.5t-59.5 -196t-103 -161.5t-155 -108t-209.5 -40q-117 0 -209.5 38t-154 103.5t-102 158.5t-58 197.5t-17.5 224.5zM270 705 q0 -592 377 -592q86 0 153 32.5t109 87t69 132t37.5 160.5t10.5 180q0 89 -11 167t-38 152.5t-69 128t-108.5 85.5t-152.5 32q-84 0 -150.5 -32.5t-108.5 -86.5t-69 -128.5t-38 -152.5t-11 -165zM401 1569l498 63l2 -116l-489 -39z" />
<glyph unicode="&#xd4;" horiz-adv-x="1298" d="M106 702q0 114 17 214t57 191t101 155.5t154.5 102.5t211.5 38q121 0 215.5 -37.5t155.5 -101.5t101 -155t56.5 -191t16.5 -216q0 -114 -18 -216.5t-59.5 -196t-103 -161.5t-155 -108t-209.5 -40q-117 0 -209.5 38t-154 103.5t-102 158.5t-58 197.5t-17.5 224.5zM270 705 q0 -592 377 -592q86 0 153 32.5t109 87t69 132t37.5 160.5t10.5 180q0 89 -11 167t-38 152.5t-69 128t-108.5 85.5t-152.5 32q-84 0 -150.5 -32.5t-108.5 -86.5t-69 -128.5t-38 -152.5t-11 -165zM338 1559l313 186l314 -186l-41 -89l-273 140l-272 -140z" />
<glyph unicode="&#xd5;" horiz-adv-x="1298" d="M106 702q0 114 17 214t57 191t101 155.5t154.5 102.5t211.5 38q121 0 215.5 -37.5t155.5 -101.5t101 -155t56.5 -191t16.5 -216q0 -114 -18 -216.5t-59.5 -196t-103 -161.5t-155 -108t-209.5 -40q-117 0 -209.5 38t-154 103.5t-102 158.5t-58 197.5t-17.5 224.5zM270 705 q0 -592 377 -592q86 0 153 32.5t109 87t69 132t37.5 160.5t10.5 180q0 89 -11 167t-38 152.5t-69 128t-108.5 85.5t-152.5 32q-84 0 -150.5 -32.5t-108.5 -86.5t-69 -128.5t-38 -152.5t-11 -165zM324 1550q22 87 88.5 129.5t158.5 8.5l195 -70q48 -16 81.5 -0.5t51.5 59.5 l80 -30q-11 -92 -71 -135.5t-150 -12.5l-203 72q-53 17 -89.5 1t-57.5 -59z" />
<glyph unicode="&#xd6;" horiz-adv-x="1298" d="M106 702q0 114 17 214t57 191t101 155.5t154.5 102.5t211.5 38q121 0 215.5 -37.5t155.5 -101.5t101 -155t56.5 -191t16.5 -216q0 -114 -18 -216.5t-59.5 -196t-103 -161.5t-155 -108t-209.5 -40q-117 0 -209.5 38t-154 103.5t-102 158.5t-58 197.5t-17.5 224.5zM270 705 q0 -592 377 -592q86 0 153 32.5t109 87t69 132t37.5 160.5t10.5 180q0 89 -11 167t-38 152.5t-69 128t-108.5 85.5t-152.5 32q-84 0 -150.5 -32.5t-108.5 -86.5t-69 -128.5t-38 -152.5t-11 -165zM371 1479v223h151v-223h-151zM780 1479v223h152v-223h-152z" />
<glyph unicode="&#xd7;" horiz-adv-x="907" d="M166 344l201 201l-193 192l86 86l193 -192l198 198l84 -84l-198 -200l200 -197l-88 -86l-196 197l-201 -201z" />
<glyph unicode="&#xd9;" horiz-adv-x="1220" d="M141 514v868h158v-850q0 -417 313 -417q306 0 306 417v850h159v-868q0 -89 -17 -167.5t-53.5 -146t-90.5 -116.5t-131.5 -76.5t-172.5 -27.5q-120 0 -212 42t-147.5 116t-83.5 168.5t-28 207.5zM365 1516l2 116l497 -63l-10 -92z" />
<glyph unicode="&#xda;" horiz-adv-x="1220" d="M141 514v868h158v-850q0 -417 313 -417q306 0 306 417v850h159v-868q0 -89 -17 -167.5t-53.5 -146t-90.5 -116.5t-131.5 -76.5t-172.5 -27.5q-120 0 -212 42t-147.5 116t-83.5 168.5t-28 207.5zM360 1569l498 63l2 -116l-489 -39z" />
<glyph unicode="&#xdb;" horiz-adv-x="1220" d="M141 514v868h158v-850q0 -417 313 -417q306 0 306 417v850h159v-868q0 -89 -17 -167.5t-53.5 -146t-90.5 -116.5t-131.5 -76.5t-172.5 -27.5q-120 0 -212 42t-147.5 116t-83.5 168.5t-28 207.5zM297 1559l313 186l314 -186l-41 -89l-273 140l-272 -140z" />
<glyph unicode="&#xdc;" horiz-adv-x="1220" d="M141 514v868h158v-850q0 -417 313 -417q306 0 306 417v850h159v-868q0 -89 -17 -167.5t-53.5 -146t-90.5 -116.5t-131.5 -76.5t-172.5 -27.5q-120 0 -212 42t-147.5 116t-83.5 168.5t-28 207.5zM330 1479v223h151v-223h-151zM739 1479v223h152v-223h-152z" />
<glyph unicode="&#xdd;" horiz-adv-x="1011" d="M16 1382h193l289 -671h8l319 671h170l-436 -843v-539h-160v541zM256 1569l498 63l2 -116l-490 -39z" />
<glyph unicode="&#xdf;" horiz-adv-x="1153" d="M61 885v119h160v86q0 167 105 262.5t286 95.5q162 0 258.5 -86.5t96.5 -224.5q0 -51 -15.5 -91.5t-39.5 -67.5t-53.5 -49.5t-59.5 -42t-54 -40t-39.5 -49.5t-15.5 -64q0 -40 23.5 -69.5t61 -48t83 -35t91 -39t83 -52.5t61 -81.5t23.5 -120.5q0 -127 -95.5 -217 t-256.5 -90q-148 0 -277 83v130q41 -33 127 -65t150 -32q95 0 148 50.5t53 132.5q0 50 -23 86.5t-60 58t-82 39.5t-90 39t-82 48t-60 74t-23 111q0 54 20 97t50.5 68.5t65.5 51.5t65.5 47.5t50.5 56.5t20 79q0 83 -57.5 135.5t-151.5 52.5q-111 0 -170 -62.5t-59 -183.5 v-1077h-158v885h-160z" />
<glyph unicode="&#xe0;" d="M96 287q0 132 93.5 209t261.5 77h260v80q0 129 -56 188.5t-172 59.5q-157 0 -303 -65l-41 112q174 76 365 76q358 0 358 -362v-662h-106l-27 129q-49 -63 -129.5 -106t-179.5 -43q-149 0 -236.5 87.5t-87.5 219.5zM248 293q0 -94 52.5 -147.5t158.5 -53.5 q70 0 137.5 35.5t114.5 89.5v250h-236q-227 0 -227 -174zM270 1303l31 116l455 -168l-25 -92z" />
<glyph unicode="&#xe1;" d="M96 287q0 132 93.5 209t261.5 77h260v80q0 129 -56 188.5t-172 59.5q-157 0 -303 -65l-41 112q174 76 365 76q358 0 358 -362v-662h-106l-27 129q-49 -63 -129.5 -106t-179.5 -43q-149 0 -236.5 87.5t-87.5 219.5zM248 293q0 -94 52.5 -147.5t158.5 -53.5 q70 0 137.5 35.5t114.5 89.5v250h-236q-227 0 -227 -174zM256 1251l453 168l30 -116l-460 -144z" />
<glyph unicode="&#xe2;" d="M96 287q0 132 93.5 209t261.5 77h260v80q0 129 -56 188.5t-172 59.5q-157 0 -303 -65l-41 112q174 76 365 76q358 0 358 -362v-662h-106l-27 129q-49 -63 -129.5 -106t-179.5 -43q-149 0 -236.5 87.5t-87.5 219.5zM184 1243l314 187l313 -187l-41 -88l-272 139l-273 -139 zM248 293q0 -94 52.5 -147.5t158.5 -53.5q70 0 137.5 35.5t114.5 89.5v250h-236q-227 0 -227 -174z" />
<glyph unicode="&#xe3;" d="M96 287q0 132 93.5 209t261.5 77h260v80q0 129 -56 188.5t-172 59.5q-157 0 -303 -65l-41 112q174 76 365 76q358 0 358 -362v-662h-106l-27 129q-49 -63 -129.5 -106t-179.5 -43q-149 0 -236.5 87.5t-87.5 219.5zM170 1233q22 87 89 129t159 8l194 -70q46 -17 80.5 -0.5 t52.5 60.5l80 -31q-11 -92 -71 -135t-150 -12l-203 71q-101 36 -147 -57zM248 293q0 -94 52.5 -147.5t158.5 -53.5q70 0 137.5 35.5t114.5 89.5v250h-236q-227 0 -227 -174z" />
<glyph unicode="&#xe4;" d="M96 287q0 132 93.5 209t261.5 77h260v80q0 129 -56 188.5t-172 59.5q-157 0 -303 -65l-41 112q174 76 365 76q358 0 358 -362v-662h-106l-27 129q-49 -63 -129.5 -106t-179.5 -43q-149 0 -236.5 87.5t-87.5 219.5zM215 1186v223h152v-223h-152zM248 293 q0 -94 52.5 -147.5t158.5 -53.5q70 0 137.5 35.5t114.5 89.5v250h-236q-227 0 -227 -174zM625 1186v223h151v-223h-151z" />
<glyph unicode="&#xe5;" d="M96 287q0 132 93.5 209t261.5 77h260v80q0 129 -56 188.5t-172 59.5q-157 0 -303 -65l-41 112q174 76 365 76q358 0 358 -362v-662h-106l-27 129q-49 -63 -129.5 -106t-179.5 -43q-149 0 -236.5 87.5t-87.5 219.5zM248 293q0 -94 52.5 -147.5t158.5 -53.5 q70 0 137.5 35.5t114.5 89.5v250h-236q-227 0 -227 -174zM254 1331q0 101 71.5 172.5t174.5 71.5q101 0 172 -71.5t71 -172.5q0 -103 -70.5 -173.5t-172.5 -70.5q-103 0 -174.5 70.5t-71.5 173.5zM360 1329q0 -59 40 -99t100 -40t99.5 40t39.5 99q0 60 -39.5 100.5 t-99.5 40.5t-100 -40.5t-40 -100.5z" />
<glyph unicode="&#xe6;" horiz-adv-x="1642" d="M94 287q0 131 94.5 205.5t262.5 74.5h260v86q0 248 -228 248q-156 0 -313 -70l-41 115q178 78 371 78q229 0 311 -170q109 170 330 170q103 0 181.5 -39t125 -106.5t69.5 -151.5t23 -182v-84h-676q0 -180 85 -270.5t233 -90.5q140 0 311 103l43 -109q-55 -34 -96 -54 t-116.5 -40t-156.5 -20q-138 0 -235 56t-141 152h-9q-49 -85 -146 -146.5t-216 -61.5q-148 0 -237 88t-89 219zM246 293q0 -94 52 -147.5t159 -53.5q77 0 145.5 41t108.5 100v230h-238q-227 0 -227 -170zM864 565h525q0 69 -13 127t-41 107.5t-79.5 77.5t-122.5 28 q-91 0 -153.5 -50.5t-89 -124.5t-26.5 -165z" />
<glyph unicode="&#xe7;" horiz-adv-x="948" d="M104 502q0 248 122 385t317 137q196 0 327 -80l-45 -110q-113 65 -274 65q-136 0 -213.5 -104t-77.5 -293q0 -402 291 -402q148 0 289 84l37 -116q-59 -34 -148 -61t-186 -27q-202 0 -320.5 127.5t-118.5 394.5zM418 -342q67 5 105 35t38 82q0 36 -28.5 63t-79.5 41 l10 27q128 0 193 -31t65 -104q0 -52 -29 -93.5t-76 -65t-97.5 -36t-100.5 -14.5v96z" />
<glyph unicode="&#xe8;" horiz-adv-x="1036" d="M102 508q0 240 113 378t317 138q83 0 150.5 -25.5t113.5 -70t77.5 -106t46 -131t14.5 -146.5v-88h-676q0 -180 84.5 -268.5t232.5 -88.5q144 0 312 101l39 -111q-181 -110 -367 -110q-210 0 -333.5 137t-123.5 391zM258 565h524q0 69 -13 127t-41 107.5t-79.5 77.5 t-122.5 28q-69 0 -122 -28.5t-84 -77.5t-46.5 -108t-15.5 -126zM295 1303l31 116l454 -168l-24 -92z" />
<glyph unicode="&#xe9;" horiz-adv-x="1036" d="M102 508q0 240 113 378t317 138q83 0 150.5 -25.5t113.5 -70t77.5 -106t46 -131t14.5 -146.5v-88h-676q0 -180 84.5 -268.5t232.5 -88.5q144 0 312 101l39 -111q-181 -110 -367 -110q-210 0 -333.5 137t-123.5 391zM258 565h524q0 69 -13 127t-41 107.5t-79.5 77.5 t-122.5 28q-69 0 -122 -28.5t-84 -77.5t-46.5 -108t-15.5 -126zM279 1251l452 168l31 -116l-461 -144z" />
<glyph unicode="&#xea;" horiz-adv-x="1036" d="M102 508q0 240 113 378t317 138q83 0 150.5 -25.5t113.5 -70t77.5 -106t46 -131t14.5 -146.5v-88h-676q0 -180 84.5 -268.5t232.5 -88.5q144 0 312 101l39 -111q-181 -110 -367 -110q-210 0 -333.5 137t-123.5 391zM209 1243l313 187l314 -187l-41 -88l-273 139 l-272 -139zM258 565h524q0 69 -13 127t-41 107.5t-79.5 77.5t-122.5 28q-69 0 -122 -28.5t-84 -77.5t-46.5 -108t-15.5 -126z" />
<glyph unicode="&#xeb;" horiz-adv-x="1036" d="M102 508q0 240 113 378t317 138q83 0 150.5 -25.5t113.5 -70t77.5 -106t46 -131t14.5 -146.5v-88h-676q0 -180 84.5 -268.5t232.5 -88.5q144 0 312 101l39 -111q-181 -110 -367 -110q-210 0 -333.5 137t-123.5 391zM240 1186v223h151v-223h-151zM258 565h524 q0 69 -13 127t-41 107.5t-79.5 77.5t-122.5 28q-69 0 -122 -28.5t-84 -77.5t-46.5 -108t-15.5 -126zM649 1186v223h152v-223h-152z" />
<glyph unicode="&#xec;" horiz-adv-x="505" d="M10 1303l31 116l455 -168l-25 -92zM104 901v103h263v-1004h-152v879z" />
<glyph unicode="&#xed;" horiz-adv-x="505" d="M16 1251l453 168l31 -116l-461 -144zM104 901v103h263v-1004h-152v879z" />
<glyph unicode="&#xee;" horiz-adv-x="505" d="M-59 1243l313 187l313 -187l-41 -88l-272 139l-272 -139zM104 901v103h263v-1004h-152v879z" />
<glyph unicode="&#xef;" horiz-adv-x="505" d="M-27 1186v223h152v-223h-152zM104 901v103h263v-1004h-152v879zM383 1186v223h152v-223h-152z" />
<glyph unicode="&#xf1;" horiz-adv-x="1040" d="M135 0v1004h105l30 -119q134 139 316 139q340 0 340 -391v-633h-160v606q0 148 -53 221.5t-176 73.5q-118 0 -246 -115v-786h-156zM195 1233q22 87 88.5 129t158.5 8l195 -70q46 -17 80.5 -0.5t52.5 60.5l80 -31q-11 -92 -71 -135t-150 -12l-203 71q-101 36 -147 -57z " />
<glyph unicode="&#xf2;" horiz-adv-x="1060" d="M100 504q0 151 45.5 266t144 184.5t238.5 69.5q204 0 318.5 -144.5t114.5 -375.5q0 -251 -115 -387.5t-318 -136.5q-205 0 -316.5 134.5t-111.5 389.5zM258 504q0 -408 270 -408q143 0 208 101t65 307q0 403 -273 403q-270 0 -270 -403zM307 1303l31 116l455 -168 l-25 -92z" />
<glyph unicode="&#xf3;" horiz-adv-x="1060" d="M100 504q0 151 45.5 266t144 184.5t238.5 69.5q204 0 318.5 -144.5t114.5 -375.5q0 -251 -115 -387.5t-318 -136.5q-205 0 -316.5 134.5t-111.5 389.5zM258 504q0 -408 270 -408q143 0 208 101t65 307q0 403 -273 403q-270 0 -270 -403zM289 1251l452 168l31 -116 l-461 -144z" />
<glyph unicode="&#xf4;" horiz-adv-x="1060" d="M100 504q0 151 45.5 266t144 184.5t238.5 69.5q204 0 318.5 -144.5t114.5 -375.5q0 -251 -115 -387.5t-318 -136.5q-205 0 -316.5 134.5t-111.5 389.5zM217 1243l313 187l314 -187l-41 -88l-273 139l-272 -139zM258 504q0 -408 270 -408q143 0 208 101t65 307 q0 403 -273 403q-270 0 -270 -403z" />
<glyph unicode="&#xf5;" horiz-adv-x="1060" d="M100 504q0 151 45.5 266t144 184.5t238.5 69.5q204 0 318.5 -144.5t114.5 -375.5q0 -251 -115 -387.5t-318 -136.5q-205 0 -316.5 134.5t-111.5 389.5zM205 1233q22 87 89 129t159 8l194 -70q46 -17 80.5 -0.5t52.5 60.5l80 -31q-11 -92 -71 -135t-150 -12l-203 71 q-101 36 -147 -57zM258 504q0 -408 270 -408q143 0 208 101t65 307q0 403 -273 403q-270 0 -270 -403z" />
<glyph unicode="&#xf6;" horiz-adv-x="1060" d="M100 504q0 151 45.5 266t144 184.5t238.5 69.5q204 0 318.5 -144.5t114.5 -375.5q0 -251 -115 -387.5t-318 -136.5q-205 0 -316.5 134.5t-111.5 389.5zM250 1186v223h151v-223h-151zM258 504q0 -408 270 -408q143 0 208 101t65 307q0 403 -273 403q-270 0 -270 -403z M659 1186v223h152v-223h-152z" />
<glyph unicode="&#xf7;" horiz-adv-x="935" d="M137 502v112h660v-112h-660zM391 39v225h150v-225h-150zM391 829v226h150v-226h-150z" />
<glyph unicode="&#xf9;" horiz-adv-x="1034" d="M123 387v617h156v-607q0 -156 53 -224.5t174 -68.5q130 0 248 99v801h157v-1004h-108l-23 115q-46 -52 -127.5 -93.5t-183.5 -41.5q-169 0 -257.5 102t-88.5 305zM274 1303l31 116l455 -168l-25 -92z" />
<glyph unicode="&#xfa;" horiz-adv-x="1034" d="M123 387v617h156v-607q0 -156 53 -224.5t174 -68.5q130 0 248 99v801h157v-1004h-108l-23 115q-46 -52 -127.5 -93.5t-183.5 -41.5q-169 0 -257.5 102t-88.5 305zM274 1251l453 168l31 -116l-461 -144z" />
<glyph unicode="&#xfb;" horiz-adv-x="1034" d="M123 387v617h156v-607q0 -156 53 -224.5t174 -68.5q130 0 248 99v801h157v-1004h-108l-23 115q-46 -52 -127.5 -93.5t-183.5 -41.5q-169 0 -257.5 102t-88.5 305zM203 1243l313 187l313 -187l-41 -88l-272 139l-272 -139z" />
<glyph unicode="&#xfc;" horiz-adv-x="1034" d="M123 387v617h156v-607q0 -156 53 -224.5t174 -68.5q130 0 248 99v801h157v-1004h-108l-23 115q-46 -52 -127.5 -93.5t-183.5 -41.5q-169 0 -257.5 102t-88.5 305zM236 1186v223h151v-223h-151zM645 1186v223h152v-223h-152z" />
<glyph unicode="&#xfd;" horiz-adv-x="964" d="M-10 -332l51 105h12q81 -64 168 -64q88 0 144.5 59t103.5 201l12 37l-102 -8l-322 1006h172q189 -612 275 -912l272 912h160l-322 -994q-77 -237 -166 -329.5t-235 -92.5q-59 0 -124 25.5t-99 54.5zM240 1251l452 168l31 -116l-461 -144z" />
<glyph unicode="&#xff;" horiz-adv-x="966" d="M-8 -332l51 105h12q81 -64 168 -64q88 0 144.5 59t103.5 201l12 37l-102 -8l-322 1006h172q189 -612 275 -912l272 912h160l-322 -994q-77 -237 -166 -329.5t-235 -92.5q-59 0 -124 25.5t-99 54.5zM203 1186v223h151v-223h-151zM612 1186v223h152v-223h-152z" />
<glyph unicode="&#x152;" horiz-adv-x="1875" d="M106 702q0 115 16.5 214.5t56.5 190.5t100.5 155.5t154 102.5t211.5 38q246 0 379 -191l-2 170h764v-137h-606v-475h479l-21 -139h-458v-500h606v-131h-764l2 188q-134 -208 -379 -208q-117 0 -209 38t-153.5 103.5t-101.5 158.5t-57.5 197t-17.5 225zM270 705 q0 -592 375 -592q373 0 373 592q0 90 -10 167.5t-36.5 152.5t-67.5 127.5t-107 85t-152 32.5q-71 0 -129 -22.5t-98 -63t-69.5 -93t-46 -117.5t-24.5 -131t-8 -138z" />
<glyph unicode="&#x153;" horiz-adv-x="1736" d="M100 504q0 151 45.5 266t144 184.5t238.5 69.5q238 0 351 -215q110 215 356 215q103 0 181.5 -39t125 -106.5t69.5 -151.5t23 -182v-86h-676q0 -180 86 -269.5t234 -89.5q135 0 311 103l39 -111q-189 -112 -366 -112q-261 0 -377 215q-110 -215 -357 -215 q-205 0 -316.5 134.5t-111.5 389.5zM258 504q0 -408 270 -408q143 0 208 101t65 307q0 403 -273 403q-270 0 -270 -403zM958 563h527q0 69 -13 127.5t-41 108t-79.5 78t-122.5 28.5q-70 0 -123.5 -29t-85 -78t-47 -108.5t-15.5 -126.5z" />
<glyph unicode="&#x178;" horiz-adv-x="1011" d="M16 1382h193l289 -671h8l319 671h170l-436 -843v-539h-160v541zM225 1479v223h152v-223h-152zM635 1479v223h151v-223h-151z" />
<glyph unicode="&#x2c6;" horiz-adv-x="1052" d="M213 1243l313 187l314 -187l-41 -88l-273 139l-272 -139z" />
<glyph unicode="&#x2dc;" horiz-adv-x="1218" d="M281 1233q22 87 88.5 129t158.5 8l195 -70q46 -17 80.5 -0.5t52.5 60.5l80 -31q-11 -92 -71 -135t-150 -12l-203 71q-101 36 -147 -57z" />
<glyph unicode="&#x2000;" horiz-adv-x="961" />
<glyph unicode="&#x2001;" horiz-adv-x="1923" />
<glyph unicode="&#x2002;" horiz-adv-x="961" />
<glyph unicode="&#x2003;" horiz-adv-x="1923" />
<glyph unicode="&#x2004;" horiz-adv-x="641" />
<glyph unicode="&#x2005;" horiz-adv-x="480" />
<glyph unicode="&#x2006;" horiz-adv-x="320" />
<glyph unicode="&#x2007;" horiz-adv-x="320" />
<glyph unicode="&#x2008;" horiz-adv-x="240" />
<glyph unicode="&#x2009;" horiz-adv-x="384" />
<glyph unicode="&#x200a;" horiz-adv-x="106" />
<glyph unicode="&#x2010;" horiz-adv-x="946" d="M143 508v108h660v-108h-660z" />
<glyph unicode="&#x2011;" horiz-adv-x="946" d="M143 508v108h660v-108h-660z" />
<glyph unicode="&#x2012;" horiz-adv-x="946" d="M143 508v108h660v-108h-660z" />
<glyph unicode="&#x2013;" horiz-adv-x="964" d="M152 512v113h659v-113h-659z" />
<glyph unicode="&#x2014;" horiz-adv-x="1544" d="M150 510v115h1245v-115h-1245z" />
<glyph unicode="&#x2018;" horiz-adv-x="440" d="M78 852q3 165 46.5 299t121.5 262l116 -27q-119 -233 -122 -534h-162z" />
<glyph unicode="&#x2019;" horiz-adv-x="440" d="M78 879q121 237 121 534h163q-3 -167 -46 -301t-121 -260z" />
<glyph unicode="&#x201a;" horiz-adv-x="440" d="M78 -326q121 240 121 535h163q-3 -166 -46 -299.5t-121 -259.5z" />
<glyph unicode="&#x201c;" horiz-adv-x="681" d="M76 852q2 278 174 561l117 -27q-126 -240 -129 -534h-162zM340 852q3 302 147 555l117 -27q-99 -199 -102 -528h-162z" />
<glyph unicode="&#x201d;" horiz-adv-x="681" d="M78 885q99 199 102 528h162q-3 -302 -147 -555zM315 879q126 240 129 534h162q-2 -284 -174 -561z" />
<glyph unicode="&#x201e;" horiz-adv-x="681" d="M78 -311q99 199 102 528h162q-3 -304 -147 -553zM315 -317q126 240 129 534h162q-2 -282 -174 -559z" />
<glyph unicode="&#x2022;" horiz-adv-x="737" d="M295 377q-54 276 0 510h145q58 -229 0 -510h-145z" />
<glyph unicode="&#x2026;" horiz-adv-x="1105" d="M106 0v229h154v-229h-154zM475 0v229h156v-229h-156zM846 0v229h153v-229h-153z" />
<glyph unicode="&#x202f;" horiz-adv-x="384" />
<glyph unicode="&#x2039;" horiz-adv-x="548" d="M82 438l297 365l96 -80l-209 -285l209 -307q-13 -8 -52 -37.5t-44 -32.5q-25 33 -148 188.5t-149 188.5z" />
<glyph unicode="&#x203a;" horiz-adv-x="548" d="M74 131l209 307l-209 285l96 80l295 -365l-295 -377z" />
<glyph unicode="&#x205f;" horiz-adv-x="480" />
<glyph unicode="&#x20ac;" horiz-adv-x="1054" d="M102 522v105h121q-2 20 -2 61q0 43 2 66h-121v104h136q35 179 145 272t256 93q166 0 299 -68l-33 -117q-115 62 -258 62q-96 0 -161 -62.5t-91 -179.5h289l-14 -104h-289q-2 -20 -2 -66q0 -41 2 -61h270l-12 -105h-248q22 -137 86 -195.5t170 -58.5q140 0 268 82l31 -117 q-150 -86 -307 -86q-346 0 -406 375h-131z" />
<glyph unicode="&#x2122;" horiz-adv-x="1695" d="M242 823l432 41l174 400l172 -400l434 -41l-328 -286l97 -426l-375 223l-375 -223l94 426z" />
<glyph unicode="&#x25fc;" horiz-adv-x="1003" d="M0 0v1004h1004v-1004h-1004z" />
<glyph unicode="&#xfb01;" horiz-adv-x="1081" d="M61 885v119h160v90q0 174 82.5 264t247.5 90q63 0 149 -21v-127q-59 19 -135 19q-101 0 -145.5 -57t-44.5 -179v-79h571v-1004h-153v885h-418v-885h-154v885h-160zM778 1235v164h164v-164h-164z" />
<glyph unicode="&#xfb02;" horiz-adv-x="1183" d="M61 885v119h160v90q0 174 83.5 264t250.5 90q68 0 154 -21l-13 -127q-59 19 -129 19q-100 0 -146 -57.5t-46 -178.5v-79h235v-119h-235v-885h-154v885h-160zM788 279v1134h154v-1194q0 -65 34.5 -93t115.5 -28h32v-106q-49 -12 -98 -12q-60 0 -102.5 13.5t-69 37 t-41.5 62.5t-20 82t-5 104z" />
<glyph unicode="&#xfb03;" horiz-adv-x="1617" d="M61 885v119h160v90q0 174 83.5 264t250.5 90q68 0 154 -21l-13 -127q-59 19 -129 19q-98 0 -145 -58.5t-47 -177.5v-79h383v90q0 354 329 354q64 0 150 -21v-127q-59 19 -137 19q-98 0 -143.5 -58.5t-45.5 -177.5v-79h570v-1004h-152v885h-418v-885h-153v885h-383v-885 h-154v885h-160zM1313 1235v164h166v-164h-166z" />
<glyph unicode="&#xfb04;" horiz-adv-x="1720" d="M61 885v119h160v90q0 174 83.5 264t250.5 90q68 0 154 -21l-13 -127q-59 19 -129 19q-98 0 -145 -58.5t-47 -177.5v-79h383v90q0 174 83.5 264t250.5 90q64 0 153 -21l-12 -127q-59 19 -129 19q-193 0 -193 -236v-79h234v-119h-234v-885h-153v885h-383v-885h-154v885 h-160zM1323 279v1134h156v-1194q0 -65 35 -93t114 -28h33v-106q-49 -12 -98 -12q-74 0 -122.5 19.5t-74 60.5t-34.5 92t-9 127z" />
</font>
</defs>
</svg>
