<?xml version="1.0" standalone="no"?>
<!DOCTYPE svg PUBLIC "-//W3C//DTD SVG 1.1//EN" "http://www.w3.org/Graphics/SVG/1.1/DTD/svg11.dtd" >
<svg xmlns="http://www.w3.org/2000/svg">
<metadata></metadata>
<defs>
<font id="gobclheavy" horiz-adv-x="1208" >
<font-face units-per-em="2048" ascent="1597" descent="-451" />
<missing-glyph horiz-adv-x="450" />
<glyph horiz-adv-x="2048" />
<glyph horiz-adv-x="2048" />
<glyph unicode="&#xd;" horiz-adv-x="2048" />
<glyph unicode=" "  horiz-adv-x="450" />
<glyph unicode="&#x09;" horiz-adv-x="450" />
<glyph unicode="&#xa0;" horiz-adv-x="450" />
<glyph unicode="!" horiz-adv-x="589" d="M457 1413v-459l-45 -487h-234l-45 487v459h324zM133 0v313h318v-313h-318z" />
<glyph unicode="&#x22;" horiz-adv-x="819" d="M379 1413l-41 -635h-232l-34 635h307zM748 1413l-41 -635h-232l-35 635h308z" />
<glyph unicode="#" d="M971 1196l-45 -235h98v-232h-143l-29 -154h172v-233h-217l-39 -207h-186l39 207h-148l-39 -207h-186l39 207h-103v233h148l28 154h-176v232h222l45 235h186l-45 -235h147l45 235h187zM547 729l-29 -154h148l28 154h-147z" />
<glyph unicode="$" horiz-adv-x="1026" d="M676 -20h-299l6 192q-137 12 -229 64l59 223q40 -25 104 -44.5t125 -19.5q56 0 88.5 22t32.5 60q0 29 -22 52.5t-57 41t-77 36t-84.5 44.5t-77.5 60t-57 88.5t-22 124.5q0 93 53 162.5t162 101.5l-8 225h299l-8 -205q105 -9 186 -34l-37 -236q-105 45 -233 45 q-111 0 -111 -63q0 -25 22 -45.5t58 -36.5t79 -33.5t85.5 -42t78.5 -56.5t58 -83.5t22 -116.5q0 -104 -52 -183t-152 -120z" />
<glyph unicode="%" horiz-adv-x="2048" d="M82 946q0 231 101 348t290 117q192 0 295.5 -117t103.5 -348q0 -448 -399 -448q-391 0 -391 448zM395 946q0 -134 18 -190t60 -56q49 0 67.5 54.5t18.5 191.5q0 152 -18 207t-68 55q-43 0 -60.5 -56t-17.5 -206zM1176 428q0 231 101 348t290 117q192 0 295.5 -117 t103.5 -348q0 -448 -399 -448q-391 0 -391 448zM1489 428q0 -134 18 -190t60 -56q49 0 67.5 54.5t18.5 191.5q0 152 -18 207t-68 55q-43 0 -60.5 -56t-17.5 -206zM1319 1460l-500 -1552h-94l500 1552h94z" />
<glyph unicode="&#x26;" horiz-adv-x="1320" d="M938 1106q0 -45 -8 -84.5t-19 -69t-33.5 -59.5t-39 -47.5t-49.5 -43t-50.5 -37t-56.5 -36.5l186 -242q58 96 86 240l281 -61q-40 -228 -172 -416l197 -250h-377l-66 92q-46 -52 -127.5 -82t-181.5 -30q-68 0 -130.5 13.5t-120.5 45t-100.5 79t-68 121t-25.5 164.5 q0 125 58 214t160 161l-21 29q-96 127 -96 280q0 148 111 232t278 84q169 0 277 -79t108 -218zM561 242q29 0 60.5 11t46.5 26l-222 280q-55 -68 -55 -153q0 -88 50 -126t120 -38zM459 1073q0 -62 43 -112l28 -39q134 76 134 147q0 51 -27 81t-78 30q-44 0 -72 -30.5 t-28 -76.5z" />
<glyph unicode="'" horiz-adv-x="450" d="M379 1413l-41 -635h-232l-34 635h307z" />
<glyph unicode="(" horiz-adv-x="667" d="M61 698q0 226 111 452.5t291 369.5l164 -170q-122 -111 -178 -285.5t-56 -366.5t56 -366t178 -285l-164 -170q-180 143 -291 369t-111 452z" />
<glyph unicode=")" horiz-adv-x="667" d="M606 698q0 -226 -110.5 -452.5t-290.5 -368.5l-164 170q122 111 177.5 284.5t55.5 366.5t-55.5 367t-177.5 285l164 170q180 -142 290.5 -369t110.5 -453z" />
<glyph unicode="*" horiz-adv-x="1003" d="M932 1006l-215 -68l133 -186l-215 -154l-133 184l-133 -184l-215 154l135 184l-217 70l82 249l217 -69v227h262v-227l219 69z" />
<glyph unicode="+" horiz-adv-x="1046" d="M913 473h-286v-285h-226v285h-268v209h268v272h226v-272h286v-209z" />
<glyph unicode="," horiz-adv-x="512" d="M92 41v278h328v-342q0 -245 -328 -274v188q31 3 51.5 30.5t20.5 78.5z" />
<glyph unicode="-" horiz-adv-x="1034" d="M891 446h-748v203h748v-203z" />
<glyph unicode="." horiz-adv-x="491" d="M82 0v319h328v-319h-328z" />
<glyph unicode="/" horiz-adv-x="614" d="M604 1460l-500 -1552h-94l500 1552h94z" />
<glyph unicode="0" d="M600 -20q-91 0 -164.5 19.5t-127 54t-93.5 86.5t-65 111t-40.5 134.5t-21.5 150.5t-6 164q0 123 13 222.5t48.5 193.5t92.5 157.5t149.5 101.5t214.5 38q91 0 166 -20t129 -55t95 -87.5t66.5 -112t41.5 -133.5t22 -147t6 -158q0 -103 -10 -189.5t-32 -170.5t-62 -147.5 t-97 -112.5t-139 -74.5t-186 -25.5zM600 238q45 0 77.5 19.5t53.5 55.5t34 94t18 128t5 165q0 237 -42.5 346t-145.5 109q-102 0 -141 -108.5t-39 -346.5q0 -239 40 -350.5t140 -111.5z" />
<glyph unicode="1" d="M258 0v244h266v592q1 112 11 198q-54 -66 -147 -105t-179 -46l-39 252q281 71 428 258h246v-1149h252v-244h-838z" />
<glyph unicode="2" d="M492 1151q-70 0 -150 -19t-133 -47l-88 238q191 90 424 90q236 0 383 -110.5t147 -288.5q0 -120 -52.5 -233.5t-183 -247.5t-347.5 -285q97 20 225 20h364v-268h-946v242q184 136 308 249.5t185.5 198.5t85 145.5t23.5 118.5q0 84 -64.5 140.5t-180.5 56.5z" />
<glyph unicode="3" d="M698 1004q0 71 -53 109t-151 38q-61 0 -139.5 -17t-129.5 -44l-90 237q190 86 426 86q213 0 344 -97.5t131 -244.5q0 -140 -78 -229t-186 -115v-10q136 -14 220.5 -94t84.5 -224q0 -125 -76 -222.5t-193 -147t-249 -49.5q-226 0 -426 100l74 252q52 -30 144.5 -57 t164.5 -27q101 0 165 44.5t64 135.5q0 152 -227 152h-94v247h65q104 0 156.5 49t52.5 128z" />
<glyph unicode="4" d="M1116 315h-153v-315h-320v315h-561v191l557 887h324v-820h153v-258zM369 573h274v433z" />
<glyph unicode="5" d="M1087 510q0 -101 -31.5 -188.5t-84.5 -149t-122.5 -105.5t-146 -65.5t-153.5 -21.5q-230 0 -434 102l75 252q51 -30 148.5 -58t169.5 -28q112 0 177 58t65 179q0 101 -52.5 155t-140.5 54q-56 0 -98.5 -22.5t-83.5 -65.5l-238 68v719h836l-23 -263h-495v-137 q0 -88 -21 -153q99 110 273 110q74 0 141 -27.5t121 -80t86 -138.5t32 -194z" />
<glyph unicode="6" d="M698 1163q-120 0 -197.5 -89t-94.5 -253q103 140 311 140q180 0 291.5 -124t111.5 -333q0 -108 -35 -203t-99.5 -166.5t-162 -113t-215.5 -41.5q-89 0 -165.5 25.5t-143 83t-113.5 144t-73.5 215t-26.5 289.5q0 158 47 288t127.5 213.5t187 129t226.5 45.5q185 0 340 -49 l-56 -248q-108 47 -260 47zM608 711q-65 0 -119 -32t-79 -97q30 -353 198 -353q89 0 137 65.5t48 184.5q0 111 -48 171.5t-137 60.5z" />
<glyph unicode="7" d="M1083 1120l-561 -1120h-370l593 1120h-618v273h956v-273z" />
<glyph unicode="8" d="M1081 1061q0 -180 -231 -291q58 -24 102 -52t83 -69t60 -99t21 -130q0 -90 -33.5 -168.5t-96.5 -139.5t-163 -96.5t-225 -35.5q-234 0 -370 116t-136 301q0 96 71 174.5t191 122.5q-108 53 -169.5 135.5t-61.5 214.5q0 92 39 164t106 116t151 66.5t179 22.5 q130 0 239 -41.5t176.5 -123t67.5 -187.5zM784 420q0 27 -8.5 50.5t-29.5 42.5t-39.5 33t-56 30t-60 24.5t-68.5 24.5q-48 -46 -75 -101.5t-27 -101.5q0 -98 53.5 -150.5t124.5 -52.5q79 0 132.5 51t53.5 150zM446 1042q0 -42 17.5 -75t54.5 -58t73.5 -41.5t92.5 -36.5 q74 90 74 201q0 65 -46.5 100t-113.5 35q-59 0 -105.5 -33.5t-46.5 -91.5z" />
<glyph unicode="9" d="M543 451q-95 0 -177 31t-144 89t-98 150t-36 207q0 220 141 352.5t367 132.5q251 0 387.5 -165.5t136.5 -495.5q0 -385 -144 -578.5t-411 -193.5q-242 0 -430 94l76 260q57 -35 145.5 -64.5t171.5 -29.5q118 0 188.5 72t84.5 245q-109 -106 -258 -106zM600 1163 q-89 0 -136.5 -58.5t-47.5 -166.5q0 -219 200 -219q99 0 195 57q0 91 -10 158t-33 120.5t-65 81t-103 27.5z" />
<glyph unicode=":" horiz-adv-x="512" d="M92 0v319h328v-319h-328zM92 684v320h328v-320h-328z" />
<glyph unicode=";" horiz-adv-x="512" d="M92 684v320h328v-320h-328zM92 41v278h328v-342q0 -245 -328 -274v188q31 3 51.5 30.5t20.5 78.5z" />
<glyph unicode="&#x3c;" horiz-adv-x="819" d="M61 827l697 291v-350l-500 -174v-8l500 -174v-338l-697 282v471z" />
<glyph unicode="=" horiz-adv-x="1034" d="M911 682h-788v231h788v-231zM911 266h-788v234h788v-234z" />
<glyph unicode="&#x3e;" horiz-adv-x="819" d="M61 1118l697 -291v-471l-697 -282v338l500 174v8l-500 174v350z" />
<glyph unicode="?" horiz-adv-x="905" d="M864 1047q0 -64 -17.5 -120.5t-45 -99t-60.5 -81t-66.5 -72.5t-61 -67t-45 -71.5t-17.5 -78.5v-29h-293v45q0 64 14.5 117t37.5 89.5t51 68t56 58.5t51 54t37.5 62.5t14.5 76.5q0 60 -40.5 98t-114.5 38q-120 0 -244 -52l-80 252q181 78 385 78q194 0 316 -98.5 t122 -267.5zM246 0v313h317v-313h-317z" />
<glyph unicode="@" horiz-adv-x="2048" d="M1026 0l12 100q-101 -120 -256 -120q-55 0 -104.5 25t-90.5 75t-65 135t-24 195q0 125 38.5 234t102.5 182t147 115t172 42q151 0 230 -106l47 86h217l-106 -963q20 -4 36 -4q65 0 131 36t120.5 99.5t89 163t34.5 215.5q0 143 -50.5 266t-141 212t-223.5 139.5t-291 50.5 q-157 0 -298.5 -60t-241.5 -161.5t-159 -241t-59 -293.5q0 -309 188 -531h-194q-166 261 -166 531q0 151 45.5 291.5t130.5 254.5t199 199.5t257 132t298 46.5q195 0 359.5 -62.5t278 -173t177 -265.5t63.5 -335q0 -152 -52.5 -281t-137 -212.5t-188.5 -130t-210 -46.5 q-112 0 -201.5 47.5t-113.5 112.5zM956 215q48 0 101 31l61 479q-41 18 -86 18q-34 0 -67.5 -17.5t-65 -54t-51 -105t-19.5 -158.5q0 -193 127 -193z" />
<glyph unicode="A" horiz-adv-x="1282" d="M893 0l-66 291h-432l-61 -291h-324l379 1382h504l379 -1382h-379zM582 1098l-129 -549h317l-117 549h-71z" />
<glyph unicode="B" d="M1157 408q0 -191 -153 -309.5t-400 -118.5q-144 0 -250.5 18.5t-220.5 58.5v1325h449q231 0 367 -93.5t136 -270.5q0 -111 -60 -187t-161 -106v-10q131 -26 212 -107t81 -200zM743 985q0 135 -178 135h-108v-297h108q91 0 134.5 35t43.5 127zM817 422q0 164 -190 164 h-170v-318q71 -22 147 -22q92 0 152.5 43t60.5 133z" />
<glyph unicode="C" horiz-adv-x="1239" d="M1178 129q-219 -149 -494 -149q-297 0 -454.5 182.5t-157.5 535.5q0 214 66 370.5t205 245.5t341 89q310 0 492 -119l-121 -260q-54 41 -141 66.5t-191 25.5q-155 0 -232 -101.5t-77 -314.5q0 -223 75.5 -327.5t229.5 -104.5q91 0 186 35t170 90z" />
<glyph unicode="D" horiz-adv-x="1404" d="M1305 707q0 -346 -160.5 -536.5t-497.5 -190.5q-254 0 -514 75v1327h500q128 0 228.5 -20.5t185.5 -69t140.5 -125.5t86.5 -192.5t31 -267.5zM961 707q0 229 -74.5 322t-263.5 93h-166v-843q92 -27 209 -27q49 0 88.5 10.5t79.5 40.5t67 79t43.5 131.5t16.5 193.5z" />
<glyph unicode="E" horiz-adv-x="1107" d="M1026 0h-893v1382h893v-272h-569v-272h426l-21 -285h-405v-283h569v-270z" />
<glyph unicode="F" horiz-adv-x="1077" d="M1026 1110h-569v-311h426l-21 -285h-405v-514h-324v1382h893v-272z" />
<glyph unicode="G" horiz-adv-x="1337" d="M1243 725v-616q-144 -66 -266 -97.5t-252 -31.5q-317 0 -480 193.5t-163 531.5q0 331 166 514.5t493 183.5q287 0 482 -131l-138 -244q-132 90 -337 90q-322 0 -322 -409q0 -231 79.5 -344t239.5 -113q121 0 201 39v198h-164l-20 236h481z" />
<glyph unicode="H" horiz-adv-x="1372" d="M1239 0h-326v549h-454v-549h-326v1382h326v-540h454v540h326v-1382z" />
<glyph unicode="I" horiz-adv-x="630" d="M477 0h-323v1382h323v-1382z" />
<glyph unicode="J" horiz-adv-x="931" d="M778 1382v-921q0 -226 -97.5 -353.5t-287.5 -127.5q-192 0 -342 59l58 283q110 -54 219 -54q59 0 92 37.5t33 110.5v966h325z" />
<glyph unicode="K" horiz-adv-x="1228" d="M432 817l379 565h385l-494 -657l527 -725h-420l-375 584h-2l25 -320v-264h-324v1382h324v-258z" />
<glyph unicode="L" horiz-adv-x="1046" d="M1026 0h-893v1382h324v-1110h569v-272z" />
<glyph unicode="M" horiz-adv-x="1794" d="M1071 0h-448l-134 657q-50 260 -77 420h-11l-16 -1077h-293l53 1382h541q127 -637 188 -1091h9q35 203 92 476t97 444l40 171h535l55 -1382h-375l-24 1077h-11q-40 -238 -82 -420z" />
<glyph unicode="N" horiz-adv-x="1421" d="M1288 0h-514l-375 1079h-8l31 -1079h-289v1382h498l385 -1106h8l-31 1106h295v-1382z" />
<glyph unicode="O" horiz-adv-x="1366" d="M1294 702q0 -118 -17 -218.5t-60 -195.5t-111 -161.5t-176.5 -106.5t-249.5 -40t-249 40t-175 106.5t-109.5 162t-58.5 195.5t-16 218q0 701 608 701q121 0 218 -26t163 -75t112.5 -112t72.5 -144.5t37 -164t11 -179.5zM950 705q0 96 -12.5 168t-41.5 130.5t-83.5 89.5 t-132.5 31q-63 0 -110 -21.5t-76.5 -57.5t-47.5 -91t-25 -114.5t-7 -134.5q0 -83 7.5 -148.5t25.5 -124t48 -97t76.5 -61t108.5 -22.5q76 0 130 33t84 95.5t43 141.5t13 183z" />
<glyph unicode="P" horiz-adv-x="1146" d="M569 457h-123v-457h-323v1382h446q111 0 208 -27.5t172.5 -80.5t119 -139.5t43.5 -196.5q0 -97 -37 -184t-104.5 -153t-171.5 -105t-230 -39zM768 924q0 85 -53.5 135.5t-149.5 50.5h-119v-403h119q95 0 149 62t54 155z" />
<glyph unicode="Q" horiz-adv-x="1386" d="M1305 702q0 -128 -45.5 -258.5t-136.5 -243t-210 -169.5q136 -15 426 -15v-313q-194 0 -366 79t-283 198q-141 0 -249 40t-175 106.5t-109.5 162t-58.5 195.5t-16 218q0 701 608 701q104 0 190.5 -20t149.5 -55t111 -86.5t79 -110t50 -131t27 -144.5t8 -154zM961 705 q0 96 -12.5 168t-42 130.5t-84 89.5t-132.5 31q-63 0 -110 -21.5t-76.5 -57.5t-47.5 -91t-25 -114.5t-7 -134.5q0 -83 7.5 -148.5t25.5 -124t48 -97t76.5 -61t108.5 -22.5q76 0 130 33t84 95.5t43.5 141.5t13.5 183z" />
<glyph unicode="R" horiz-adv-x="1193" d="M764 0l-203 504h-106v-504h-322v1382h481q106 0 194.5 -25t156.5 -75t106.5 -132t38.5 -189q0 -133 -68 -239.5t-184 -162.5l283 -559h-377zM766 961q0 91 -49.5 131.5t-155.5 40.5h-106v-379h106q113 0 159 51t46 156z" />
<glyph unicode="S" horiz-adv-x="1150" d="M1047 1311l-109 -260q-133 71 -317 71q-89 0 -133 -29.5t-44 -78.5q0 -42 34.5 -74t89.5 -54.5t122 -45.5t133.5 -56t121.5 -77.5t89.5 -118.5t34.5 -170q0 -85 -36 -163.5t-101.5 -140t-165.5 -98t-219 -36.5q-261 0 -465 151l121 246q62 -53 158.5 -89t187.5 -36 q83 0 132.5 40t49.5 103q0 45 -26.5 79t-70 54t-99.5 41.5t-114 40.5t-114 52.5t-99.5 75.5t-70 112t-26.5 160q0 171 134 282t380 111q237 0 422 -92z" />
<glyph unicode="T" horiz-adv-x="1032" d="M1012 1110h-328v-1110h-334v1110h-330v272h992v-272z" />
<glyph unicode="U" horiz-adv-x="1359" d="M1227 1382v-854q0 -88 -20 -168t-63 -150t-106 -120.5t-154.5 -80t-203.5 -29.5q-139 0 -245.5 43t-171.5 119t-97.5 173.5t-32.5 212.5v854h324v-837q0 -133 58.5 -212t164.5 -79q104 0 161.5 79.5t57.5 211.5v837h328z" />
<glyph unicode="V" horiz-adv-x="1304" d="M391 1382l271 -1101h10l268 1101h354l-403 -1382h-475l-406 1382h381z" />
<glyph unicode="W" horiz-adv-x="1878" d="M532 274l213 1108h472l174 -1108h8l135 1108h334l-252 -1382h-502l-166 1096h-4l-213 -1096h-469l-252 1382h375l141 -1108h6z" />
<glyph unicode="X" horiz-adv-x="1306" d="M63 1382h396l219 -456l219 456h393l-452 -686l426 -696h-398l-235 446l-221 -446h-394l457 686z" />
<glyph unicode="Y" horiz-adv-x="1257" d="M1247 1382l-479 -917v-465h-326v467l-432 915h414l217 -598h10l242 598h354z" />
<glyph unicode="Z" horiz-adv-x="1228" d="M1120 1112l-628 -842h630v-270h-1016v254l623 856h-618v272h1009v-270z" />
<glyph unicode="[" horiz-adv-x="663" d="M633 -268h-510v1814h510v-291h-180v-1232h180v-291z" />
<glyph unicode="\" horiz-adv-x="614" d="M510 -92l-500 1552h94l500 -1552h-94z" />
<glyph unicode="]" horiz-adv-x="663" d="M541 -268h-510v291h178v1232h-178v291h510v-1814z" />
<glyph unicode="^" horiz-adv-x="1126" d="M989 1280l-98 -160l-330 156l-332 -156l-92 160l344 217h170z" />
<glyph unicode="_" horiz-adv-x="1343" d="M1245 2h-1147v213h1147v-213z" />
<glyph unicode="`" horiz-adv-x="1126" d="M901 1159l-559 82l37 238l551 -136z" />
<glyph unicode="a" horiz-adv-x="1054" d="M963 0h-222l-41 115q-39 -57 -113 -96t-171 -39q-152 0 -248 89.5t-96 239.5q0 144 102.5 222.5t288.5 78.5h186v37q0 131 -151 131q-156 0 -299 -65l-80 229q194 82 409 82q228 0 331.5 -98.5t103.5 -300.5v-625zM649 238v186h-129q-64 0 -97.5 -28.5t-33.5 -78.5 q0 -58 31 -89t90 -31q68 0 139 41z" />
<glyph unicode="b" horiz-adv-x="1150" d="M342 127l-59 -127h-170v1413h323v-330l-18 -176q27 45 98.5 81t151.5 36q86 0 159 -31.5t130 -93t89.5 -162.5t32.5 -231q0 -125 -37.5 -226.5t-100.5 -166t-143 -99t-167 -34.5q-111 0 -176.5 36t-112.5 111zM436 727v-414q25 -41 66 -68.5t86 -27.5q74 0 121 68t47 219 q0 159 -44.5 223t-121.5 64q-40 0 -82.5 -18.5t-71.5 -45.5z" />
<glyph unicode="c" horiz-adv-x="993" d="M942 942l-82 -217q-102 57 -239 57q-95 0 -146 -64.5t-51 -213.5q0 -148 49 -213.5t150 -65.5q66 0 137.5 21.5t124.5 50.5l57 -229q-57 -31 -152 -59.5t-198 -28.5q-241 0 -370.5 134t-129.5 390q0 244 130.5 382t367.5 138q203 0 352 -82z" />
<glyph unicode="d" horiz-adv-x="1161" d="M518 1024q162 0 242 -102q-33 85 -33 192v299h322v-1413h-269l-32 106q-29 -49 -96 -87.5t-158 -38.5q-86 0 -159 31t-130.5 92.5t-90 163.5t-32.5 235q0 125 35.5 226t96 164.5t138.5 97.5t166 34zM727 279v466q-72 39 -152 39q-81 0 -126.5 -61.5t-45.5 -218.5 q0 -163 44.5 -226t125.5 -63q41 0 83 18t71 46z" />
<glyph unicode="e" horiz-adv-x="1067" d="M995 416h-596q0 -89 58 -140t172 -51q113 0 282 74l58 -225q-184 -94 -389 -94q-240 0 -374 139t-134 385q0 116 28.5 209.5t86 163.5t151.5 108.5t219 38.5q113 0 199.5 -38.5t137.5 -105.5t76 -150t25 -181v-133zM688 600q0 88 -31.5 138t-109.5 50q-74 0 -111 -55.5 t-37 -132.5h289z" />
<glyph unicode="f" horiz-adv-x="724" d="M766 1430l-23 -254q-56 16 -125 16q-56 0 -89 -31.5t-33 -89.5v-67h217v-230h-217v-774h-324v774h-141v230h141v81q0 179 107 271t317 92q78 0 170 -18z" />
<glyph unicode="g" horiz-adv-x="1087" d="M528 1024q287 -20 519 -20l-5 -250q-86 12 -165 51q67 -75 81 -125q0 -71 -27.5 -131t-72 -99.5t-101.5 -67.5t-115 -40t-114 -12q-58 0 -127 16q-28 -10 -28 -39q0 -21 35 -32.5t91 -18t123.5 -13.5t135.5 -25.5t124 -48t91 -86.5t35 -136q0 -114 -70 -199.5 t-182.5 -127.5t-249.5 -42q-114 0 -209.5 27t-160 88t-64.5 147q0 92 70 142.5t202 70.5q-266 29 -266 178q0 66 57 110t148 50q-185 100 -185 289q0 77 28.5 138.5t73.5 99t103.5 62.5t114 34.5t110.5 9.5zM688 -76q0 57 -51 81t-160 32q-50 -8 -79 -39.5t-29 -81.5 q0 -54 41.5 -89.5t113.5 -35.5q75 0 119.5 37t44.5 96zM526 555q63 0 106.5 30t43.5 97q0 59 -45 87t-105 28t-104.5 -28t-44.5 -87q0 -67 43 -97t106 -30z" />
<glyph unicode="h" horiz-adv-x="1153" d="M1061 0h-328v592q0 96 -38.5 141t-114.5 45q-68 0 -144 -35v-743h-323v1413h323v-342q0 -93 -33 -180q102 133 279 133q113 0 189 -27t117 -83t57 -127t16 -173v-614z" />
<glyph unicode="i" horiz-adv-x="634" d="M522 0h-321v774l-119 27v203h440v-1004zM195 1139v282h323v-282h-323z" />
<glyph unicode="j" horiz-adv-x="645" d="M512 1004v-1016q0 -111 -24 -188.5t-70.5 -120t-105 -60.5t-136.5 -18q-108 0 -196 30l36 258q40 -16 88 -16q42 0 64 25t22 69v813l-118 29v195h440zM188 1139v282h324v-282h-324z" />
<glyph unicode="k" horiz-adv-x="1085" d="M1096 0h-387l-244 420h-31v-420h-321v1413h321v-532l-14 -236l262 359h383l-356 -412z" />
<glyph unicode="l" horiz-adv-x="634" d="M113 1413h321v-1102q0 -75 68 -78l82 -6v-229q-90 -18 -170 -18q-150 0 -225.5 73.5t-75.5 206.5v1153z" />
<glyph unicode="m" horiz-adv-x="1765" d="M1047 743q8 -52 8 -129v-614h-328v592q0 186 -156 186q-59 0 -135 -35v-743h-323v1004h217l51 -113q106 133 295 133q239 0 321 -133q47 59 124 96t173 37q113 0 189 -27t117 -83t57 -127t16 -173v-614h-327v592q0 186 -162 186q-61 0 -137 -35z" />
<glyph unicode="n" horiz-adv-x="1153" d="M1061 0h-328v592q0 186 -155 186q-66 0 -142 -35v-743h-323v1004h223l45 -113q47 59 129.5 96t189.5 37q190 0 275.5 -105t85.5 -305v-614z" />
<glyph unicode="o" horiz-adv-x="1126" d="M563 1024q230 0 361 -146t131 -374q0 -256 -127 -390t-365 -134t-364.5 133.5t-126.5 390.5q0 149 56 265.5t169 185.5t266 69zM563 217q79 0 118.5 63.5t39.5 223.5q0 164 -40 225.5t-118 61.5t-117.5 -61.5t-39.5 -225.5q0 -160 39 -223.5t118 -63.5z" />
<glyph unicode="p" horiz-adv-x="1150" d="M401 98q39 -107 39 -207v-280h-327v1393h284l21 -103q27 46 99 84.5t151 38.5q86 0 159 -31.5t130 -93t89.5 -162.5t32.5 -231q0 -125 -37.5 -226.5t-100.5 -166t-143 -99t-167 -34.5q-83 0 -134.5 27.5t-95.5 90.5zM440 727v-416q25 -41 64 -67.5t84 -26.5q74 0 121 68 t47 219q0 159 -44.5 223t-121.5 64q-82 0 -150 -64z" />
<glyph unicode="q" horiz-adv-x="1161" d="M803 922l55 82h191v-1393h-322v348l21 143q-28 -47 -98 -84.5t-158 -37.5q-86 0 -158.5 31t-129.5 92.5t-89.5 163.5t-32.5 235q0 125 35.5 226t96 164.5t138.5 97.5t166 34q83 0 162 -28t123 -74zM727 279v452q-60 53 -147 53q-82 0 -129.5 -62t-47.5 -218 q0 -163 44.5 -226t125.5 -63q41 0 83 18t71 46z" />
<glyph unicode="r" horiz-adv-x="749" d="M432 707v-707h-319v1004h225l31 -140h10q20 64 83.5 112t145.5 48q64 0 111 -12l-4 -275q-63 17 -125 17q-92 0 -158 -47z" />
<glyph unicode="s" horiz-adv-x="890" d="M782 985l-37 -235q-105 45 -233 45q-111 0 -111 -64q0 -25 22.5 -45.5t58 -36.5t78.5 -33.5t86 -42t78.5 -56.5t58 -83.5t22.5 -116.5q0 -152 -108.5 -244.5t-311.5 -92.5q-86 0 -165.5 19t-133.5 48l59 223q40 -24 104.5 -43.5t125.5 -19.5q56 0 88.5 22t32.5 60 q0 29 -22 52.5t-57 41t-77.5 36t-85 44.5t-77.5 59.5t-57 88t-22 124.5q0 128 101 208.5t309 80.5q151 0 274 -39z" />
<glyph unicode="t" horiz-adv-x="837" d="M750 291l47 -240q-134 -71 -285 -71q-147 0 -237.5 93t-90.5 267v434h-143v230h149v172l316 102v-274h256v-230h-256v-424q0 -94 92 -94q84 0 152 35z" />
<glyph unicode="u" horiz-adv-x="1132" d="M1040 0h-209l-51 127q-42 -58 -122 -102.5t-191 -44.5q-195 0 -285 104t-90 315v605h324v-613q0 -91 36.5 -128.5t114.5 -37.5q76 0 146 39v740h327v-1004z" />
<glyph unicode="v" horiz-adv-x="1079" d="M1069 1004l-297 -1004h-471l-291 1004h365l182 -807h8l180 807h324z" />
<glyph unicode="w" horiz-adv-x="1665" d="M1655 1004l-219 -1004h-449l-156 721h-8l-184 -721h-424l-205 1004h357l92 -752h8l192 752h385l185 -752h8l106 752h312z" />
<glyph unicode="x" horiz-adv-x="1085" d="M649 0l-129 270l-143 -270h-357l359 528l-340 476h434l113 -244l108 244h357l-322 -512l336 -492h-416z" />
<glyph unicode="y" horiz-adv-x="1114" d="M545 8l4 23l-213 -43l-301 1016h364l183 -805h6l186 805h320l-308 -1045q-63 -200 -177 -290.5t-279 -90.5q-88 0 -177 36.5t-133 72.5l101 221h31q10 -9 28 -21.5t68.5 -33.5t95.5 -21q74 0 128 49t73 127z" />
<glyph unicode="z" horiz-adv-x="1001" d="M918 805l-410 -569h412v-236h-834v184l440 588h-444v232h836v-199z" />
<glyph unicode="{" horiz-adv-x="856" d="M825 1343q-103 -44 -147.5 -115t-44.5 -194v-289l-201 -81l201 -89v-288q0 -123 44 -194.5t148 -115.5l-71 -190q-227 86 -338 199t-111 268v211l-223 110v185l223 96v211q0 155 111 268t338 199z" />
<glyph unicode="|" horiz-adv-x="614" d="M362 -344l-110 -2v1841h110v-1839z" />
<glyph unicode="}" horiz-adv-x="856" d="M774 575l-225 -110v-211q0 -155 -110 -268t-337 -199l-71 190q103 44 147.5 115.5t44.5 194.5v288l201 89l-201 81v289q0 123 -44.5 194t-147.5 115l71 191q226 -86 336.5 -199t110.5 -268v-211l225 -96v-185z" />
<glyph unicode="~" horiz-adv-x="1132" d="M1012 641q-40 -139 -111 -197.5t-188 -27.5l-281 73q-97 23 -137 -65l-172 70q39 120 125.5 183t200.5 32l262 -72q46 -12 82 4.5t55 60.5z" />
<glyph unicode="&#xa1;" horiz-adv-x="589" d="M133 -412v459l45 488h234l45 -488v-459h-324zM457 1001v-313h-318v313h318z" />
<glyph unicode="&#xa3;" horiz-adv-x="1024" d="M791 590h-242v-33l-23 -182q12 5 34 13.5t85.5 22t122.5 13.5h143v-268h-809v268h123v166h-123v194h123v76q0 183 104.5 273t338.5 90q112 0 231 -39l-39 -236q-92 21 -170 21q-80 0 -110.5 -27.5t-30.5 -93.5v-64h262z" />
<glyph unicode="&#xa5;" horiz-adv-x="1134" d="M946 307h-239v-151h-326v151h-223v197h223v92h-223v195h112l-239 411h413l136 -411h10l160 411h354l-273 -411h115v-195h-239v-92h239v-197z" />
<glyph unicode="&#xa6;" horiz-adv-x="614" d="M362 643h-110v852h110v-852zM362 -344h-110v852h110v-852z" />
<glyph unicode="&#xa7;" horiz-adv-x="1030" d="M176 360q0 101 62 172l540 -356q105 -71 105 -215q0 -154 -108.5 -255t-309.5 -101q-79 0 -159.5 23.5t-139.5 54.5l59 213q40 -25 104.5 -44.5t125.5 -19.5q118 0 118 100q0 40 -41 73t-99.5 62t-116.5 63.5t-99 93.5t-41 136zM854 698q0 -110 -55 -192l-535 352 q-117 75 -117 242q0 128 100 208.5t308 80.5q157 0 264 -39l-26 -234q-100 43 -236 43q-106 0 -106 -63q0 -29 30 -55t74.5 -45t97 -46.5t97 -57.5t74.5 -80.5t30 -113.5zM788 401v-131l-534 353v131z" />
<glyph unicode="&#xa8;" horiz-adv-x="1073" d="M135 1171v291h320v-291h-320zM618 1171v291h320v-291h-320z" />
<glyph unicode="&#xa9;" horiz-adv-x="1224" d="M1112 868q0 -136 -67.5 -251t-182.5 -181.5t-250 -66.5q-102 0 -194.5 39.5t-159 106t-106 159t-39.5 194.5q0 136 66.5 251t181.5 182t251 67q135 0 250 -67t182.5 -182t67.5 -251zM612 1016q-123 0 -123 -148q0 -84 30 -117.5t89 -33.5q87 0 174 51l49 -150 q-121 -69 -221 -69q-141 0 -226 81.5t-85 239.5q0 155 86.5 236.5t224.5 81.5q112 0 203 -43l-41 -158q-77 29 -160 29zM1034 868q0 175 -123.5 298.5t-298.5 123.5t-298.5 -123.5t-123.5 -298.5t123.5 -298.5t298.5 -123.5t298.5 123.5t123.5 298.5z" />
<glyph unicode="&#xaa;" horiz-adv-x="948" d="M846 614h-217l-35 115q-45 -65 -105 -100t-157 -35q-98 0 -164 69.5t-66 192.5q0 119 86 179.5t238 60.5h137v22q0 41 -29 61.5t-106 20.5q-118 0 -238 -57l-71 190q163 80 362 80q196 0 280.5 -77t84.5 -216v-506zM563 836v114h-100q-45 0 -69.5 -20t-24.5 -58 q0 -41 26.5 -62.5t61.5 -21.5q34 0 60.5 12t36.5 24z" />
<glyph unicode="&#xab;" horiz-adv-x="1124" d="M387 25l-328 434l332 422l199 -160l-178 -266l178 -287zM870 47l-329 412l333 399l199 -160l-178 -243l178 -262z" />
<glyph unicode="&#xad;" horiz-adv-x="1034" d="M891 446h-748v203h748v-203z" />
<glyph unicode="&#xae;" horiz-adv-x="1224" d="M1112 639q0 -136 -67.5 -251t-182.5 -182t-250 -67q-136 0 -251 67t-181.5 182t-66.5 251t66.5 251t181.5 182t251 67q135 0 250 -67t182.5 -182t67.5 -251zM1034 639q0 175 -123.5 298.5t-298.5 123.5t-298.5 -123.5t-123.5 -298.5t123.5 -298.5t298.5 -123.5 t298.5 123.5t123.5 298.5zM866 741q0 -82 -40 -133t-101 -67l129 -209h-174l-105 186h-28v-186h-146v624h215q66 0 120.5 -21t92 -71.5t37.5 -122.5zM700 743q0 95 -112 95h-41v-193h43q110 0 110 98z" />
<glyph unicode="&#xaf;" horiz-adv-x="1126" d="M989 1239h-852v152h852v-152z" />
<glyph unicode="&#xb0;" horiz-adv-x="1013" d="M358 1014q0 -63 43.5 -106.5t106.5 -43.5t106 43.5t43 106.5t-43 106t-106 43t-106.5 -43t-43.5 -106zM113 1014q0 164 114.5 278.5t280.5 114.5q164 0 278.5 -114.5t114.5 -278.5q0 -166 -114.5 -281t-278.5 -115q-166 0 -280.5 115t-114.5 281z" />
<glyph unicode="&#xb1;" horiz-adv-x="1097" d="M905 686h-225v-223h-268v223h-219v236h219v215h268v-215h225v-236zM965 92h-832v223h832v-223z" />
<glyph unicode="&#xb2;" horiz-adv-x="1003" d="M893 1167q0 -128 -95 -228t-315 -183v-17q98 25 168 25h244v-236h-719v228q121 59 203 108t124.5 88t59.5 69t17 60q0 39 -33.5 62.5t-87.5 23.5q-61 0 -128.5 -20t-117.5 -53l-104 223q167 96 399 96q181 0 283 -69.5t102 -176.5z" />
<glyph unicode="&#xb3;" horiz-adv-x="1003" d="M885 795q0 -128 -108.5 -207.5t-293.5 -79.5q-109 0 -207.5 30t-142.5 64l86 203q37 -25 112 -50.5t130 -25.5q69 0 105 23t36 57q0 41 -39 56.5t-125 15.5h-49l-16 157h43q70 0 108.5 24t38.5 64q0 64 -112 64q-127 0 -224 -60l-82 207q123 76 328 76q167 0 267 -62.5 t100 -168.5q0 -76 -46 -131t-116 -76v-4q85 -10 146 -56.5t61 -119.5z" />
<glyph unicode="&#xb4;" horiz-adv-x="1271" d="M930 1241l-559 -82l-29 184l551 136z" />
<glyph unicode="&#xb6;" horiz-adv-x="1374" d="M606 -328v781q-243 0 -378.5 131t-135.5 352q0 92 30 167t81 126t121 86t148.5 51t164.5 16h625v-1710h-283v1438h-340q-98 0 -151.5 -50t-53.5 -138q0 -107 43.5 -163.5t128.5 -56.5v271h262v-1301h-262z" />
<glyph unicode="&#xb7;" horiz-adv-x="491" d="M82 707v319h328v-319h-328z" />
<glyph unicode="&#xb8;" horiz-adv-x="1159" d="M440 -121l11 27q86 14 188 14q90 0 141 -41t51 -115q0 -66 -35 -113.5t-98 -73t-136.5 -37t-162.5 -11.5v178q55 0 86 22.5t31 65.5q0 29 -22 51.5t-54 32.5z" />
<glyph unicode="&#xb9;" horiz-adv-x="1003" d="M168 756h266v118l17 177q-57 -70 -130.5 -110t-152.5 -40v256q127 24 207.5 82.5t134.5 153.5h207v-637h188v-228h-737v228z" />
<glyph unicode="&#xba;" horiz-adv-x="983" d="M492 1413q201 0 315.5 -111t114.5 -290q0 -209 -110.5 -312.5t-319.5 -103.5t-320 103.5t-111 312.5q0 179 115 290t316 111zM492 834q46 0 75 44t29 132q0 91 -29.5 130.5t-74.5 39.5t-75 -39.5t-30 -130.5q0 -88 29.5 -132t75.5 -44z" />
<glyph unicode="&#xbb;" horiz-adv-x="1124" d="M1065 459l-328 -434l-202 143l178 287l-178 266l198 160zM584 459l-330 -412l-203 146l178 262l-178 243l199 160z" />
<glyph unicode="&#xbc;" horiz-adv-x="2140" d="M1370 1460l-563 -1552l-72 26l561 1551zM96 721h266v119l17 176q-57 -70 -130.5 -110t-152.5 -40v256q127 24 207.5 82.5t134.5 153.5h207v-637h189v-227h-738v227zM2042 182h-117v-182h-280v182h-431v164l185 541l192 -60v-102l-94 -319h148v458h280v-458h117v-224z" />
<glyph unicode="&#xbd;" horiz-adv-x="2131" d="M1370 1460l-563 -1552h-80l561 1552h82zM96 721h266v119l17 176q-57 -70 -130.5 -110t-152.5 -40v256q127 24 207.5 82.5t134.5 153.5h207v-637h189v-227h-738v227zM2032 639q0 -128 -95 -228.5t-315 -183.5v-16q98 25 168 25h244v-236h-719v227q121 59 203 108.5 t124.5 88.5t59 69t16.5 60q0 39 -33.5 62.5t-87.5 23.5q-60 0 -127 -20t-118 -54l-105 223q169 97 400 97q181 0 283 -69.5t102 -176.5z" />
<glyph unicode="&#xbe;" horiz-adv-x="2152" d="M1380 1460l-563 -1552l-72 26l562 1551zM2054 182h-117v-182h-280v182h-430v164l184 541l193 -60v-102l-95 -319h148v458h280v-458h117v-224zM850 758q0 -128 -108 -207.5t-293 -79.5q-109 0 -208 30.5t-143 63.5l86 203q37 -25 112 -50.5t130 -25.5q69 0 105 23t36 57 q0 41 -39 56.5t-125 15.5h-49l-16 157h43q69 0 108 24.5t39 64.5q0 63 -112 63q-127 0 -223 -59l-82 206q123 76 327 76q167 0 267 -62.5t100 -168.5q0 -76 -46 -131t-116 -76v-4q85 -10 146 -56.5t61 -119.5z" />
<glyph unicode="&#xbf;" horiz-adv-x="905" d="M41 -43q0 64 17.5 120.5t45 99t60.5 81t66.5 72.5t61 67t45 71.5t17.5 78.5v28h293v-45q0 -64 -14.5 -117t-37.5 -89.5t-51 -68t-56 -58.5t-51 -54t-37.5 -62.5t-14.5 -76.5q0 -59 41 -97t115 -38q121 0 243 51l80 -252q-181 -78 -385 -78q-194 0 -316 99t-122 268z M659 1004v-314h-317v314h317z" />
<glyph unicode="&#xc0;" horiz-adv-x="1282" d="M899 0l-65 291h-433l-61 -291h-324l379 1382h504l379 -1382h-379zM588 1098l-129 -549h317l-117 549h-71zM909 1458l-569 29l-4 237l600 -82z" />
<glyph unicode="&#xc1;" horiz-adv-x="1282" d="M899 0l-65 291h-433l-61 -291h-324l379 1382h504l379 -1382h-379zM588 1098l-129 -549h317l-117 549h-71zM944 1487l-569 -29l-27 184l600 82z" />
<glyph unicode="&#xc2;" horiz-adv-x="1282" d="M899 0l-65 291h-433l-61 -291h-324l379 1382h504l379 -1382h-379zM588 1098l-129 -549h317l-117 549h-71zM936 1442l-295 114l-295 -114l-72 176l328 162h74l332 -162z" />
<glyph unicode="&#xc3;" horiz-adv-x="1282" d="M899 0l-65 291h-433l-61 -291h-324l379 1382h504l379 -1382h-379zM588 1098l-129 -549h317l-117 549h-71zM1028 1774q-2 -134 -79 -200.5t-199 -27.5l-207 66q-48 15 -84.5 -4t-52.5 -62l-152 70q2 121 92 188.5t213 28.5l189 -59q46 -14 84 2.5t53 58.5z" />
<glyph unicode="&#xc4;" horiz-adv-x="1282" d="M899 0l-65 291h-433l-61 -291h-324l379 1382h504l379 -1382h-379zM588 1098l-129 -549h317l-117 549h-71zM240 1479v290h319v-290h-319zM723 1479v290h319v-290h-319z" />
<glyph unicode="&#xc5;" horiz-adv-x="1282" d="M899 0l-65 291h-433l-61 -291h-324l379 1382h504l379 -1382h-379zM588 1098l-129 -549h317l-117 549h-71zM946 1745q0 -127 -89 -213t-216 -86q-128 0 -217.5 86t-89.5 213t89.5 213t217.5 86q127 0 216 -86t89 -213zM750 1743q0 44 -31 74t-76 30q-43 0 -73.5 -30 t-30.5 -74q0 -43 30.5 -73t73.5 -30q44 0 75.5 30t31.5 73z" />
<glyph unicode="&#xc6;" horiz-adv-x="1730" d="M1649 0h-893v289h-326l-92 -289h-318l484 1382h1145v-272h-570v-272h426l-20 -285h-406v-283h570v-270zM694 1110l-182 -563h244v563h-62z" />
<glyph unicode="&#xc7;" horiz-adv-x="1253" d="M1190 129q-219 -149 -494 -149q-297 0 -454.5 182.5t-157.5 535.5q0 214 66 370.5t205 245.5t341 89q310 0 492 -119l-121 -260q-54 41 -141 66.5t-191 25.5q-155 0 -232 -101.5t-77 -314.5q0 -223 75.5 -327.5t229.5 -104.5q91 0 186 35t170 90zM535 -121l10 27 q86 14 188 14q90 0 141.5 -41t51.5 -115q0 -66 -35 -113.5t-98 -73t-136.5 -37t-162.5 -11.5v178q55 0 85.5 22.5t30.5 65.5q0 29 -22 51.5t-53 32.5z" />
<glyph unicode="&#xc8;" horiz-adv-x="1107" d="M1026 0h-893v1382h893v-272h-569v-272h426l-21 -285h-405v-283h569v-270zM889 1458l-570 29l-4 237l600 -82z" />
<glyph unicode="&#xc9;" horiz-adv-x="1107" d="M1026 0h-893v1382h893v-272h-569v-272h426l-21 -285h-405v-283h569v-270zM862 1487l-569 -29l-27 184l600 82z" />
<glyph unicode="&#xca;" horiz-adv-x="1107" d="M1026 0h-893v1382h893v-272h-569v-272h426l-21 -285h-405v-283h569v-270zM850 1458l-295 115l-295 -115l-72 176l328 162h74l332 -162z" />
<glyph unicode="&#xcb;" horiz-adv-x="1107" d="M1026 0h-893v1382h893v-272h-569v-272h426l-21 -285h-405v-283h569v-270zM152 1479v290h319v-290h-319zM635 1479v290h319v-290h-319z" />
<glyph unicode="&#xcc;" horiz-adv-x="630" d="M477 0h-323v1382h323v-1382zM588 1458l-570 29l-4 237l600 -82z" />
<glyph unicode="&#xcd;" horiz-adv-x="630" d="M477 0h-323v1382h323v-1382zM612 1487l-569 -29l-27 184l600 82z" />
<glyph unicode="&#xce;" horiz-adv-x="630" d="M477 0h-323v1382h323v-1382zM610 1458l-295 115l-295 -115l-71 176l327 162h74l332 -162z" />
<glyph unicode="&#xcf;" horiz-adv-x="630" d="M477 0h-323v1382h323v-1382zM-86 1479v290h319v-290h-319zM397 1479v290h320v-290h-320z" />
<glyph unicode="&#xd1;" horiz-adv-x="1421" d="M1288 0h-514l-375 1079h-8l31 -1079h-289v1382h498l385 -1106h8l-31 1106h295v-1382zM1098 1726q-2 -133 -79.5 -199.5t-199.5 -27.5l-207 66q-48 15 -84.5 -4t-52.5 -62l-151 70q2 121 92 188.5t213 28.5l188 -60q46 -14 84 3t53 59z" />
<glyph unicode="&#xd2;" horiz-adv-x="1386" d="M1305 702q0 -118 -17 -218.5t-60.5 -195.5t-111 -161.5t-176.5 -106.5t-250 -40t-249 40t-175 106.5t-109.5 162t-58.5 195.5t-16 218q0 701 608 701q104 0 190.5 -20t149.5 -55t111 -86.5t79 -110t50 -131t27 -144.5t8 -154zM961 705q0 96 -12.5 168t-42 130.5t-84 89.5 t-132.5 31q-63 0 -110 -21.5t-76.5 -57.5t-47.5 -91t-25 -114.5t-7 -134.5q0 -83 7.5 -148.5t25.5 -124t48 -97t76.5 -61t108.5 -22.5q76 0 130 33t84 95.5t43.5 141.5t13.5 183zM967 1458l-570 29l-4 237l600 -82z" />
<glyph unicode="&#xd3;" horiz-adv-x="1386" d="M1305 702q0 -118 -17 -218.5t-60.5 -195.5t-111 -161.5t-176.5 -106.5t-250 -40t-249 40t-175 106.5t-109.5 162t-58.5 195.5t-16 218q0 701 608 701q104 0 190.5 -20t149.5 -55t111 -86.5t79 -110t50 -131t27 -144.5t8 -154zM961 705q0 96 -12.5 168t-42 130.5t-84 89.5 t-132.5 31q-63 0 -110 -21.5t-76.5 -57.5t-47.5 -91t-25 -114.5t-7 -134.5q0 -83 7.5 -148.5t25.5 -124t48 -97t76.5 -61t108.5 -22.5q76 0 130 33t84 95.5t43.5 141.5t13.5 183zM989 1487l-569 -29l-27 184l600 82z" />
<glyph unicode="&#xd4;" horiz-adv-x="1386" d="M1305 702q0 -118 -17 -218.5t-60.5 -195.5t-111 -161.5t-176.5 -106.5t-250 -40t-249 40t-175 106.5t-109.5 162t-58.5 195.5t-16 218q0 701 608 701q104 0 190.5 -20t149.5 -55t111 -86.5t79 -110t50 -131t27 -144.5t8 -154zM961 705q0 96 -12.5 168t-42 130.5t-84 89.5 t-132.5 31q-63 0 -110 -21.5t-76.5 -57.5t-47.5 -91t-25 -114.5t-7 -134.5q0 -83 7.5 -148.5t25.5 -124t48 -97t76.5 -61t108.5 -22.5q76 0 130 33t84 95.5t43.5 141.5t13.5 183zM987 1458l-295 115l-295 -115l-71 176l327 162h74l332 -162z" />
<glyph unicode="&#xd5;" horiz-adv-x="1386" d="M1305 702q0 -118 -17 -218.5t-60.5 -195.5t-111 -161.5t-176.5 -106.5t-250 -40t-249 40t-175 106.5t-109.5 162t-58.5 195.5t-16 218q0 701 608 701q104 0 190.5 -20t149.5 -55t111 -86.5t79 -110t50 -131t27 -144.5t8 -154zM961 705q0 96 -12.5 168t-42 130.5t-84 89.5 t-132.5 31q-63 0 -110 -21.5t-76.5 -57.5t-47.5 -91t-25 -114.5t-7 -134.5q0 -83 7.5 -148.5t25.5 -124t48 -97t76.5 -61t108.5 -22.5q76 0 130 33t84 95.5t43.5 141.5t13.5 183zM1079 1774q-2 -134 -79 -200.5t-199 -27.5l-207 66q-48 15 -84.5 -4t-52.5 -62l-152 70 q2 121 92 188.5t213 28.5l189 -59q46 -14 84 2.5t53 58.5z" />
<glyph unicode="&#xd6;" horiz-adv-x="1386" d="M1305 702q0 -118 -17 -218.5t-60.5 -195.5t-111 -161.5t-176.5 -106.5t-250 -40t-249 40t-175 106.5t-109.5 162t-58.5 195.5t-16 218q0 701 608 701q104 0 190.5 -20t149.5 -55t111 -86.5t79 -110t50 -131t27 -144.5t8 -154zM961 705q0 96 -12.5 168t-42 130.5t-84 89.5 t-132.5 31q-63 0 -110 -21.5t-76.5 -57.5t-47.5 -91t-25 -114.5t-7 -134.5q0 -83 7.5 -148.5t25.5 -124t48 -97t76.5 -61t108.5 -22.5q76 0 130 33t84 95.5t43.5 141.5t13.5 183zM291 1479v290h319v-290h-319zM774 1479v290h320v-290h-320z" />
<glyph unicode="&#xd7;" horiz-adv-x="1067" d="M924 801l-228 -228l213 -213l-174 -176l-213 213l-213 -213l-164 162l213 213l-215 217l176 174l216 -215l227 228z" />
<glyph unicode="&#xd9;" horiz-adv-x="1363" d="M1229 1382v-854q0 -88 -20 -168t-63 -150t-106 -120.5t-154.5 -80t-203.5 -29.5q-139 0 -245.5 43t-171.5 119t-97.5 173.5t-32.5 212.5v854h324v-837q0 -133 58.5 -212t164.5 -79q104 0 161.5 79.5t57.5 211.5v837h328zM956 1458l-569 29l-4 237l600 -82z" />
<glyph unicode="&#xda;" horiz-adv-x="1363" d="M1229 1382v-854q0 -88 -20 -168t-63 -150t-106 -120.5t-154.5 -80t-203.5 -29.5q-139 0 -245.5 43t-171.5 119t-97.5 173.5t-32.5 212.5v854h324v-837q0 -133 58.5 -212t164.5 -79q104 0 161.5 79.5t57.5 211.5v837h328zM979 1487l-569 -29l-27 184l600 82z" />
<glyph unicode="&#xdb;" horiz-adv-x="1363" d="M1229 1382v-854q0 -88 -20 -168t-63 -150t-106 -120.5t-154.5 -80t-203.5 -29.5q-139 0 -245.5 43t-171.5 119t-97.5 173.5t-32.5 212.5v854h324v-837q0 -133 58.5 -212t164.5 -79q104 0 161.5 79.5t57.5 211.5v837h328zM977 1458l-295 115l-295 -115l-72 176l328 162h74 l332 -162z" />
<glyph unicode="&#xdc;" horiz-adv-x="1363" d="M1229 1382v-854q0 -88 -20 -168t-63 -150t-106 -120.5t-154.5 -80t-203.5 -29.5q-139 0 -245.5 43t-171.5 119t-97.5 173.5t-32.5 212.5v854h324v-837q0 -133 58.5 -212t164.5 -79q104 0 161.5 79.5t57.5 211.5v837h328zM281 1479v290h319v-290h-319zM764 1479v290h319 v-290h-319z" />
<glyph unicode="&#xdd;" horiz-adv-x="1257" d="M1247 1382l-479 -917v-465h-326v467l-432 915h414l217 -598h10l242 598h354zM926 1487l-570 -29l-26 184l600 82z" />
<glyph unicode="&#xdf;" horiz-adv-x="1239" d="M1112 1085q0 -55 -16.5 -99.5t-41.5 -71.5t-54.5 -52.5t-54.5 -43.5t-41.5 -43t-16.5 -52q0 -26 17.5 -46t46 -35.5t63 -32t68.5 -40.5t62.5 -55t46 -82t17.5 -115q0 -150 -111 -243.5t-309 -93.5q-99 0 -217 59v231q36 -22 103.5 -42.5t105.5 -20.5q60 0 89.5 24 t29.5 64q0 33 -17.5 58.5t-45 43.5t-61 36t-67.5 42t-61.5 54.5t-45 80t-17.5 113.5q0 56 24.5 101t60 73.5t70.5 53.5t59.5 55t24.5 65q0 61 -41 98t-123 37q-163 0 -163 -166v-1040h-324v774h-141v230h141v61q0 175 126.5 279t375.5 104q220 0 329 -100t109 -263z" />
<glyph unicode="&#xe0;" horiz-adv-x="1054" d="M963 0h-222l-41 115q-39 -57 -113 -96t-171 -39q-152 0 -248 89.5t-96 239.5q0 144 102.5 222.5t288.5 78.5h186v37q0 131 -151 131q-156 0 -299 -65l-80 229q194 82 409 82q228 0 331.5 -98.5t103.5 -300.5v-625zM649 238v186h-129q-64 0 -97.5 -28.5t-33.5 -78.5 q0 -58 31 -89t90 -31q68 0 139 41zM793 1159l-560 82l37 238l551 -136z" />
<glyph unicode="&#xe1;" horiz-adv-x="1054" d="M963 0h-222l-41 115q-39 -57 -113 -96t-171 -39q-152 0 -248 89.5t-96 239.5q0 144 102.5 222.5t288.5 78.5h186v37q0 131 -151 131q-156 0 -299 -65l-80 229q194 82 409 82q228 0 331.5 -98.5t103.5 -300.5v-625zM649 238v186h-129q-64 0 -97.5 -28.5t-33.5 -78.5 q0 -58 31 -89t90 -31q68 0 139 41zM821 1241l-559 -82l-29 184l551 136z" />
<glyph unicode="&#xe2;" horiz-adv-x="1054" d="M963 0h-222l-41 115q-39 -57 -113 -96t-171 -39q-152 0 -248 89.5t-96 239.5q0 144 102.5 222.5t288.5 78.5h186v37q0 131 -151 131q-156 0 -299 -65l-80 229q194 82 409 82q228 0 331.5 -98.5t103.5 -300.5v-625zM649 238v186h-129q-64 0 -97.5 -28.5t-33.5 -78.5 q0 -58 31 -89t90 -31q68 0 139 41zM823 1141l-295 114l-295 -114l-71 176l327 162h74l332 -162z" />
<glyph unicode="&#xe3;" horiz-adv-x="1054" d="M963 0h-222l-41 115q-39 -57 -113 -96t-171 -39q-152 0 -248 89.5t-96 239.5q0 144 102.5 222.5t288.5 78.5h186v37q0 131 -151 131q-156 0 -299 -65l-80 229q194 82 409 82q228 0 331.5 -98.5t103.5 -300.5v-625zM649 238v186h-129q-64 0 -97.5 -28.5t-33.5 -78.5 q0 -58 31 -89t90 -31q68 0 139 41zM915 1384q-2 -133 -79 -199.5t-199 -27.5l-207 66q-48 15 -84.5 -4t-52.5 -62l-152 70q2 121 92 188.5t213 28.5l189 -60q46 -14 84 3t53 59z" />
<glyph unicode="&#xe4;" horiz-adv-x="1054" d="M963 0h-222l-41 115q-39 -57 -113 -96t-171 -39q-152 0 -248 89.5t-96 239.5q0 144 102.5 222.5t288.5 78.5h186v37q0 131 -151 131q-156 0 -299 -65l-80 229q194 82 409 82q228 0 331.5 -98.5t103.5 -300.5v-625zM649 238v186h-129q-64 0 -97.5 -28.5t-33.5 -78.5 q0 -58 31 -89t90 -31q68 0 139 41zM127 1171v291h319v-291h-319zM610 1171v291h320v-291h-320z" />
<glyph unicode="&#xe5;" horiz-adv-x="1054" d="M963 0h-222l-41 115q-39 -57 -113 -96t-171 -39q-152 0 -248 89.5t-96 239.5q0 144 102.5 222.5t288.5 78.5h186v37q0 131 -151 131q-156 0 -299 -65l-80 229q194 82 409 82q228 0 331.5 -98.5t103.5 -300.5v-625zM649 238v186h-129q-64 0 -97.5 -28.5t-33.5 -78.5 q0 -58 31 -89t90 -31q68 0 139 41zM836 1356q0 -126 -89.5 -212.5t-216.5 -86.5q-128 0 -217.5 86t-89.5 213t89.5 213t217.5 86q127 0 216.5 -86.5t89.5 -212.5zM639 1354q0 44 -31 74t-76 30q-43 0 -73.5 -30t-30.5 -74q0 -43 30.5 -73t73.5 -30q44 0 75.5 30t31.5 73z " />
<glyph unicode="&#xe6;" horiz-adv-x="1630" d="M1559 420h-596q0 -90 58 -142.5t171 -52.5q110 0 283 76l57 -225q-188 -96 -383 -96q-247 0 -375 165h-10q-125 -165 -348 -165q-157 0 -250.5 88.5t-93.5 240.5q0 143 102.5 218t288.5 75h186v45q0 72 -41.5 101.5t-99.5 29.5q-76 0 -161 -19.5t-152 -49.5l-82 229 q195 86 413 86q197 0 305 -98q63 48 128 73t163 25q91 0 165 -25.5t124 -69t84 -104.5t49 -129.5t15 -146.5v-129zM649 248v172h-129q-64 0 -97.5 -26.5t-33.5 -76.5q0 -58 31 -89t90 -31q79 0 139 51zM1251 602q0 88 -31.5 137t-109.5 49q-74 0 -110.5 -54.5t-36.5 -131.5 h288z" />
<glyph unicode="&#xe7;" horiz-adv-x="993" d="M942 942l-82 -217q-102 57 -239 57q-95 0 -146 -64.5t-51 -213.5q0 -148 49 -213.5t150 -65.5q66 0 137.5 21.5t124.5 50.5l57 -229q-57 -31 -152 -59.5t-198 -28.5q-241 0 -370.5 134t-129.5 390q0 244 130.5 382t367.5 138q203 0 352 -82zM430 -121l10 27q86 14 189 14 q90 0 141 -41t51 -115q0 -66 -35 -113.5t-98 -73t-136.5 -37t-162.5 -11.5v178q55 0 86 22.5t31 65.5q0 29 -22 51.5t-54 32.5z" />
<glyph unicode="&#xe8;" horiz-adv-x="1067" d="M995 416h-596q0 -89 58 -140t172 -51q113 0 282 74l58 -225q-184 -94 -389 -94q-240 0 -374 139t-134 385q0 116 28.5 209.5t86 163.5t151.5 108.5t219 38.5q113 0 199.5 -38.5t137.5 -105.5t76 -150t25 -181v-133zM688 600q0 88 -31.5 138t-109.5 50q-74 0 -111 -55.5 t-37 -132.5h289zM809 1159l-559 82l37 238l551 -136z" />
<glyph unicode="&#xe9;" horiz-adv-x="1067" d="M995 416h-596q0 -89 58 -140t172 -51q113 0 282 74l58 -225q-184 -94 -389 -94q-240 0 -374 139t-134 385q0 116 28.5 209.5t86 163.5t151.5 108.5t219 38.5q113 0 199.5 -38.5t137.5 -105.5t76 -150t25 -181v-133zM688 600q0 88 -31.5 138t-109.5 50q-74 0 -111 -55.5 t-37 -132.5h289zM834 1241l-560 -82l-28 184l551 136z" />
<glyph unicode="&#xea;" horiz-adv-x="1067" d="M995 416h-596q0 -89 58 -140t172 -51q113 0 282 74l58 -225q-184 -94 -389 -94q-240 0 -374 139t-134 385q0 116 28.5 209.5t86 163.5t151.5 108.5t219 38.5q113 0 199.5 -38.5t137.5 -105.5t76 -150t25 -181v-133zM688 600q0 88 -31.5 138t-109.5 50q-74 0 -111 -55.5 t-37 -132.5h289zM846 1141l-295 114l-295 -114l-72 176l328 162h74l332 -162z" />
<glyph unicode="&#xeb;" horiz-adv-x="1067" d="M995 416h-596q0 -89 58 -140t172 -51q113 0 282 74l58 -225q-184 -94 -389 -94q-240 0 -374 139t-134 385q0 116 28.5 209.5t86 163.5t151.5 108.5t219 38.5q113 0 199.5 -38.5t137.5 -105.5t76 -150t25 -181v-133zM688 600q0 88 -31.5 138t-109.5 50q-74 0 -111 -55.5 t-37 -132.5h289zM141 1171v291h320v-291h-320zM625 1171v291h319v-291h-319z" />
<glyph unicode="&#xec;" horiz-adv-x="643" d="M520 0h-321v774l-119 27v203h440v-1004zM588 1159l-559 82l37 238l550 -136z" />
<glyph unicode="&#xed;" horiz-adv-x="645" d="M522 0h-321v774l-119 27v203h440v-1004zM700 1241l-559 -82l-28 184l551 136z" />
<glyph unicode="&#xee;" horiz-adv-x="643" d="M520 0h-321v774l-119 27v203h440v-1004zM616 1141l-294 114l-295 -114l-72 176l328 162h73l332 -162z" />
<glyph unicode="&#xef;" horiz-adv-x="643" d="M520 0h-321v774l-119 27v203h440v-1004zM-80 1171v291h320v-291h-320zM403 1171v291h320v-291h-320z" />
<glyph unicode="&#xf1;" horiz-adv-x="1153" d="M1061 0h-328v592q0 186 -155 186q-66 0 -142 -35v-743h-323v1004h223l45 -113q47 59 129.5 96t189.5 37q190 0 275.5 -105t85.5 -305v-614zM973 1384q-2 -133 -79.5 -199.5t-199.5 -27.5l-207 66q-48 15 -84.5 -4t-52.5 -62l-151 70q2 121 92 188.5t213 28.5l188 -60 q46 -14 84 3t53 59z" />
<glyph unicode="&#xf2;" horiz-adv-x="1126" d="M563 1024q230 0 361 -146t131 -374q0 -256 -127 -390t-365 -134t-364.5 133.5t-126.5 390.5q0 149 56 265.5t169 185.5t266 69zM563 217q79 0 118.5 63.5t39.5 223.5q0 164 -40 225.5t-118 61.5t-117.5 -61.5t-39.5 -225.5q0 -160 39 -223.5t118 -63.5zM829 1159l-559 82 l37 238l551 -136z" />
<glyph unicode="&#xf3;" horiz-adv-x="1126" d="M563 1024q230 0 361 -146t131 -374q0 -256 -127 -390t-365 -134t-364.5 133.5t-126.5 390.5q0 149 56 265.5t169 185.5t266 69zM563 217q79 0 118.5 63.5t39.5 223.5q0 164 -40 225.5t-118 61.5t-117.5 -61.5t-39.5 -225.5q0 -160 39 -223.5t118 -63.5zM858 1241 l-559 -82l-29 184l551 136z" />
<glyph unicode="&#xf4;" horiz-adv-x="1126" d="M563 1024q230 0 361 -146t131 -374q0 -256 -127 -390t-365 -134t-364.5 133.5t-126.5 390.5q0 149 56 265.5t169 185.5t266 69zM563 217q79 0 118.5 63.5t39.5 223.5q0 164 -40 225.5t-118 61.5t-117.5 -61.5t-39.5 -225.5q0 -160 39 -223.5t118 -63.5zM858 1141 l-295 114l-295 -114l-71 176l327 162h74l332 -162z" />
<glyph unicode="&#xf5;" horiz-adv-x="1126" d="M563 1024q230 0 361 -146t131 -374q0 -256 -127 -390t-365 -134t-364.5 133.5t-126.5 390.5q0 149 56 265.5t169 185.5t266 69zM563 217q79 0 118.5 63.5t39.5 223.5q0 164 -40 225.5t-118 61.5t-117.5 -61.5t-39.5 -225.5q0 -160 39 -223.5t118 -63.5zM950 1384 q-2 -133 -79 -199.5t-199 -27.5l-207 66q-48 15 -84.5 -4t-52.5 -62l-152 70q2 121 92 188.5t213 28.5l189 -60q46 -14 84 3t53 59z" />
<glyph unicode="&#xf6;" horiz-adv-x="1126" d="M563 1024q230 0 361 -146t131 -374q0 -256 -127 -390t-365 -134t-364.5 133.5t-126.5 390.5q0 149 56 265.5t169 185.5t266 69zM563 217q79 0 118.5 63.5t39.5 223.5q0 164 -40 225.5t-118 61.5t-117.5 -61.5t-39.5 -225.5q0 -160 39 -223.5t118 -63.5zM162 1171v291h319 v-291h-319zM645 1171v291h320v-291h-320z" />
<glyph unicode="&#xf7;" horiz-adv-x="993" d="M346 37v299h299v-299h-299zM346 793v299h299v-299h-299zM870 455h-747v221h747v-221z" />
<glyph unicode="&#xf9;" horiz-adv-x="1132" d="M1040 0h-209l-51 127q-42 -58 -122 -102.5t-191 -44.5q-195 0 -285 104t-90 315v605h324v-613q0 -91 36.5 -128.5t114.5 -37.5q76 0 146 39v740h327v-1004zM831 1159l-559 82l37 238l551 -136z" />
<glyph unicode="&#xfa;" horiz-adv-x="1132" d="M1040 0h-209l-51 127q-42 -58 -122 -102.5t-191 -44.5q-195 0 -285 104t-90 315v605h324v-613q0 -91 36.5 -128.5t114.5 -37.5q76 0 146 39v740h327v-1004zM860 1241l-559 -82l-29 184l551 136z" />
<glyph unicode="&#xfb;" horiz-adv-x="1132" d="M1040 0h-209l-51 127q-42 -58 -122 -102.5t-191 -44.5q-195 0 -285 104t-90 315v605h324v-613q0 -91 36.5 -128.5t114.5 -37.5q76 0 146 39v740h327v-1004zM860 1141l-295 114l-295 -114l-71 176l327 162h74l332 -162z" />
<glyph unicode="&#xfc;" horiz-adv-x="1132" d="M1040 0h-209l-51 127q-42 -58 -122 -102.5t-191 -44.5q-195 0 -285 104t-90 315v605h324v-613q0 -91 36.5 -128.5t114.5 -37.5q76 0 146 39v740h327v-1004zM174 1171v291h320v-291h-320zM657 1171v291h320v-291h-320z" />
<glyph unicode="&#xfd;" horiz-adv-x="1114" d="M545 8l4 23l-213 -43l-301 1016h364l183 -805h6l186 805h320l-308 -1045q-63 -200 -177 -290.5t-279 -90.5q-88 0 -177 36.5t-133 72.5l101 221h31q10 -9 28 -21.5t68.5 -33.5t95.5 -21q74 0 128 49t73 127zM852 1241l-559 -82l-29 184l551 136z" />
<glyph unicode="&#xff;" horiz-adv-x="1114" d="M545 8l4 23l-213 -43l-301 1016h364l183 -805h6l186 805h320l-308 -1045q-63 -200 -177 -290.5t-279 -90.5q-88 0 -177 36.5t-133 72.5l101 221h31q10 -9 28 -21.5t68.5 -33.5t95.5 -21q74 0 128 49t73 127zM156 1171v291h319v-291h-319zM639 1171v291h319v-291h-319z " />
<glyph unicode="&#x152;" horiz-adv-x="1939" d="M1858 0h-893l6 74q-109 -94 -281 -94q-141 0 -249 40t-175 106.5t-109.5 162t-58.5 195.5t-16 218q0 701 608 701q174 0 281 -92l-6 71h893v-272h-570v-272h426l-20 -285h-406v-283h570v-270zM961 705q0 96 -12.5 168t-42 130.5t-84 89.5t-132.5 31q-63 0 -110 -21.5 t-76.5 -57.5t-47.5 -91t-25 -114.5t-7 -134.5q0 -83 7.5 -148.5t25.5 -124t48 -97t76.5 -61t108.5 -22.5q76 0 130 33t84 95.5t43.5 141.5t13.5 183z" />
<glyph unicode="&#x153;" horiz-adv-x="1718" d="M1647 416h-596q0 -89 57.5 -140t171.5 -51q110 0 283 76l57 -225q-188 -96 -383 -96q-112 0 -189.5 31.5t-152.5 90.5q-72 -60 -146.5 -91t-185.5 -31q-238 0 -364.5 133.5t-126.5 390.5q0 149 56 265.5t169 185.5t266 69q102 0 174 -33t144 -94q69 60 145.5 93.5 t183.5 33.5q91 0 165 -25.5t124 -69t84 -104.5t49 -129.5t15 -146.5v-133zM563 217q79 0 118.5 63.5t39.5 223.5q0 164 -40 225.5t-118 61.5t-117.5 -61.5t-39.5 -225.5q0 -160 39 -223.5t118 -63.5zM1339 600q0 88 -31.5 138t-109.5 50q-74 0 -110.5 -55t-36.5 -133h288z " />
<glyph unicode="&#x178;" horiz-adv-x="1257" d="M1247 1382l-479 -917v-465h-326v467l-432 915h414l217 -598h10l242 598h354zM227 1479v290h320v-290h-320zM711 1479v290h319v-290h-319z" />
<glyph unicode="&#x2c6;" horiz-adv-x="1142" d="M866 1141l-295 114l-295 -114l-71 176l327 162h74l332 -162z" />
<glyph unicode="&#x2dc;" horiz-adv-x="1187" d="M981 1384q-2 -133 -79.5 -199.5t-199.5 -27.5l-206 66q-48 15 -85.5 -4t-52.5 -62l-151 70q2 121 92 188.5t213 28.5l188 -60q46 -14 84.5 3t53.5 59z" />
<glyph unicode="&#x2000;" horiz-adv-x="1022" />
<glyph unicode="&#x2001;" horiz-adv-x="2044" />
<glyph unicode="&#x2002;" horiz-adv-x="1022" />
<glyph unicode="&#x2003;" horiz-adv-x="2044" />
<glyph unicode="&#x2004;" horiz-adv-x="681" />
<glyph unicode="&#x2005;" horiz-adv-x="511" />
<glyph unicode="&#x2006;" horiz-adv-x="340" />
<glyph unicode="&#x2007;" horiz-adv-x="340" />
<glyph unicode="&#x2008;" horiz-adv-x="255" />
<glyph unicode="&#x2009;" horiz-adv-x="408" />
<glyph unicode="&#x200a;" horiz-adv-x="113" />
<glyph unicode="&#x2010;" horiz-adv-x="1034" d="M891 446h-748v203h748v-203z" />
<glyph unicode="&#x2011;" horiz-adv-x="1034" d="M891 446h-748v203h748v-203z" />
<glyph unicode="&#x2012;" horiz-adv-x="1034" d="M891 446h-748v203h748v-203z" />
<glyph unicode="&#x2013;" horiz-adv-x="1034" d="M891 465h-748v221h748v-221z" />
<glyph unicode="&#x2014;" horiz-adv-x="1443" d="M1311 465h-1178v221h1178v-221z" />
<glyph unicode="&#x2018;" horiz-adv-x="577" d="M270 1413l246 -59q-124 -256 -129 -572h-326q10 195 62.5 343.5t146.5 287.5z" />
<glyph unicode="&#x2019;" horiz-adv-x="577" d="M307 782l-246 60q63 131 94.5 266t34.5 305h326q-10 -195 -62.5 -343.5t-146.5 -287.5z" />
<glyph unicode="&#x201a;" horiz-adv-x="577" d="M307 -418l-246 60q63 131 94.5 266t34.5 305h326q-10 -195 -62.5 -343.5t-146.5 -287.5z" />
<glyph unicode="&#x201c;" horiz-adv-x="966" d="M309 1413l246 -59q-74 -142 -114.5 -278.5t-43.5 -293.5h-325q15 303 237 631zM651 1389l244 -60q-54 -120 -75.5 -244t-24.5 -303h-326q13 296 182 607z" />
<glyph unicode="&#x201d;" horiz-adv-x="966" d="M657 782l-245 60q73 142 113.5 278t43.5 293h326q-15 -302 -238 -631zM315 807l-243 59q54 120 75.5 244t24.5 303h326q-12 -293 -183 -606z" />
<glyph unicode="&#x201e;" horiz-adv-x="966" d="M657 -387l-245 59q73 142 113.5 278.5t43.5 293.5h326q-15 -302 -238 -631zM315 -362l-243 59q54 120 75.5 244t24.5 303h326q-12 -293 -183 -606z" />
<glyph unicode="&#x2022;" horiz-adv-x="684" d="M510 377h-338q-54 276 0 510h338q58 -229 0 -510z" />
<glyph unicode="&#x2026;" horiz-adv-x="1536" d="M92 0v319h328v-319h-328zM604 0v319h328v-319h-328zM1116 0v319h328v-319h-328z" />
<glyph unicode="&#x202f;" horiz-adv-x="408" />
<glyph unicode="&#x2039;" horiz-adv-x="636" d="M586 156l-201 -129l-334 430l334 417l201 -145l-183 -276z" />
<glyph unicode="&#x203a;" horiz-adv-x="636" d="M586 457l-334 -430l-201 129l182 297l-182 276l201 145z" />
<glyph unicode="&#x205f;" horiz-adv-x="511" />
<glyph unicode="&#x20ac;" horiz-adv-x="1024" d="M961 1155l-60 -227q-99 55 -242 55q-64 0 -103 -25t-60 -88h204l-18 -145h-205v-33v-35h197l-17 -147h-161q18 -65 56 -91t107 -26q124 0 246 68l58 -228q-56 -31 -147.5 -58.5t-190.5 -27.5q-188 0 -305 94t-156 269h-123v147h104v35v33h-104v145h123q41 167 158.5 260 t302.5 93q194 0 336 -68z" />
<glyph unicode="&#x2122;" horiz-adv-x="1695" d="M1126 537l97 -426l-375 223l-375 -223l94 426l-325 286l432 41l174 400l172 -400l434 -41z" />
<glyph unicode="&#x25fc;" horiz-adv-x="1003" d="M0 1004h1004v-1004h-1004v1004z" />
<glyph unicode="&#xfb01;" horiz-adv-x="1247" d="M1135 0h-322v774h-317v-774h-324v774h-141v230h141v81q0 178 107 270.5t313 92.5q76 0 168 -18v-254q-56 16 -148 16q-55 0 -85.5 -31t-30.5 -90v-67h639v-1004zM807 1139v282h323v-282h-323z" />
<glyph unicode="&#xfb02;" horiz-adv-x="1370" d="M766 1430l-23 -254q-56 16 -125 16q-56 0 -89 -31.5t-33 -89.5v-67h217v-230h-217v-774h-324v774h-141v230h141v81q0 179 107 271t317 92q78 0 170 -18zM848 1413h321v-1102q0 -75 68 -78l82 -6v-229q-90 -18 -170 -18q-150 0 -225.5 73.5t-75.5 206.5v1153z" />
<glyph unicode="&#xfb03;" horiz-adv-x="1896" d="M821 1004v81q0 178 107 270.5t313 92.5q76 0 168 -18v-254q-56 16 -147 16q-55 0 -86 -31t-31 -90v-67h639v-1004h-322v774h-317v-774h-324v774h-325v-774h-324v774h-141v230h141v81q0 179 107 271t317 92q78 0 170 -18l-23 -254q-56 16 -125 16q-56 0 -89 -31.5 t-33 -89.5v-67h325zM1456 1139v282h324v-282h-324z" />
<glyph unicode="&#xfb04;" horiz-adv-x="2019" d="M1415 1430l-22 -254q-56 16 -125 16q-56 0 -89.5 -31.5t-33.5 -89.5v-67h217v-230h-217v-774h-324v774h-325v-774h-324v774h-141v230h141v81q0 179 107 271t317 92q78 0 170 -18l-23 -254q-56 16 -125 16q-56 0 -89 -31.5t-33 -89.5v-67h325v81q0 179 107 271t317 92 q78 0 170 -18zM1497 1413h322v-1102q0 -75 67 -78l82 -6v-229q-90 -18 -170 -18q-150 0 -225.5 73.5t-75.5 206.5v1153z" />
</font>
</defs>
</svg>
